<?xml version="1.0" standalone="no"?><!DOCTYPE svg PUBLIC "-//W3C//DTD SVG 1.1//EN" "http://www.w3.org/Graphics/SVG/1.1/DTD/svg11.dtd"><svg t="1578550948728" class="icon" viewBox="0 0 1024 1024" version="1.1" xmlns="http://www.w3.org/2000/svg" p-id="2147" xmlns:xlink="http://www.w3.org/1999/xlink" width="200" height="200"><defs><style type="text/css"></style></defs><path d="M959.5 620.4c-24.7-60-60.7-113.6-107-159.1-4.7-4.7-9.6-9.2-14.5-13.7L945.6 379c14.9-9.5 19.3-29.3 9.7-44.2-9.5-14.9-29.3-19.3-44.2-9.7l-126.3 80.7c-27.2-18.5-56.3-34.2-87.2-47.1-16.7-6.9-33.6-12.9-50.8-18l73.1-189.8c6.3-16.5-1.9-35-18.4-41.4-16.5-6.3-35 1.9-41.4 18.4l-76.5 198.7c-22.4-3.4-45.2-5.3-68-5.6-25.4-0.3-50.5 1.4-75.3 5L364 127.9c-6.3-16.5-24.9-24.7-41.4-18.4-16.5 6.3-24.7 24.9-18.4 41.4L377 339.8c-16.8 4.9-33.4 10.7-49.7 17.4-31.7 13.1-61.6 29.3-89.5 48.4L113.2 326c-14.9-9.5-34.7-5.2-44.2 9.7-9.5 14.9-5.2 34.7 9.7 44.2l106.1 67.7c-5.2 4.7-10.2 9.6-15.2 14.5-45.4 45.3-80.8 98.3-105.3 157.6 24.7 60 60.7 113.6 107 159.1 44.6 43.9 96.7 78.4 154.9 102.6 58.2 24.2 119.4 36.9 182 37.6 64.9 0.8 128.2-11.4 188.3-36.1 59.3-24.4 112.3-59.8 157.7-105.1 45.4-45.2 80.8-98.2 105.3-157.4zM671.9 823.3c-205.5 84.7-440.3-6.4-536.6-203.4 44.9-91 122.6-164.2 216.7-202.9 205.5-84.7 440.3 6.4 536.6 203.4-44.9 90.9-122.6 164.1-216.7 202.9z" p-id="2148" fill="#C4C4CA"></path><path d="M513.7 430.2c-105.9 0-191.8 85.9-191.8 191.8s85.9 191.8 191.8 191.8S705.6 728 705.6 622.1s-85.9-191.9-191.9-191.9z m90.4 282.2c-24.1 24.1-56.2 37.4-90.4 37.4s-66.2-13.3-90.4-37.4c-24.1-24.1-37.4-56.2-37.4-90.4s13.3-66.2 37.4-90.4c24.1-24.1 56.2-37.4 90.4-37.4s66.2 13.3 90.4 37.4c24.1 24.1 37.4 56.2 37.4 90.4s-13.2 66.3-37.4 90.4z" p-id="2149" fill="#C4C4CA"></path></svg>