<svg viewBox="0 0 357.58 473.33" xmlns="http://www.w3.org/2000/svg" xmlns:xlink="http://www.w3.org/1999/xlink"><radialGradient id="a" cx="163.99" cy="119.56" gradientUnits="userSpaceOnUse" r="23.61"><stop offset=".01" stop-color="#ebedf7"/><stop offset=".45" stop-color="#d2d6ec"/><stop offset="1" stop-color="#b4bcdf"/></radialGradient><radialGradient id="b" cx="298" cy="204.34" r="20.4" xlink:href="#a"/><radialGradient id="c" cx="211.11" cy="70.98" r="13.31" xlink:href="#a"/><radialGradient id="d" cx="58.08" cy="90.68" r="18.76" xlink:href="#a"/><radialGradient id="e" cx="102.58" cy="57.42" r="12.68" xlink:href="#a"/><radialGradient id="f" cx="322.38" cy="215.1" gradientTransform="matrix(.63 -.77 1.03 .84 -145.31 169.27)" r="18.14" xlink:href="#a"/><radialGradient id="g" cx="75.58" cy="143.85" r="15.11" xlink:href="#a"/><radialGradient id="h" cx="184.08" cy="208.92" r="13.13" xlink:href="#a"/><radialGradient id="i" cx="242.48" cy="150.77" r="12.13" xlink:href="#a"/><radialGradient id="j" cx="62.32" cy="241.06" r="19.1" xlink:href="#a"/><radialGradient id="k" cx="242.21" cy="15.9" r="16.26" xlink:href="#a"/><radialGradient id="l" cx="110.48" cy="190.69" r="15.37" xlink:href="#a"/><path d="m62.36 497c-36 0-97.8 30-28.59 35.36 56.78 4.39 60.72-8.82 97.8-1.87s77 19 113.14 19 133.29-13.49 108.75-23.6-36.28-11.1-23.29-16 21.39-11.49-15.84-14.3-251.97 1.41-251.97 1.41z" fill="#eff5f8" transform="translate(-2.42 -76.17)"/><path d="m1.52 305.07h356.06" fill="#545454"/><ellipse cx="180.06" cy="438.64" opacity=".1" rx="55.87" ry="20.93"/><path d="m174.64 358.63h2.85v71.02h-2.85z" fill="#c1c1c1"/><ellipse cx="179.55" cy="357.8" fill="#7c5337" rx="29.75" ry="14.66"/><ellipse cx="179.55" cy="356.77" fill="#a5704c" rx="29.75" ry="12.93"/><g transform="translate(-2.42 -76.17)"><path d="m203.84 496.84s-.67 3.32.11 4.52-8.79 0-8.79 0 3.39-4.6 2.51-6.93 6.17 2.41 6.17 2.41z" fill="#edbfa4"/><path d="m214.76 511.39-20.95-4.52c-1-2.52-.43-4.78 1.48-6.86a19.18 19.18 0 0 0 9.77.61c2.25 2.85 5.95 5.5 10.28 8.06 1.37.94.89 1.84-.58 2.71z" fill="#243a45"/><path d="m163.88 451s-3.22 1.06-4.07 2.26-2.77-6.94-2.77-6.94 5.25.47 7.09-1.34-.25 6.02-.25 6.02z" fill="#edbfa4"/><path d="m154.17 466.61-2.56-18.68a6.85 6.85 0 0 1 6.69-2.12 14 14 0 0 0 2.55 8c-1.87 3.14-3.09 7.32-4 12-.46 1.49-1.42 1.54-2.68.8z" fill="#243a45"/><path d="m181.93 416.2c4.7 6.41 19.54 15.72 20.71 28l1.52 53.24c-3.62.95-3.61 2-7.84 2.14-2.85-11.54-7.95-38.19-9.41-52.87-13-9.35-24.73-11.9-24.23-30.67z" fill="#7dcbef"/><path d="m171.14 417.74c7.66 7.66 23 12.94 30.71 13.89-10.44 2.13-25.94 7.48-40 13.68 1.11 3.5 1.66 6.26 3.46 7.55 22.82-6.15 59.32-13 59.11-21.27-.37-5-14.95-10.57-27-12.93z" fill="#a8d8ef"/><path d="m216.27 413.36c.56-1.67 1.12-3.32 1.68-5 1.59-4.6 4.59-8.56 6.14-12.83 4.56-12.5 6.83-23.39 5.49-26.9-5-3.5-10.74-5.07-17.53-6.42h-.2c-1.32-.28-3.73-1.61-5.16-1.89-1.74-.33-5.28-2-7.17-2.38-.48-.09 0 0-.51-.11-2.95.37-3.53 3-5.49 3.73a.32.32 0 0 0 -.2.07 10.4 10.4 0 0 0 -5.52 4.22 8.47 8.47 0 0 0 -.79 1.32l.32.1.25.06c2.76.72 15.15 2.21 23.64 4.38a26 26 0 0 1 8.59 3.84l-2.66 16.34-4.52 10.21-2.63 9.69 1 .24 1.25.32.68.19 1.08.27.79.19z" fill="#e6f2f8"/><path d="m200.08 433.54c-.58-.79-1.2-1.54-1.81-2.29a46.21 46.21 0 0 0 6.12 1.3c-1.39.27-2.81.61-4.31.99zm26.88-1c-.17-2.5-3.93-5.13-9.17-7.46.07-.17.17-.34.24-.51l2.57-8.57h-55.6v.68a.52.52 0 0 0 .21.34c-.31 13.13 5.4 18.3 13.3 23.46-4.72 1.74-9.51 3.69-14.13 5.75.07.24.14.44.21.68a13.37 13.37 0 0 1 -3.73.38 3.83 3.83 0 0 0 -.07-.58 6.91 6.91 0 0 0 -6.67 2.12l2.57 18.71c1.23.72 2.22.68 2.63-.86 1-4.65 2.15-8.82 4-12-.24-.31-.41-.65-.62-1a14.45 14.45 0 0 1 3.66-1.81 4.9 4.9 0 0 0 1.44 1.85c6.5-1.74 14.12-3.56 21.68-5.44 1.3 12.45 5 32.73 7.83 45.63h9.17l-1.37-48.91c0-.27-.1-.55-.14-.82 12.51-3.53 22.09-7.43 22.03-11.67z" opacity=".1"/><path d="m198.25 418c-.69 2.73-35.22.71-35.77-2.24-.71-15.53 6.13-54 8.22-59.11a73.76 73.76 0 0 1 8.63-1.76 65.84 65.84 0 0 1 14.07-.67 60.66 60.66 0 0 1 8.06 1c-.26 5.65-.32 10.67-.29 15.32 0 1.26 0 2.5.07 3.69.15 6.46-1.61 34.31-2.99 43.77z" fill="#cce5f1"/><path d="m181.49 345.15c.55 3.13.22 6-2.14 9.73-2.48.86 2.31 6.61 7.43 6.31a7.86 7.86 0 0 0 6.66-7c-2.51-1.13-2-4.35-1.93-7.25z" fill="#e0ad94"/><path d="m178.65 346.75c3.59 2.77 12.21 5.74 14.8 4.65 4.62-1.37 6.09-21 1.07-25.73l-13.81 3.17-6.19 9.35c.94 3.53 1.38 6.58 4.13 8.56z" fill="#edbfa4"/><path d="m183.8 333.85c6.6 1.27 8.39-1.88 12.06-.89 1.27.66.88 2.67 1.79 3.83 2-4.51 2.29-10-2.42-13.36-3-1.7-8.51-4.21-13.94-1.7-4.15 1.48-8.77 8.79-8.84 13-.36 11.51-8.5 7.21-15.64 5.86-10.2-1.62-17.28 3-20.07 6.8-7.29 9 3.63 4.54 10.58 10.87 13.65 9.22 12.81-7.39 23.6-4.17 9.23 2.76 13.9-7.91 11.21-10.19a2.21 2.21 0 0 1 -1.53-2.4c-.16-1.31-.62-2.18.63-2.78.44-.16 2 .3 2.8 2.16 1.04-1.88.47-4.55-.23-7.03z" fill="#243a45"/><path d="m179.44 430.85-10.28-10.22a1 1 0 0 1 .61-1.67c6.91-.41 28-1.65 28.26-1.65s7.13 10.69 7.13 10.69z" fill="#38a7e0"/><path d="m211.58 427.23-31 3.81c-1.63.2-2.52-1.08-2-2.87l5.52-18.17a5.3 5.3 0 0 1 3.92-3.6l31-3.81c1.63-.2 2.52 1.08 2 2.87l-5.47 18.18a5.3 5.3 0 0 1 -3.97 3.59z" fill="#243a45"/><path d="m214.13 384.64 4.87-1.44a3.28 3.28 0 0 0 1.4-1.28l8-12.8c.37-.59.34-1-.07-.85l-4.85 1.44a3.29 3.29 0 0 0 -1.4 1.28l-8 12.8c-.39.59-.36.97.05.85z" fill="#7ecbef"/><path d="m214.8 385.32 4.85-1.44a3.28 3.28 0 0 0 1.4-1.28l8-12.8c.37-.59.34-1-.07-.85l-4.85 1.44a3.28 3.28 0 0 0 -1.4 1.28l-8 12.8c-.36.59-.33.97.07.85z" fill="#a8d8ef"/><path d="m217.21 386.11-5 1.68c-4.6 1.59-9.11 3.24-13.38 4.79-12.5 4.56-22.84 8.19-26.35 6.85-3.5-5-5.07-10.74-6.42-17.53 0-.06 0-.14 0-.2-.28-1.32-.54-2.7-.83-4.13-.33-1.74-.67-3.53-1.06-5.41-.09-.48-.16-1-.27-1.48a36.22 36.22 0 0 1 1.5-7.3.32.32 0 0 1 .07-.2 10.4 10.4 0 0 1 4.22-5.53 8.47 8.47 0 0 1 1.32-.79l.1.32.06.25c.72 2.76 3.7 14.54 5.87 23 1.32 5.19 2.31 9.17 2.35 9.2l20.37-5.53 6.18-1.66 9.69-2.63.24 1 .32 1.25.19.68.27 1.08.19.79z" fill="#e6f2f8"/><path d="m224.09 379a15.06 15.06 0 0 1 -3 6.88l-3.84.21-1.55-6.22a14.28 14.28 0 0 0 1.79-3.48 1.14 1.14 0 0 1 1.37.47 3.22 3.22 0 0 1 -.46 2.09l2.64-1.37c1.11-.41 2.11.33 3.05 1.42z" fill="#edbfa4"/></g><path d="m171.57 428.83h8.39l7.29 7h-23.01z" fill="#c1c1c1"/><path d="m183.35 94.83-41.79 4.91 1.53 44.56 43.34-2.15z" fill="url(#a)"/><path d="m278.76 182.83h38.48l-4.49 40.18-31.1 2.84z" fill="url(#b)"/><path d="m198.53 65.52 18.51-8.55 6.65 20.42-18.51 7.59z" fill="url(#c)"/><path d="m40.58 73.11 35-2.37v37.51l-35 2.37z" fill="url(#d)"/><path d="m90.58 45.68 24-1.59v25.06l-24 1.59z" fill="url(#e)"/><path d="m251.47 99.46 19.28-28.33 36.98 30.26-19.28 28.33z" fill="url(#f)"/><path d="m61.58 129.62 28-1.92v30.37l-28 1.92z" fill="url(#g)"/><path d="m171.58 196.82 25-1.63v25.84l-25 1.63z" fill="url(#h)"/><path d="m231.37 139.6 22.21-1.9v26.13h-20.57z" fill="url(#i)"/><path d="m45.05 223.5 34.53-3.21v41.54h-31.55z" fill="url(#j)"/><path d="m225.59 9.02 19.47-9.02 13.76 21.36-20.41 10.45z" fill="url(#k)"/><path d="m94.78 184.18 18.39-8.52 13.01 20.19-19.29 9.87z" fill="url(#l)"/><rect fill="#fcfcfc" height="4.67" opacity=".8" rx="2.33" transform="matrix(.99647824 -.08385176 .08385176 .99647824 -17.32 -61.65)" width="34.09" x="148.18" y="182.2"/><rect fill="#fcfcfc" height="4.67" opacity=".8" rx="2.33" transform="matrix(.99647824 -.08385176 .08385176 .99647824 -18.49 -61.5)" width="34.09" x="149.36" y="196.28"/><rect fill="#fcfcfc" height="2.57" opacity=".8" rx="1.28" transform="matrix(.99907843 .04292191 -.04292191 .99907843 10.28 -88.77)" width="23.41" x="287.71" y="287.4"/><rect fill="#fcfcfc" height="3.8" opacity=".8" rx="1.9" width="28.49" x="44.12" y="94.71"/><text fill="#fff" font-family="Microsoft YaHei" font-size="12.36" font-weight="700" transform="matrix(1.18 -.11 .1 1 44.12 93.38)">****</text><rect fill="#fff" height="12.88" opacity=".7" rx="4.25" width="19.24" x="287.38" y="190.53"/><path d="m117.5 475.5h-21.31a5.2 5.2 0 0 1 -4.74-3.06l-1.25-2.77a3.9 3.9 0 0 0 -3.55-2.29h-15.41a5.16 5.16 0 0 0 -3 1l-4.17 2.73 2 1.63v31.15a5.2 5.2 0 0 0 5.2 5.19h43.94l1.35 1.6 3.78-2.43.16-.1.11-.07a5.17 5.17 0 0 0 2.13-4.17v-23.22a5.2 5.2 0 0 0 -5.24-5.19z" fill="#38a7e0" transform="translate(-2.42 -76.17)"/><path d="m118.41 483.49v23.16a5.2 5.2 0 0 1 -5.2 5.19h-46.21a5.19 5.19 0 0 1 -5.19-5.19v-31.28a5.19 5.19 0 0 1 5.19-5.19h15.37a3.9 3.9 0 0 1 3.55 2.29l1.25 2.76a5.2 5.2 0 0 0 4.74 3.06h21.31a5.2 5.2 0 0 1 5.19 5.2z" fill="#8bd6f9" transform="translate(-2.42 -76.17)"/></svg>