<svg id="图层_1" data-name="图层 1" xmlns="http://www.w3.org/2000/svg" viewBox="0 0 716.99 716.99"><title>图片A AAAAA [已恢复]5252</title><circle cx="358.5" cy="358.5" r="358.5" fill="#1f5198"/><path d="M-653.13,236.09a12.72,12.72,0,0,0-.9,9.71,12.7,12.7,0,0,0,6.24,7.49l75.38,39.64a12.82,12.82,0,0,0,17.29-5.31l16.36-30.88c-42.6-4.26-80.57-14.73-109.75-29.39Zm-55.33-76.36h-70a14,14,0,0,0-14,13.95V266.6a14,14,0,0,0,14,13.94h93.28a14,14,0,0,0,14-13.94V213.87c-21.92-15.52-35.41-34.08-37.28-54.13h0ZM-541.78,302.6h-93.28a14,14,0,0,0-9.88,4.07,14,14,0,0,0-4.11,9.86v92.93a14,14,0,0,0,14,13.93h93.28a14,14,0,0,0,14-13.93V316.53a14,14,0,0,0-14-13.93h0Zm-143.4,0h-93.28a14,14,0,0,0-14,13.92v92.93a14,14,0,0,0,14,13.94h93.28a14,14,0,0,0,14-13.94V316.53a14,14,0,0,0-14-13.93h0Zm0,0" transform="translate(1011.64 83)" fill="#fff"/><path d="M-514.42,202.81a12.7,12.7,0,0,0-6.26-7.49h0l-75.37-39.64A12.82,12.82,0,0,0-613.33,161l-35.17,66.38c29.18,14.66,67.14,25.13,109.75,29.39l23.43-44.22a12.7,12.7,0,0,0,.9-9.72h0Zm-170.75-43.07h-23.29c1.87,20,15.37,38.62,37.28,54.13V173.68a14,14,0,0,0-14-13.95h0Zm0,0" transform="translate(1011.64 83)" fill="#fff" opacity="0.9"/></svg>