<svg id="图层_1" data-name="图层 1" xmlns="http://www.w3.org/2000/svg" viewBox="0 0 716.99 716.99"><title>ic_audio</title><circle cx="358.5" cy="358.5" r="358.5" fill="#83c473"/><path d="M2118.71,286.5h-89.5c-3.74,0-11.21,2.1-11.21,4.21L2003,303.33l-18.69-44.2c0-4.21-7.47-6.31-14.95-6.31-3.74,0-11.21,2.11-14.95,6.31l-37.27,65.25-22.42-98.93c0-4.21-7.48-6.31-14.95-6.31-3.74,0-11.21,2.1-14.95,6.31l-63.44,160-26.06-258.89c0-4.21-7.47-8.42-14.95-8.42-3.74,0-11.21,2.11-14.95,6.31L1674.67,297,1656,208.62c0-2.11-7.47-6.31-11.21-6.31-7.48,0-14.95,2.11-18.68,6.31l-41,73.67-18.69-40c0-4.21-7.47-6.31-11.21-6.31-7.47,0-14.95,2.11-14.95,4.21l-26.06,29.47h-82c-7.48,0-14.95,4.21-14.95,8.42s7.47,8.42,14.95,8.42h89.5c7.47,0,11.21-2.11,14.95-4.21l11.21-14.73,18.69,46.31c3.74,4.21,7.47,6.31,15,6.31s11.21-2.11,14.95-6.31l37.27-65.25,22.43,96.82c0,4.21,7.47,8.42,14.95,8.42s15-2.11,15-6.32l67.07-162.07,22.43,261c0,4.21,7.47,8.42,15,8.42s14.95-2.11,14.95-6.31L1876.18,276l18.69,86.3c0,4.21,7.48,8.42,14.95,8.42s11.21-2.1,14.95-6.31l44.75-73.67,14.95,40c3.74,2.1,7.47,6.31,15,6.31,3.74,0,11.21-2.11,14.95-4.21l26.06-29.47h78.28c7.47,0,14.95-4.21,14.95-8.42s-7.48-8.42-14.95-8.42h0Zm0,0" transform="translate(-1417 82.72)" fill="#b2dff4"/></svg>