<svg viewBox="0 0 487.54 741.51" xmlns="http://www.w3.org/2000/svg" xmlns:xlink="http://www.w3.org/1999/xlink">
	<clipPath id="a" transform="translate(-72.58 -43.24)">
		<path d="m72.58 42.67h487.94v742.96h-487.94z"/>
	</clipPath>
	<path d="m113.65 292.56 135.86 1.44 4.43-4.71-71.51-79.29-69.82 74.2a5.33 5.33 0 0 0 -.07 7.09zm0 0" fill="#bb983b" transform="translate(-72.58 -43.24)"/>
	<path d="m116.76 293.11h135.87l4.38-4.39-72.32-72.32-69.05 69.05a4.63 4.63 0 0 0 0 6.53zm0 0" fill="#e1b322" transform="translate(-72.58 -43.24)"/>
	<path d="m180.7 204.55h102.28v38.36h-102.28z" fill="#cf372e"/>
	<path d="m321.34 204.55h63.92v38.36h-63.92z" fill="#654c81"/>
	<g clip-path="url(#a)">
		<path d="m553.68 236.33-481.1-67.62 6.13-43.6a32.69 32.69 0 0 1 36.92-27.82l416.37 58.52a32.69 32.69 0 0 1 27.82 36.93zm0 0" fill="#00c78c" transform="translate(-72.58 -43.24)"/>
		<path d="m247.84 115.88 7.16-50.64a25.65 25.65 0 0 1 28.88-21.76l101.24 14.23a25.64 25.64 0 0 1 21.76 28.88l-7.12 50.64zm0 0" fill="#fff" transform="translate(-72.58 -43.24)"/>
	</g>
	<path d="m180.7 204.55h102.28v38.36h-102.28z" fill="#cf372e"/>
	<path d="m321.34 204.55h63.92v38.36h-63.92z" fill="#446a9f"/>
	<g transform="translate(-72.58 -43.24)">
		<path d="m486.88 784.75h-364.88a34.91 34.91 0 0 1 -34.89-34.89v-463.72h434.67v463.72a34.9 34.9 0 0 1 -34.9 34.89zm0 0" fill="#00c78c"/>
		<path d="m368.78 466.63-31.72-52.48h-56.26l47.2 77.4-12.46 7.17 44.93-1.51 20.77-38.14zm0 0" fill="#fff"/>
		<path d="m242.29 478 41.16 24.92 23.41-38.51-27.94-46.44zm92.51 139.33h61.2l29.45-48h-90.66v-14.72l-21.9 39.27 21.9 37.76v-14.35zm0 0" fill="#fff"/>
		<path d="m390.68 503.26-42.29 21.9 20.77 40h54zm-170.68 10.57-28.7 54.37 29.07 48 42.29-80 12.46 6.8-24.12-37.47-43.83 1.47zm0 0" fill="#fff"/>
		<path d="m294.77 616.54.38-48-45.31-.38-13.21 24.92-11.71 23zm0 0" fill="#fff"/>
	</g>
</svg>