<svg id="图层_1" data-name="图层 1" xmlns="http://www.w3.org/2000/svg" viewBox="0 0 716.99 716.99"><title>ic_image</title><circle cx="358.5" cy="358.5" r="358.5" fill="#c89ec3"/><g id="矩形_1" data-name="矩形 1"><polygon points="382.26 177.78 172.15 303.25 349.01 562.36 567.96 411.83 382.26 177.78" fill="#fff" fill-rule="evenodd"/></g><path d="M2393.09,223l80.41-48q29.26-17.49,58.51-35a4,4,0,0,1,1,4.16c-3.06,5.73-9.22,8-13.63,12.24-3.77,6.15-9.12,10.2-15.51,13.63-5.58,3-11.34,6.9-11.5,14.63,0,1.21-.42,2.67.94,3.36s2.49-.21,3.32-1.1c5.44-5.86,12.59-10,16.89-17,3.15-5.15,7.55-8.72,13.93-9a9.34,9.34,0,0,0,7.11-3.66,57.69,57.69,0,0,1,9.69-9.43c1.62-1.23,3.69-2.79,2.82-4.87-2.69-6.43,1.91-10.34,4.6-15,15.11-8.88,30.42-17.43,45.2-26.81,5.3-3.36,7.84-3.2,11.18,2.12s8.69,9.65,11.58,15.59a3.62,3.62,0,0,1-1.24,1.85c-15.42,8.44-16.37,23.66-18.07,38.51-0.84,7.28-3,9.12-10.19,8.23-6.13-.76-12.13,4-15.06,12a41.36,41.36,0,0,0-1.88,6.49c-3.25,17.44-13.44,28.44-30.39,33.36-2.59.75-4.13,2.73-5.43,4.93a24.09,24.09,0,0,1-5.74,6.91c-5.55,4.34-11.38,2.3-13.2-4.56-4.26-16.06-4.26-16.06-17.63-5.32-6.66,5.35-13.83,10-20.91,14.73a19.33,19.33,0,0,1-6.3,2.34,29,29,0,0,0-21.12,15c-4.27,7.66-10,14.24-15.53,20.92-1.51,1.81-3,4.19-6.09,3.17-11.79-14.27-21.24-30.18-31.75-45.34-1.82-2.62-2.86-5.92-6-7.53V223Z" transform="translate(-2232.19 80.61)" fill="#efeeed"/><path d="M2713.2,238.12c8.54,6.74,13.71,16.33,20.54,24.51,14,16.8,26.68,34.73,41.36,51,1.55,6.41,3.6,12.81.31,19.3-6.14,8.14-14.07,14.52-21.44,21.46-0.27,3.37-3.34,4.19-5.47,5.65q-35.7,24.45-71.53,48.7c-7.47-.51-13.39,3.25-19.28,7.07-4.75,2-8.8,5.49-13.89,6.82-10.29,2.82-13,1.66-19.92-8.57-2.83-17-6-34-7.59-51.19a9.18,9.18,0,0,1,.66-2.38c4.95-6.6,10.69-12.55,15.68-19.16,7.53-10,10.76-21.15,12.47-33.3,1.61-11.38,2.46-23,6.14-34,1.44-17.67,14.49-22.31,28.73-25.57,2.18-.5,4.49-0.34,6.59-1.28C2695.42,244.09,2703.94,240,2713.2,238.12Z" transform="translate(-2232.19 80.61)" fill="#fefefe"/><path d="M2479.16,235.1c10.48-8,20.94-16.06,31.48-24,2.75-2.07,5.09-1.54,6.52,1.88,1.65,4,3.09,7.92,2.81,12.32a6.11,6.11,0,0,0,4.29,6.4,5,5,0,0,0,6.54-2.36c4.66-10,15.21-11.52,22.92-17.08,7.26-5.24,15.58-11.15,16.38-22.58A34.47,34.47,0,0,1,2580.4,168c2.69-2.71,5.72-5,10-2.6,5.26,2.93,8.16,0,7.85-4.76-0.57-8.68,4.92-16.37,3.35-25.09a4.43,4.43,0,0,1,1.21-3.41c5.2-4.93,10.17-10.2,16.83-13.3,3.79,4.31,8.15,8.19,10.56,13.58-2.87,10.91-.6,21.57,1.77,32.17,0.54,2.44.67,4.64-1.06,6.31-9.59,9.25-16.42,20.89-26.05,30.1-5,.68-6.36-2-5.24-6.26a21.81,21.81,0,0,1,5.2-9.84c1.87-1.94,6.07-3.82,2.55-7.08-3.07-2.85-6.47-7.51-11.51-4.88a53.85,53.85,0,0,0-15.53,12.84c-1.25,1.45-1.84,3.13-.68,4.8,3.44,5,.08,8-3.23,10.72a111.26,111.26,0,0,0-10.13,8.9,23.56,23.56,0,0,1-2.45,2c-4.78,2.9-5.08,8-5.45,12.59-0.57,7.06-5.53,11-9.63,15.58-2.08,2.32-4.48,1.79-6.32-.72-2.34-3.18-3.12-6.77-1.94-12.16-3.13,3.19-4.55,5.9-7.1,7.41a14.13,14.13,0,0,1-11.28,1.4c-10.16-10.76-21.14-6.22-32.11-1.67a16.33,16.33,0,0,1-3.23.76C2484.2,235.37,2481.6,237,2479.16,235.1Z" transform="translate(-2232.19 80.61)" fill="#f0f0ef"/><path d="M2571.27,481.23c-6.88-2-7.39-9.64-12.06-13.6,3.59-7.22,5.52-15,7.08-22.8,0.71-3.58,2.57-6.46,3.95-9.64,1.62-3.74,2.1-6.4-3.67-6.92-12-1.09-14.68-4.41-15.37-16.75a24.62,24.62,0,0,1,1.42-8c0.74-2.64,2-5.07,2.79-7.71,2.93-10.29,4.67-20.43-2.94-29.73a10.77,10.77,0,0,1-2.09-5.53,3.16,3.16,0,0,1,.06-1.49c2.13-4.77,4.1-11,10.08-10.52,5.5,0.41,6,6.55,6.85,11.26,0.26,1.44.3,3,1.69,4a1.84,1.84,0,0,0,2.21-1.46c4.41-13.26,11.78-25.47,13.86-39.56,1.36-9.2,4.22-18,7.32-26.78,0.91-2.57,1.56-5.34,4.17-6.92l1.18-.18a2.66,2.66,0,0,1,1.73,1.56c1,2.77.29,5.47-.75,8a42.94,42.94,0,0,0-2.8,19.69,22.55,22.55,0,0,1-.82,6.23c-6.49,22.86-13.48,45.61-14.35,69.65-0.2,5.51-1.29,11-2.2,16.39-0.67,4-.25,7.45,2.59,10.45a9,9,0,0,1,1.07,5.06c-1.87,16.8-3.22,33.7-8.29,50A27.12,27.12,0,0,1,2571.27,481.23Z" transform="translate(-2232.19 80.61)" fill="#f4f4f4"/><path d="M2430.81,277.4c8.34-7.29,14.77-16.13,20.35-25.6,5-8.49,12.23-13.61,22-15.18-1.82,7.22-9.6,8-14.21,13.31,5.29,3,5.19,7.23,3.32,12.45-1.82,5.07.24,10.18,3,14.29,7.88,11.74,10.76,25.86,18.45,37.68,2.31,3.54,4,7.46,7,10.63,1.54,1.67,3.09,3.65,3.2,5.87,0.64,13.35,8.4,23.9,13.62,35.45a17.32,17.32,0,0,1,.83,3.4c0.33,3.23,1.27,6.46.13,9.69-0.88,2.5-1.14,5.69-5.1,5.22-12-16.81-24.07-33.61-34.73-51.34-3.5-12.21-9.49-23.66-11.21-36.42a5.62,5.62,0,0,0-2.89-4.18c-4.55-2.63-7.36-6.68-9.4-11.34s-4.71-7-9.48-2.79c-1.31,1.17-3,1.81-4.75.37Z" transform="translate(-2232.19 80.61)" fill="#f0efee"/><path d="M2687.53,248.69c-3,3.14-7.12,1.14-10.68,2.19-12.32,3.63-22.81,8.69-24.05,23.48a9.68,9.68,0,0,1-4.31-5.45,9.17,9.17,0,0,1,.74-7.12c1.89-2,4-3.95,4.28-6.84,1.56-18.68,8.34-36.42,10-55.06,0.6-6.93-.45-14.12,5.94-19.16l25.67,31.71c-3.12,3.53-3.43,7.18-.19,10.76,2.2,2.44,2.76,5.06.25,7.26C2689.57,235.37,2688.37,241.92,2687.53,248.69Z" transform="translate(-2232.19 80.61)" fill="#fdfdfd"/><path d="M2503.31,384.6c5.65-4.11,3.23-9.83,3-15.11,5.87,1.36,6.23,7.93,10.49,11.06,1.88-1.25,1.11-3.14.7-4.58-2-6.94-3-13.45,1.88-20,2.51-3.41-.16-7.76-1-11.64-0.76-3.31-2.88-6.67.23-9.9,9.37,4.6,11.2,13.49,12.19,22.46,0.83,7.47-.21,15.05.06,22.57,0.17,4.6.45,9.33,7.71,7.56,4.34-1.06,6.67,2.76,8.69,6,2.4,3.81,4,8.12,7.41,11.26a12.43,12.43,0,0,0-1.51,7.55c-1.53,2.88-.71,5.82-0.23,8.76,0.45,2.7.07,5.37-2.77,6.27s-4.57-1.46-5.9-3.63a13.13,13.13,0,0,1-1.08-11.62c1.39-3.92.5-7.25-1.23-10.81-2-4.12-4.59-4.67-8.52-2.84-4.24,2-4.93,4.79-2.51,8.44,5.67,8.59,9.64,18.18,16,26.39,5,6.46,4.81,12.69.23,16.79Z" transform="translate(-2232.19 80.61)" fill="#f1f0f0"/><path d="M2571.27,481.23c1.42-12.62,6.16-24.61,6.76-37.41,0.36-7.68,2.55-15.22,2.3-23-0.08-6.13,2.62-11.43,5-16.83,5.84-6,8.53-6.27,12.87.25,3.28,4.93,7.34,9.39,9.71,14.93a51.13,51.13,0,0,0-2,8.78c-2.67,12.46-4.26,25.23-10.47,36.67A151.13,151.13,0,0,1,2571.27,481.23Z" transform="translate(-2232.19 80.61)" fill="#f1f1f1"/><path d="M2547.12,449.51c2.89-5.39,2.47-10.9-1.3-15.3-7.41-8.65-11.19-19.41-17.62-28.59-2.7-3.86-2.37-7.52,2.53-8.63,4-.92,9-7.87,12.49,1.69,1.94,5.25,4.59,9.58,1.15,15.08-0.79,1.26-.48,3.52,0,5.15,0.77,2.86,1.76,6.88,5,6.7,3.73-.22,1.94-4.34,2.33-6.81s-0.81-5.07,1.53-7c0.22,11.83,4.35,15.86,15.88,14.49,3.86-.46,6.17.79,4.74,4-5.18,11.47-6.85,24-11.51,35.59-0.53,1.31-1.75,1.68-3,1.83Z" transform="translate(-2232.19 80.61)" fill="#f2f2f2"/><path d="M2551.64,127.93a8.38,8.38,0,0,1-2.17,6.2c-0.9,1.14-2.21,3.32-1.77,3.94,5.81,8.37-2.39,10.43-6.29,14.38-5.08,5.15-9,12-18.09,11-2.27-.25-4.79,2-6,4.19-4.16,7.71-11.23,12.62-17.25,18.52-2.51,2.46-5.59,7.66-8.93,4.17-2.77-2.88-1.91-8.81,1.08-12.69,2.28-3,4.86-6.22,8.07-7.8,7.27-3.58,13.68-7.84,18.1-14.75,2.61,2.06,5.14,3.2,7.28-.59,1.94-3.43,5-6.13,6.31-10q0-2.26,0-4.51Z" transform="translate(-2232.19 80.61)" fill="#f1f0f0"/><path d="M2604.48,200.37c7.12-10,14.41-19.8,23.18-28.41,2.68-2.63,5-4.81,1.5-8.66a7.61,7.61,0,0,1-1.23-8.47c1.13-2.6,1.72-6,.07-8-4.92-5.94-2.26-10.19,2.17-14.43,3.8,4.31,8.14,8.22,10.58,13.59-0.9,4.94,4.21,7.24,5,11.43a3.54,3.54,0,0,1-.88,1.84c-9.5,4-11.39,14-15.25,21.64a121.39,121.39,0,0,1-13.43,20.61c-3.58,2.81-6.5,6.31-9.92,9.28-1.88,1.63-3.41,4.76-6.86,2.8C2598.53,208.2,2600.89,204,2604.48,200.37Z" transform="translate(-2232.19 80.61)" fill="#f3f2f2"/><path d="M2430.85,278.89a6.36,6.36,0,0,0,2.17-.47c9.43-6.2,9.43-6.22,14.58,3.87,2,3.82,4,7.54,8.54,8.81,1.56,0.43,3,1.4,3.05,2.92,0,13.3,8.16,24.41,9.88,37.23a5.84,5.84,0,0,1-.49,2Z" transform="translate(-2232.19 80.61)" fill="#f1f1f0"/><path d="M2595.43,464.63l9.06-37.76c2.74-3.71,5.22-1.32,6.43,1,3.29,6.23,7.64,6.63,13.77,4.47,6.81-2.4,9.4,0,8.49,6.62C2620.69,447.65,2608.55,456.87,2595.43,464.63Z" transform="translate(-2232.19 80.61)" fill="#efeeee"/><path d="M2687.53,248.69c-2.83-7-.41-12.51,4.58-17.43,2.41-2.38,5.73-4.1.4-7.73-4.35-3-2.45-9.28,2.56-11.07,5.47,9,14.12,15.67,18.12,25.67C2705.64,244.05,2695.92,244.75,2687.53,248.69Z" transform="translate(-2232.19 80.61)" fill="#fbfbfb"/><path d="M2633.17,438.94c0-6.42-3.43-7.06-8.4-4.8-6.64,3-12,2.87-14.92-5.19-0.79-2.2-2.7-3.66-5.37-2.07,0-2.91-.5-6,3-7.55l1,0.32c3.29,2.71,4.08,7.3,7.52,9.88a19.49,19.49,0,0,0,1.74.89c3.06,1.07,5.84-.66,8.76-0.86,3.94-.66,6.82-3.7,10.58-4.73,2-1.76,4.52-2.52,6.65-4,5-1,8.35-5.61,13.57-6.06,4.95-1.11,4.45,1.42,3,4.55C2651.93,426.74,2642.33,432.53,2633.17,438.94Z" transform="translate(-2232.19 80.61)" fill="#f1f0f0"/><path d="M2669.41,180.75c-5.82,10.6-2.79,22.76-6,33.86a261.7,261.7,0,0,0-8,41.64c-0.33,2.86-1.8,5.9-5.67,6a3.15,3.15,0,0,1-.56-2.29,71.91,71.91,0,0,0,3.12-24.55,26.65,26.65,0,0,1,2.14-9,66.16,66.16,0,0,0,3.29-27.67,9,9,0,0,1-.12-4.42c1-3.24,2-6.45,1.4-10-0.48-3-.12-5.89,3.38-7.15,2.61-.06,3.75,2.16,5.46,3.52h1.51Z" transform="translate(-2232.19 80.61)" fill="#fbfbfb"/><path d="M2773.6,333.25c3.64-6.29-.08-13.15,1.5-19.6a56.76,56.76,0,0,0,9.82,12.1c3.71,3.5,4.56,6.87-.86,9.74-3.06,1.62-6,3.54-9,5.32C2772.29,338.76,2772.13,336.17,2773.6,333.25Z" transform="translate(-2232.19 80.61)" fill="#f0f0ef"/><path d="M2773.6,333.25l1.51,7.56c-6.28,5.72-13,10.73-21.14,13.59C2758.73,345.7,2767.14,340.38,2773.6,333.25Z" transform="translate(-2232.19 80.61)" fill="#f4f3f3"/><path d="M2660.36,419.34c0-2.2,0-4.41-3-4.55,5.75-4.6,11.23-10.12,19.65-6C2671.09,411.74,2667,417.52,2660.36,419.34Z" transform="translate(-2232.19 80.61)" fill="#f4f4f3"/><path d="M2645.26,158.09c-1.74-2.05-3.63-4-5.18-6.18-1.44-2-3-4.34.67-5.91,4.39,2.35,6.34,6.79,9,10.58C2649.24,160,2647.33,159.26,2645.26,158.09Z" transform="translate(-2232.19 80.61)" fill="#f0efef"/><path d="M2645.26,158.09c1.66-.05,3.45.27,4.53-1.51,3.37,2.31,5,6.08,7.55,9.06,1.54,2.57.05,3.51-2.18,4.05a4.71,4.71,0,0,1-3.12-1.21c-2.08-3.58-7.26-5.14-6.79-10.39h0Z" transform="translate(-2232.19 80.61)" fill="#f3f2f2"/><path d="M2654.31,168.67a2.76,2.76,0,0,0,3-3c3.67,4.93,9,8.72,10.57,15.1a4.56,4.56,0,0,1-4.53-3,16.09,16.09,0,0,1-5.51-3.85C2656.64,172.17,2653.63,171.67,2654.31,168.67Z" transform="translate(-2232.19 80.61)" fill="#f6f6f6"/><path d="M2506.33,366.47c-6.15-10.49-13.57-20.42-13.74-33.42a9.16,9.16,0,0,0-2.16-5.49c-13.92-15.66-17.94-36.58-28.75-53.91a14.09,14.09,0,0,1-.36-15.1c1.87-3.17,1.26-5.28-2.91-5.36-1.57,0-3.1-.36-3.12-2.41,0-1.73,1.12-2.74,2.52-3.44a70.06,70.06,0,0,0,15.31-10.73l6-1.51,7.55-1.51c-2.42,6.47-7.37,11.44-10.27,17.71-3.63,7.83-7,14.82-2.41,23.92,3.2,6.3,3,14.12,5,21.11,0.67,2.33.6,5,3.17,7.05,3.54-3-.91-8.73,3.53-11.22,0.3-1.07,2.9,2.38,1.89-.9-0.29-1-1.66-1.63-2-2.83a10.63,10.63,0,0,1,.93-6.61c2.14-5.28,3.68-5.51,7.79-1.43,4.81,4.77,10.14,9.16,10.94,16.58,0.24,2.19,1.4,4.93-1,6.19-2.91,1.51-4.45-1.12-5.9-3.2-0.69-1-.75-2.42-2.15-3-1.4,14.87,2.71,28.82,7.13,42.64a111.1,111.1,0,0,1,4.34,19.82C2508,361.91,2508.49,364.45,2506.33,366.47Z" transform="translate(-2232.19 80.61)" fill="#f1f1f0"/><path d="M2532,144.5c0.63,7.12-4.61,11.27-9,15.08-2.4,2.1-4.1-1.8-4.63-4.51Z" transform="translate(-2232.19 80.61)" fill="#f1f0f0"/><path d="M2593.91,324.19q0-3,0-6c1.64-6.23.66-13.51,7.87-17.41,2.09-1.13,2.41-4,.29-5.81-1.78-1.55-2.65-3.5-3.63-5.47-2.22-3.76-.09-7.21.84-10.7,1.33-5,3.73-9.8,3.13-15.21,2.31-10.9,3-22.17,7.15-32.65a2.5,2.5,0,0,1,2.08-.77c2.39,4.58,2.39,4.58.3,19.27,7.47-5.26,7.26-5.34,11.32-15.8,1.75-4.49,4-9.27,10.22-9.08,1.43,2.61.19,5-1,7.07-3.71,6.47-4.66,13.61-5.8,20.79-0.91,5.68-.22,9.5,6.78,9a5.12,5.12,0,0,1,3.36,1.52,6.59,6.59,0,0,1,1.94,2.93c0.12,5.59-1.88,7.28-7.39,4.76-8.74-4-14.71-.82-18.32,8-3.84,9.33-3.77,18.36-1.25,28s4.17,19.63,3.73,29.75q1.1,8.16,2.73,16.21c0.53,2.64,1.63,5.33-.16,7.93q0,0.75,0,1.51c-2.13,2.8-3.92,6.33-8.46,3.86-2-7.22-1.32-14.74-2.33-22.09-0.67-4.89-2.15-8.21-6.37-10.86C2597.76,330.89,2593.53,329.24,2593.91,324.19Z" transform="translate(-2232.19 80.61)" fill="#f7f7f7"/><path d="M2618.08,360.43a140.48,140.48,0,0,1-4.53-24.16,37.53,37.53,0,0,0,5.84-15.21c0.29-2.25.81-4.69,2.51-6.14,8.4-7.13,12.06-17.63,18.77-25.95,3-3.77,5.21-7.82,4.88-13-0.19-2.94,1-5.37,4.25-6.2a4.55,4.55,0,0,1,3,4.53c-2.79,12.66-4.42,25.5-6.16,38.34C2644,332.55,2632.61,347.52,2618.08,360.43Z" transform="translate(-2232.19 80.61)" fill="#fbfbfb"/><path d="M2610.53,366.47l7.55-4.53q2.59,18,5.19,36c0.81,5.62,1.58,11.25,2.37,16.88-2.85.71-4.13-1.36-5.05-3.28-3.4-7.06-8.21-13.47-9.94-21.31a17.39,17.39,0,0,1-.58-3.67c0.15-4.22-.69-8.32-1.31-12.47C2608.35,371.41,2608.24,368.6,2610.53,366.47Z" transform="translate(-2232.19 80.61)" fill="#fafafa"/><path d="M2612,390.63c4.44,8.1,7,17.25,13.59,24.16a14.64,14.64,0,0,1,2.19,1.88c4.28,5.41,9.36,7.61,15.93,4.17-1.1,2.72-3.84,3.27-6,4.53a16.62,16.62,0,0,1-6.41,1.51c-4.81-1.13-8.85-4.36-13.92-4.92a5.24,5.24,0,0,1-4.38-3.75C2611,409.09,2607.4,400,2612,390.63Z" transform="translate(-2232.19 80.61)" fill="#f8f7f7"/><path d="M2486.71,292.48c-2.47,2.33-1.43,5-.76,7.65,0.81,3.23-.71,5.64-3.68,6.31-3.39.76-3.12-2.65-3.61-4.53-2-7.7-3.7-15.47-5.5-23.22-0.34-1.45-.12-3.29-0.95-4.31-7.06-8.69-1.19-16.14,2.57-23.34,3.24-6.2,5.2-13.54,11.92-17.45h3c3.72-1.65,6.33.07,8.1,3.1,1.64,2.79,1.21,5.76-.43,8.55-1.33,2.26-4,3.81-3.88,7.12,11.53-17.48,17.56-21.18,27.93-17.26a31.42,31.42,0,0,0,12.08-1.51c8,4.5,8.66,6,7.17,15-3.1,18.77-5.69,37.59-6.62,56.62-0.15,3.14.78,7.18-2.83,8.69-4.18,1.75-4.37-3.9-7.58-5.25-3,5.54-3.21,11.43-3.06,17.38-0.14,3.06.26,6.26-2.19,8.73-0.45,3.65,1,6.91,2.14,10.23,2,5.87,3.53,11.57-2.22,16.45-1.69,1.44-1.6,3.59-1,5.63a64.69,64.69,0,0,1,2.17,8c0.47,3.35,2.23,8.15-1.33,9.59-3.19,1.29-3.36-4-5.14-6.13-2.38-2.87-4.45-6-6.65-9q0-1.51,0-3c0-13.2-4.73-25.36-8.37-37.74-3.11-10.58-4.07-21.39-4.34-32.3a5.67,5.67,0,0,1,2-4.89c4.48,2.22,2.35,9.25,8.23,11.2,0.15-5.3-.93-9.95-3.67-13.94-2.63-3.83-8.12-5.08-9.35-11.49-2.62,4.58-4.09,8.11-4.13,12.15A2.1,2.1,0,0,1,2486.71,292.48Z" transform="translate(-2232.19 80.61)" fill="#f3f3f3"/><path d="M2518.42,325.7c-0.53-6.06.75-11.93,2.37-17.67,0.46-1.62,1.59-4.13,3.79-4.2,2.67-.08,2.76,2.37,2.89,4.39s0.27,4.73,2.72,4.55c2.78-.2,1.72-3.14,1.78-4.94a397.07,397.07,0,0,1,7.3-62.16c0.69-3.52,1-7-3.77-8.31-1.52-.41-1.89-2.2-2-3.77,1.09-1.67,2.14-3.37,3.28-5,1-1.41,1.94-3.58,3.84-3,2.48,0.81,1.93,3.06,1.15,5.08A7.71,7.71,0,0,0,2545,240c3.41,2.11,3.42-3.16,5.56-4.49,6.53-4,5.79-11.18,7-17.32,0.77-3.93,2-6.63,6.2-7.2,3,3.57,3.1,8.16.76,11.22-6.48,8.46-7.56,18.29-8.92,28.18-0.44,3.23-1.3,6.37-1.74,9.6-0.64,6.88-1.59,13.73-2.16,20.63-2,9.58.13,19.45-2.19,29-0.47,1.92-.33,4-1.09,5.85-6.07,4.71-5.77-1.68-7.71-4.37-1.36,9.71-2.19,19.4,1.17,28.94-1.13,2-2.48,1.1-3.65.15-2-1.62-2.88-4-4.06-6.22C2528.77,324,2528.29,323.7,2518.42,325.7Z" transform="translate(-2232.19 80.61)" fill="#f2f1f1"/><path d="M2604.48,200.37L2600,214c1.37,3.73-.7,6.67-2.22,9.74-6.71,6.24-8.68,14.82-11.47,23-0.92,2.71-.87,6.06-4.23,7.42-4.9-2-9-9.66-7.53-15.72,1.36-5.51,2.92-11,4.63-16.42,1.45-4.58,4.31-9,9.93-10.32,2.17-.5,4.92-2,4.1-4.44-1-2.88-3.82-.55-5.85-0.62-4.72.37-9.13,2-13.67,3.12-2.78.69-5.7,2-8.42-.31,2.66-5.15,8.22-7.22,12-11.22,1.62-1.74,4.59-3.71,1.31-6-4.43-3.15-2.07-5.41.45-7.72,4.05-3.72,8.29-7.22,12.37-10.91s7.77-4.68,12.94-.68c8.41,6.5,8.76,6,1.48,13.46C2600.35,191.78,2599.82,197.82,2604.48,200.37Z" transform="translate(-2232.19 80.61)" fill="#f1f0f0"/><path d="M2565.22,209.43c7.81-.2,14.66-5.2,22.65-4.53,1.85,5.17-2.38,6.82-5.51,8.1-6.35,2.6-6.63,6.62-6.64,13,0,11.08-1.09,22.06,1.41,33.08a5.63,5.63,0,0,1-4,6.52c-4.15-5.9-2.25-13-3.7-19.43-0.65-2.89-.37-6-1.61-8.8-0.78-1.77-1.21-4.25-3.66-4.22s-3,2.41-3.46,4.31c-1.49,6.07-2.73,12.2-4.34,18.25a9.27,9.27,0,0,1-.9,2.06c-1,1.19-2.1,2.25-3.86,1.46a185,185,0,0,0,3.22-18.4c0.65-6.36,2-12.89,7-17.76,3.66-3.55,1.12-8.12,1.87-12.16Z" transform="translate(-2232.19 80.61)" fill="#f3f3f2"/><path d="M2521.44,235.1c-13.49,0-19,4-24.34,17.85-1,2.48-2.53,3.92-5.11,2.64s-2.74-3.4-1.08-5.62a37,37,0,0,1,2.55-2.74c6.4-6.93,5.41-10.54-3.73-13.64,7.35-6.11,16.3-5.8,25-5.75C2518.63,227.87,2519.2,232.62,2521.44,235.1Z" transform="translate(-2232.19 80.61)" fill="#f1f1f1"/><path d="M2581.84,253.22q3-8.61,6-17.22c1.81-5.18,4-10.11,9.09-13,1,14.68,2.49,29.47-3.27,43.54-1.95,4.75-4.31,8.6,1.69,12,2,1.17,2.14,3.86,2.64,6.07-0.15,1.64,0,3.35-1.06,4.8a198.17,198.17,0,0,0-10.66,37.34c-2.42,13.86-10.08,25.92-14.23,39.22-0.4,1.29-1.64,2.74-3.38,2.42-1.37-.25-1.72-1.67-2-2.92-0.84-3.87-1.23-7.91-2.6-11.58-2.17-5.83-4.48-6.09-7.83-1-1.6,2.43-4.71,4-4.61,7.49-2.29.55-3.32-1.17-3.78-2.7-1.76-5.86-6.67-10.44-6.79-16.93-6.3-11.75-3.32-23.51-.71-37,3.72,4.86.33,11.53,6.75,12.83,3.67,5,1,10.76,2.22,16.31,2.12-3.57,2.61-8.53,7.87-9.19,4,3.37,2.68,8.79,5.4,13.37,2.29-3,2-6.45,2.85-9.52a13.35,13.35,0,0,1,.81-2.13c3.56-4.92,3.54-10.13,1.61-15.65-2.23-6.41-1.75-12.06,2.09-18.38,4.51-7.41,4.66-16.7,7-25.09C2578.24,261.85,2578.29,256.89,2581.84,253.22Z" transform="translate(-2232.19 80.61)" fill="#f3f2f2"/><path d="M2541.07,340.8c4.93,5.78,6.17,13.56,10.57,19.63,11.12,13.9,9.5,28.68,3,43.79-4.9.64-5.27-3.65-7-6.45-3-4.86-3.85-12.44-13.24-7.59-4.17,2.15-4.94-3.62-5.12-6.28-0.54-8.17-.36-16.39-0.28-24.59,0.1-9.79-3.73-17.81-10.59-24.55q0-4.53,0-9.06c7.5-5.78,10.17-5.11,15.29,3.35C2536.09,333,2536.7,338.09,2541.07,340.8Z" transform="translate(-2232.19 80.61)" fill="#f0efef"/><path d="M2610.53,366.47l1.51,21.14c-6.67-4.89-6.06-12.11-6.63-19.45-7.46,11.45-11.51,24.7-19,36.06-1.74,5.64-2.86,11.5-6,16.61-6,.28-4.94-4.24-4.37-7.32,2.39-12.76,3.38-25.67,4.43-38.57,1.3-16,8.64-30.58,10.86-46.37,0.22-1.55,1.74-2.92,2.66-4.38,1.13,1.3,2,3.29,3.44,3.79,12.7,4.44,12.21,15.51,13.11,25.79C2610.83,358,2610.52,362.24,2610.53,366.47Z" transform="translate(-2232.19 80.61)" fill="#f6f6f6"/><path d="M2598.44,289.46c1.34,1,2.55,2.36,4.06,3,5.11,2.27,4.53,7.36,1.62,8.83-7.4,3.72-7.23,11-10.21,16.84C2591.86,308,2597.87,299.18,2598.44,289.46Z" transform="translate(-2232.19 80.61)" fill="#f6f6f6"/><path d="M2596.93,289.46v-4.53c-0.57-8.15-.25-16,7.55-21.14,0.39,9.12-4.92,16.9-6,25.67h-1.51Z" transform="translate(-2232.19 80.61)" fill="#f6f6f6"/><path d="M2649.78,269.83c-1.39,2.51-3.85,4.48-2.25,8.12,1,2.29-.29,5.21-1.84,7C2637.42,294.2,2634,307,2623.9,315c-2.18,1.71-2.48,4.68-2.93,7.49-0.86,5.37-1.54,11-7.43,13.8,0.29-13.76-3.46-26.91-6-40.26-1.61-8.58,2.86-16,5.71-23.59,2-5.27,15.1-8.73,18.65-4.71,5.89,6.66,5.19,1.51,5.76-2.41,0.32-2.45,1.3-4.79,1.15-7.32a20.77,20.77,0,0,1,2-8.78c4.43-8.77,7.24-18.11,10.22-27.41,1-1.74,1.11-3.81,1.92-5.58,0.62-1.35,1.17-3.76,3.55-1.61,1.22,3.91,1.36,7.75-.7,11.45l-1.51,9.06c-2.68,5.59-2.06,11.75-3,17.65-0.41,2.71-.26,5.5-1.57,8v1.51Q2649.78,266.06,2649.78,269.83Z" transform="translate(-2232.19 80.61)" fill="#f8f8f8"/><path d="M2586.36,404.22c-0.89-4.16,1.42-7.41,3.71-10.21,6.34-7.8,5.53-19,13-26.24,1.52-1.48,2.41-4.64,5-3.24,1.93,1,.64,3.57,0,5.48-2.08,6.61,2,11.88,3.94,17.61q0,1.51,0,3c-0.58,8,.72,15.84,1.49,23.73,0.3,3.11,1.89,6.15,4.55,6,5.53-.36,9,3.6,13.58,5-0.24,4.11-3.36,3-5.53,2.73-4-.53-7.84-1.56-11.14-4a68.5,68.5,0,0,0-7.5-4.72c-4.31-3.39-7-7.91-9.55-12.69S2591.59,398.39,2586.36,404.22Z" transform="translate(-2232.19 80.61)" fill="#f4f4f3"/><path d="M2604.48,263.79c-4.15,6.46-6.28,13.65-7.55,21.14-1.84-2.61-2.15-6.11-6.68-6.87-3.23-.54-3.11-4.59-1.36-6.94,7.51-10.1,6.68-21.74,6.44-33.22-0.1-5.08,1-9.93,1.6-14.88l3-9.06,15.1-13.59a5,5,0,0,1,1.63,4.8c-1.94,8.49-2.85,17.24-6.16,25.4Z" transform="translate(-2232.19 80.61)" fill="#f4f4f4"/><path d="M2610.52,230.57c-1.32-10.49,4.89-19.85,4.53-30.2,4.46-6.75,10.79-12.09,12.58-20.85,1.06-5.19,8.32-8.18,6.54-15.57-0.24-1,7.2-3.86,11.08-5.85l7.55,9.06c-17.41,7.12-24.44,22.91-31.75,38.34-3.81,8-2.66,17.91-9,25.07h-1.51Z" transform="translate(-2232.19 80.61)" fill="#f6f6f6"/><path d="M2615.05,422.34c5.29,2.36,10.37,5.89,16.61,3h6c-3.24,2.51-6.53,4.93-10.57,6-3.52-3.16-7,2.29-10.57,0h-1.51C2614,428.38,2612.35,425.36,2615.05,422.34Z" transform="translate(-2232.19 80.61)" fill="#f4f4f3"/><path d="M2615.05,422.34q0,4.53,0,9.06c-3.48-3.42-5.44-7.8-7.55-12.08C2610.41,419.35,2613.54,418.82,2615.05,422.34Z" transform="translate(-2232.19 80.61)" fill="#f1f1f1"/><path d="M2616.56,431.4c3.52,0.54,7-5.12,10.57,0C2623.61,430.49,2620.09,435.17,2616.56,431.4Z" transform="translate(-2232.19 80.61)" fill="#f1f1f1"/><path d="M2612,230.57c2.56-9.9,4.2-20.17,8-29.59,3.87-9.71,12.16-17,17.61-25.84,3.83-6.24,8.18-9,15.2-8l1.51,1.51,4.53,4.53c-3.14,4-4,8.27-1.78,13.18a19.17,19.17,0,0,1,1.78,8v4.53c0.17,2.89,1,6-2.22,7.88-1,.74-1.4-2.66-3-0.28-3.79,5.52-9.55,9.26-13.75,14.47-1.57,1.94-3.3,4.56-6.66,3.59-5.67,3.82-9.76,8.47-9.12,16a7.1,7.1,0,0,1-5.27,7.41c-3.61,1-5.8,3.09-8.53,7.57C2609.27,245.8,2613.07,238.32,2612,230.57Z" transform="translate(-2232.19 80.61)" fill="#f8f8f8"/><path d="M2658.84,194.33c-3.77-4-4.33-9.41-5.25-14.32-0.46-2.46.65-6.74,5.25-6.82a9.45,9.45,0,0,1,4.53,4.53c-2.75,1.28-3.71,3.65-2.66,6.23C2662.35,188,2661.14,191.18,2658.84,194.33Z" transform="translate(-2232.19 80.61)" fill="#fafafa"/><path d="M2655.82,206.41c2.88-1.77.14-5.78,3-7.55a3.11,3.11,0,0,1,1.21.75c-0.42,9,.38,18.13-4.23,26.43V214C2653.64,211.45,2653.7,208.93,2655.82,206.41Z" transform="translate(-2232.19 80.61)" fill="#fafafa"/><path d="M2649.78,260.77c0.3-7-.81-14,1.37-20.93,0.64-2,1.1-3.82,3.16-4.74C2654.21,243.91,2655.2,252.91,2649.78,260.77Z" transform="translate(-2232.19 80.61)" fill="#fafafa"/><path d="M2486.71,292.48v-3c1.9,0.09,3.52.76,4.15,2.66s-0.07,3.94-2,4.17C2486.08,296.62,2487,294,2486.71,292.48Z" transform="translate(-2232.19 80.61)" fill="#f0efee"/><path d="M2490.93,305.16c-0.43.66-.75,1.6-1.13,1.63-1.36.1-1.47-1.1-1.47-2.05a6.2,6.2,0,0,1,.63-1.88Z" transform="translate(-2232.19 80.61)" fill="#f0efee"/><path d="M2655.82,206.41q0,3.77,0,7.55c-3.19,2.29.18,6.77-3,9.06-5-4.23-8.86-2.83-10.37,4.58-2,9.77-2.77,19.76-4.22,29.64-0.29,2-.13,4-1.21,5.81l-0.8.74c-0.92-.36-1.86-1.07-2.77-1-9.5.38-10-1.07-8.88-10.8s5.23-18.46,8.63-27.43c6.88-4.83,11.33-12.14,17.77-17.43C2652.49,205.84,2653.52,201.94,2655.82,206.41Z" transform="translate(-2232.19 80.61)" fill="#f5f5f5"/><path d="M2640.72,259.26c0.14,2.59-.27,4.9-3,6l-1.51-1.51h0C2638,262.54,2637.06,258.62,2640.72,259.26Z" transform="translate(-2232.19 80.61)" fill="#f5f5f5"/><path d="M2520.35,299.11c-4.13-3.27-7.91-6.17-8.31-12.34-0.47-7.31-7.18-12.88-6.22-21.07,0.29-2.52-2.71-1-3.57.49-1.34,2.27-2.88,4-5.19,1.68s0.72-3.37,1.75-4.83c0.58-.81,1.94-1.55,1.89-2.25-0.75-11.26,8.1-14.47,15.18-20,4.79-3.75,8.63-2.17,12.78-1.62,2.3,0.3,3.41,3,2.88,6.1-1.14,6.62-1.72,13.33-2.64,20-0.24,1.72-.36,4-1.45,5-8.39,7.8-5.58,17.94-6.11,27.38A5.11,5.11,0,0,1,2520.35,299.11Z" transform="translate(-2232.19 80.61)" fill="#f6f6f6"/><path d="M2551.64,259.26l3-1.51c5.26,2.31,5.39-1.38,6-4.55-1.17,2.47-2.15,5.16-6,4.55,1.54-7.77,3.13-15.52,4.59-23.31,0.56-3,2.78-4.19,5.18-4.74,3.11-.71,3.35,2.07,4.12,4.14,3.8,10.17,4.18,20.78,4.23,31.45,1.19,3.22-.61,5.66-2.83,7.12-5.38,3.53-7.87,8.95-10.53,14.36-2.4,2.79-5.54,3.88-8.5,1.71-2.73-2-1.7-5.26-.79-8.09C2549.19,273.25,2551.62,266.35,2551.64,259.26Z" transform="translate(-2232.19 80.61)" fill="#f6f6f7"/><path d="M2550.12,280.4c0.52,2.47-1.41,5.75,2,7.24,3,1.32,5.12-.67,7-2.71,1.38,1.41,1.4,3.08,1,4.85-3.68,10.22-1.78,20.6-.91,31a4.7,4.7,0,0,1-1.55,3.46c-6.53,2.49-4.54,10.47-9.58,15.14-1.9-8.08-.55-15.44-1-22.69C2548.16,304.57,2547.71,292.37,2550.12,280.4Z" transform="translate(-2232.19 80.61)" fill="#f5f5f5"/><path d="M2559.18,289.46v-4.53c0.91-5.41,3.07-9.93,8.31-12.55,2.86-1.43,4-4.38,5.28-7.08,3.15-4.39,4.19-9,1.34-13.93-1.61-2.78-1.6-5.83-1.28-8.78,0.79-7.27,2.93-14.26.26-21.86-1.25-3.56,1.22-7.34,6.3-8.55,3.59-.85,7.79-2.39,8.47-7.28,2.93-1.19,7.12-3.5,8.34.37s-1.82,7.73-6.39,8.57c-7.17,1.33-9,6.67-9.49,12.61-0.27,3.2-1.71,5.68-2.92,8.38-2.72,6.07-.94,13.53,4.42,18.39q-4.05,17.85-8.11,35.69c-0.63,2.77-2.91,4.54-4.25,6.79-2.4,4-1.76,8.65.1,13,2.91,6.76,3,13.1-3.53,14-2.17-3-2.56-2-2.7-1-0.27,1.87-1.46,3.87.51,5.54,0.5-.65,2.52,1,1.92-1.16a9.75,9.75,0,0,1-.34-3.68c0.13-1.18.46-2.37,0.61,0.34,0.88,9.74.08,14.69-4,19.76-2.26-6.5-4.16-12.16-4.33-18.29q0-1.51,0-3c0.26-7.67-.16-15.34,0-23C2557.75,295.19,2557.34,292.13,2559.18,289.46Z" transform="translate(-2232.19 80.61)" fill="#f1f1f0"/><path d="M2640.72,259.26l-4.53,4.53c0-13.27,3.1-26.17,4.55-39.27,0.58-5.19,5.77-6.83,8.75-8,3.82-1.49,3,3.76,3.31,6.5C2650.87,235.8,2641.41,246.07,2640.72,259.26Z" transform="translate(-2232.19 80.61)" fill="#f3f3f2"/><path d="M2554.65,257.75c4.89-2,4.55-6.54,5.65-10.8,2.38,4.29,3.14,9,.48,13-1.16,1.74-5.26,2-6.13-2.21h0Z" transform="translate(-2232.19 80.61)" fill="#f9fafa"/><path d="M2559.18,289.46c0,8.23.06,16.47,0,24.7,0,2.39.83,5.06-1.47,7-2.78-9.1-1.12-18.44-1.41-27.67C2556.2,291.57,2557.49,290.29,2559.18,289.46Z" transform="translate(-2232.19 80.61)" fill="#f3f2f2"/><path d="M2563,331c-4.1-5.19-1.81-9.93.45-14.58,0.5-1,1.53-2.14,3-1.68a2.49,2.49,0,0,1,1.69,3C2566.79,322.13,2568,327.59,2563,331Z" transform="translate(-2232.19 80.61)" fill="#f1f0f0"/><path d="M2569.22,289.34a3.74,3.74,0,0,1-4,2.61c-2.1,0-3-1.65-2.81-3.64,0.17-1.68,1.13-2.9,3-2.32C2567.08,286.49,2568.83,287.12,2569.22,289.34Z" transform="translate(-2232.19 80.61)" fill="#f1f0f0"/><path d="M2476,248c13.16-7.83,26.29-15.69,39.49-23.46,1.66-1,3.71-3.8,5.44-.2,1.21,2.53,1.88,5.06-1.56,7-8.95,5.09-17.63,10.64-26.61,15.69-4.42,2.49-5.45,4.61-2.13,9.15,7.86,10.74,14.85,22.12,22.82,32.76,3.37,4.5,2.91,7.4-1.62,11.14L2476,249.47Q2476,248.72,2476,248Z" transform="translate(-2232.19 80.61)" fill="#9f9e9e"/><path d="M2619.49,163.4c1.06,6,5.91,9.66,9.08,14.33,5.21,7.69,10.64,15.27,16.52,22.44,3.74,4.56,3.48,8.85,1.34,15-9.21-12.46-18.11-23.88-26.26-35.82-3.36-4.92-6-5.24-10.64-2.16-7.33,4.83-15,9.19-22.61,13.55-1.65.94-4,3.86-5.57,1-1.33-2.38-1.67-5.76,1.92-7.82,7.4-4.25,14.69-8.7,22-13.16,3.82-2.34,7.5-4.9,11.24-7.36h3Z" transform="translate(-2232.19 80.61)" fill="#9f9e9e"/><path d="M2622.93,356.8c0.66,7.8-2.81,12.1-8.57,15.82-10.55,6.81-20.72,14.23-30.87,21.65-3.47,2.53-5.47,3.07-8.19-1.18-6.76-10.59-14-20.85-21.21-31.17-1.73-2.49-3-4.45.13-6.95,3.86-3.06,4.78.53,6.18,2.52,5.36,7.6,10.81,15.16,15.74,23,3,4.81,5.35,5.93,10.4,2.1C2598.29,373.72,2610.56,365.51,2622.93,356.8Z" transform="translate(-2232.19 80.61)" fill="#9f9e9f"/><path d="M2717,298.48c-0.27,2.07-1.87,2.6-3,3.44q-11.6,8.33-23.29,16.54c-1.86,1.31-3.85,2.67-6.23,1.49-1.47-.72-4-0.63-3.95-2.77,0-1.09,1.65-2.35,2.8-3.18,6.1-4.39,12.11-8.95,18.49-12.9,4.42-2.73,4.33-5,1.31-8.8-5.77-7.25-11.08-14.86-16.6-22.31-2.1-2.84-5-5.83-.67-8.85,4.75-3.3,5.39,2.24,6.93,4.19,7.43,9.45,14.41,19.25,21.53,29C2715.35,295.69,2716.22,297.21,2717,298.48Z" transform="translate(-2232.19 80.61)" fill="#9f9e9f"/><g id="椭圆_3" data-name="椭圆 3"><path d="M2611.46,138.9c-2.41-6.75-10.34-11.53-17.14-10.28-6.4,1.18-8.78,7.22-5.84,13.18,2.75,5.58,9.44,9.51,15.35,9C2610.08,150.37,2613.7,145.18,2611.46,138.9Z" transform="translate(-2232.19 80.61)" fill="#626262" fill-rule="evenodd"/></g><g id="椭圆_4" data-name="椭圆 4"><path d="M2601.3,118.48c-1.52-4.09-5.6-6.79-9-5.91s-4.44,4.73-2.78,8.54,5.33,6.08,8.45,5.49S2602.76,122.4,2601.3,118.48Z" transform="translate(-2232.19 80.61)" fill="#626262" fill-rule="evenodd"/></g><g id="椭圆_4_拷贝" data-name="椭圆 4 拷贝"><path d="M2619.05,124.31c-1.18-4-5.26-6.77-9-6s-5.29,4.56-3.92,8.32,5,6.05,8.46,5.53S2620.18,128.18,2619.05,124.31Z" transform="translate(-2232.19 80.61)" fill="#626262" fill-rule="evenodd"/></g><g id="椭圆_4_拷贝_2" data-name="椭圆 4 拷贝 2"><path d="M2585.32,123.91c-1.68-3.63-5.47-6.08-8.32-5.36s-3.47,4.1-1.7,7.51,5.19,5.5,7.87,5S2586.94,127.41,2585.32,123.91Z" transform="translate(-2232.19 80.61)" fill="#626262" fill-rule="evenodd"/></g></svg>