<svg viewBox="0 0 451.5 585.27" xmlns="http://www.w3.org/2000/svg">
	<g transform="translate(-88.33 -125.23)">
		<path d="m539.83 484.75c0 124.68-101.07 225.75-225.75 225.75s-225.75-101.07-225.75-225.75 230.57-359.52 230.57-359.52 220.93 234.85 220.93 359.52z" fill="#bdbdbd"/>
		<g fill="#ffffff">
			<path d="m179.92 455.25h90.23c7.85 0 15.36-6.9 15-15s-6.59-15-15-15h-90.23c-7.85 0-15.36 6.9-15 15s6.59 15 15 15z"/>
			<path d="m358 460h90.23c7.85 0 15.36-6.9 15-15s-6.59-15-15-15h-90.23c-7.85 0-15.36 6.9-15 15s6.59 15 15 15z"/>
			<path d="m308.08 639.09c7.85 0 15.36-6.9 15-15s-6.59-15-15-15c-7.85 0-15.36 6.9-15 15s6.59 15 15 15z"/>
		</g>
	</g>
</svg>