<svg viewBox="0 0 451.5 585.27" xmlns="http://www.w3.org/2000/svg">
	<g transform="translate(-88.33 -125.23)">
		<path d="m539.83 484.75c0 124.68-101.07 225.75-225.75 225.75s-225.75-101.07-225.75-225.75 230.57-359.52 230.57-359.52 220.93 234.85 220.93 359.52z" fill="#4688FA"/>
		<g fill="#ffffff">
			<path d="m205.31 469c.23-.91.52-1.81.76-2.72 1-4-.68 1.09.3-1a52.05 52.05 0 0 1 3.13-5.49c.54-.87 1.21-1.52.2-.34.61-.72 1.23-1.42 1.88-2.1.81-.85 1.66-1.67 2.54-2.45.2-.18 2.33-1.89 1.22-1.06-1.32 1 1.68-1.08 2-1.25.8-.49 1.62-1 2.45-1.41s1.67-.87 2.53-1.25c-2.4 1.07.52-.1 1-.26a35.7 35.7 0 0 1 6.15-1.47c-2.84.38 2.9.09 3.74.13.32 0 3.11.39 1.52.1s1.19.32 1.46.39c1.14.28 2.25.66 3.37 1a2.69 2.69 0 1 0 .33.06 41.36 41.36 0 0 1 5.51 3.12c.22.14 2.43 1.77 1.34.9-1.29-1 1.47 1.35 1.71 1.58q1 1 2 2c.23.25 2.54 3 1.54 1.74-.84-1.12.73 1.14.87 1.36q.76 1.19 1.45 2.42a33.08 33.08 0 0 1 1.58 3.14c-.62-1.47-.24-.68 0 .35s.67 2.24.93 3.39c.13.59.57 3.73.25.89.87 7.77 6.28 15.39 15 15 7.38-.33 15.93-6.65 15-15-3.07-27.77-24.32-49.77-52.47-52.34-26.27-2.36-51.78 17.6-58.21 42.6-2 7.59 2.49 16.63 10.48 18.45 7.82 1.78 16.36-2.35 18.45-10.48z"/>
			<path d="m366.76 469c.23-.91.52-1.81.76-2.72 1-4-.68 1.09.3-1a52.05 52.05 0 0 1 3.13-5.49c.54-.87 1.21-1.52.2-.34.61-.72 1.23-1.42 1.88-2.1.81-.85 1.66-1.67 2.54-2.45.2-.18 2.33-1.89 1.22-1.06-1.32 1 1.68-1.08 2-1.25.8-.49 1.62-1 2.45-1.41s1.67-.87 2.53-1.25c-2.4 1.07.52-.1 1-.26a35.7 35.7 0 0 1 6.15-1.47c-2.84.38 2.9.09 3.74.13.32 0 3.11.39 1.52.1s1.19.32 1.46.39c1.14.28 2.25.66 3.37 1a2.69 2.69 0 1 0 .33.06 41.36 41.36 0 0 1 5.53 3.09c.22.14 2.43 1.77 1.34.9-1.29-1 1.47 1.35 1.71 1.58q1 1 2 2c.23.25 2.54 3 1.54 1.74-.84-1.12.73 1.14.87 1.36q.76 1.19 1.45 2.42a33.08 33.08 0 0 1 1.58 3.14c-.62-1.47-.24-.68 0 .35s.67 2.24.93 3.39c.13.59.57 3.73.25.89.87 7.77 6.28 15.39 15 15 7.38-.33 15.93-6.65 15-15-3.11-27.74-24.34-49.74-52.54-52.31-26.27-2.36-51.78 17.6-58.21 42.6-2 7.59 2.49 16.63 10.48 18.45 7.82 1.78 16.36-2.35 18.45-10.48z"/>
			<path d="m265.35 593c7.51 8.5 15.17 17.11 23.54 24.79 9.69 8.9 21.9 14.45 35.14 10.41 11-3.36 20.81-11.27 30.24-17.59q15.3-10.26 30.22-21.07c6.56-4.74 9.75-13 5.38-20.52-3.79-6.47-13.92-10.15-20.52-5.38-16.41 11.86-33.06 24.51-50.77 34.38q-1.47.84-3 1.56 1.45-.8-1.11.14 1.94-.18-.92-.11 2.21.18-.45-.45c2.17 2.18-3.37-2.71-1.22-1a57.89 57.89 0 0 1 -4.59-4.29c-7.17-7.1-14-14.51-20.72-22.07-5.37-6.07-15.73-5.48-21.21 0-6 6-5.38 15.13 0 21.21z"/>
		</g>
	</g>
</svg>