<?xml version="1.0" encoding="iso-8859-1"?>
<!-- Generator: Adobe Illustrator 19.2.1, SVG Export Plug-In . SVG Version: 6.00 Build 0)  -->
<svg version="1.1" id="&#x56FE;&#x5C42;_1" xmlns="http://www.w3.org/2000/svg" xmlns:xlink="http://www.w3.org/1999/xlink" x="0px"
	 y="0px" viewBox="0 0 500 500" style="enable-background:new 0 0 500 500;" xml:space="preserve">
<path style="fill:#63A431;" d="M353.456,180.793c-14.558,1.342-28.605,1.421-42.136,4.105
	c-47.661,9.455-87.332,31.719-111.814,75.424c-15.699,28.026-21.602,58.006-13.108,89.824c0.272,1.02,0.441,2.068,0.618,3.11
	c0.03,0.176-0.145,0.387-0.571,1.417c-12.218,1.156-24.769,0.73-37.167-1.8c-8.459-1.726-16.692-4.568-25.158-6.243
	c-3.164-0.626-7.26-0.336-9.979,1.211c-16.535,9.405-32.772,19.333-49.185,28.955c-1.648,0.966-3.811,1.055-5.735,1.552
	c-0.19-2.124-1.003-4.42-0.469-6.343c3.898-14.028,7.845-28.052,12.271-41.919c1.512-4.738,0.97-7.371-3.261-10.494
	C41.916,300.515,22.26,276.53,13.242,245.26c-15.73-54.543-1.282-101.428,38.333-140.86c28.22-28.089,62.767-44.168,102.258-48.541
	c56.776-6.288,108.428,6.24,152.093,44.743c22.945,20.232,38.171,45.515,46.526,74.928
	C352.962,177.322,353.159,179.202,353.456,180.793z M137.798,155.627c0.103-12.74-9.895-22.953-22.605-23.091
	c-13.196-0.143-23.781,9.781-23.925,22.433c-0.145,12.683,10.272,23.536,22.969,23.932
	C126.476,179.281,137.696,168.198,137.798,155.627z M228.34,155.627c0.048,12.522,10.432,23.006,22.982,23.203
	c12.314,0.194,23.61-11.119,23.516-23.552c-0.096-12.838-10.557-22.828-23.813-22.74C238.229,132.622,228.29,142.737,228.34,155.627
	z"/>
<path style="fill:#63A431;" d="M453.065,462.634c-6.569-3.535-13.229-6.913-19.682-10.649c-6.933-4.014-13.488-8.719-20.591-12.382
	c-2.607-1.344-6.661-1.578-9.453-0.599c-22.229,7.796-45.086,11.558-68.507,9.653c-49.663-4.039-91.076-23.703-119.54-66.133
	c-26.96-40.188-23.739-94.695,7.103-131.653c27.65-33.132,63.732-49.396,105.894-54.053c34.204-3.778,66.466,2.458,96.631,18.787
	c33.264,18.006,57.308,44.106,65.315,81.887c7.342,34.642,0.125,66.765-22.505,94.549c-6.347,7.793-13.98,14.583-21.362,21.47
	c-3.669,3.422-5.121,6.496-3.199,11.552c3.67,9.654,6.721,19.547,9.903,29.381c0.726,2.243,0.935,4.654,1.382,6.987
	C453.991,461.832,453.528,462.233,453.065,462.634z M398.29,251.945c-11.676-0.089-21.217,9.029-21.337,20.391
	c-0.134,12.715,8.811,22.212,20.911,22.202c12.548-0.011,21.518-8.862,21.678-21.392
	C419.693,261.291,410.417,252.037,398.29,251.945z M291.389,251.948c-12.845,0.008-21.195,8.503-21.172,21.539
	c0.021,11.865,8.851,20.903,20.566,21.051c12.092,0.152,22.016-9.53,21.888-21.357C312.542,261.155,303.307,251.941,291.389,251.948
	z"/>
<path style="fill:#FFFFFF;" d="M137.798,155.627c-0.102,12.572-11.322,23.655-23.56,23.273
	c-12.698-0.396-23.115-11.249-22.969-23.932c0.145-12.652,10.729-22.576,23.925-22.433
	C127.903,132.673,137.901,142.887,137.798,155.627z"/>
<path style="fill:#FFFFFF;" d="M228.34,155.627c-0.05-12.89,9.889-23.005,22.686-23.089c13.255-0.087,23.716,9.903,23.813,22.74
	c0.093,12.433-11.203,23.746-23.516,23.552C238.771,178.632,228.388,168.149,228.34,155.627z"/>
<path style="fill:#FFFFFF;" d="M398.29,251.945c12.127,0.092,21.403,9.346,21.252,21.201c-0.16,12.529-9.129,21.381-21.678,21.392
	c-12.1,0.01-21.046-9.487-20.911-22.202C377.073,260.975,386.614,251.857,398.29,251.945z"/>
<path style="fill:#FFFFFF;" d="M291.389,251.948c11.917-0.008,21.153,9.206,21.283,21.233c0.128,11.827-9.796,21.509-21.888,21.357
	c-11.715-0.147-20.545-9.186-20.566-21.051C270.194,260.452,278.544,251.957,291.389,251.948z"/>
</svg>
