<svg viewBox="0 0 371.96 396.76" xmlns="http://www.w3.org/2000/svg"><path d="m0 319.75 371.96-47.66" fill="#545454"/><path d="m266.31 115 28.61-28.61 16.64 25.11 28.13-37" fill="none" stroke="#29abe2" stroke-miterlimit="10" stroke-width="6"/><path d="m242.69 460.28s1 3.52.22 4.88 9.46-.69 9.46-.69-4-4.7-3.23-7.28-6.45 3.09-6.45 3.09z" fill="#edbfa4" transform="translate(1.48 -80)"/><path d="m232 476.76 22.22-6.44c.93-2.79.1-5.19-2.11-7.28a20.71 20.71 0 0 1 -10.48 1.39c-2.21 3.23-6 6.36-10.47 9.45-1.38 1.12-.79 2.05.84 2.88z" fill="#243a45" transform="translate(1.48 -80)"/><path d="m174.03 41.5 17.22-25.21 13.77 28.41z" fill="none" stroke="#efefef" stroke-miterlimit="10" stroke-width="4"/><g transform="translate(1.48 -80)"><path d="m239.95 376.19c-.8 5.92-1.19 11.71-1.41 16.71v.49.39c-.14 3.75-.21 7-.29 9.6a29.77 29.77 0 0 0 -.42 5.44c-.2 11.48 2.25 34.1 5.2 51.44l1.63-.17 6.33-.76 1.37-.18-1.12-52.15v-.09c2-4.45 3.93-8.9 5.88-13.26 1.31-3 2.58-6 3.82-9a219.21 219.21 0 0 0 8.55-23.13.06.06 0 0 0 0-.09 42.06 42.06 0 0 0 1.91-10.27l-22.89-4.56-.45.82a27 27 0 0 0 -1.29 2.51 1.39 1.39 0 0 0 -.15.28 42.13 42.13 0 0 0 -1.62 4.19 95.07 95.07 0 0 0 -5.05 21.79z" fill="#38a7e0"/><path d="m226 460.28s1 3.52.22 4.88 9.46-.69 9.46-.69-4-4.7-3.23-7.28-6.45 3.09-6.45 3.09z" fill="#edbfa4"/><path d="m215.34 476.76 22.22-6.44c.93-2.79.1-5.19-2.11-7.28a20.71 20.71 0 0 1 -10.45 1.39c-2.21 3.23-6 6.36-10.47 9.45-1.43 1.12-.84 2.05.81 2.88z" fill="#243a45"/><path d="m221.57 376.19c-.8 5.92-1.19 11.71-1.41 16.71v.49.39c-.14 3.75-.21 7-.29 9.6a29.77 29.77 0 0 0 -.42 5.44c-.2 11.48 2.25 34.1 5.2 51.44l1.63-.17 6.33-.76 1.37-.18-1.11-52.15v-.09c2-4.45 3.93-8.9 5.88-13.26 1.31-3 2.58-6 3.82-9a219.21 219.21 0 0 0 8.55-23.13.06.06 0 0 0 0-.09 42.06 42.06 0 0 0 1.91-10.27l-22.89-4.56-.45.82a27 27 0 0 0 -1.29 2.51 1.39 1.39 0 0 0 -.15.28 42.13 42.13 0 0 0 -1.72 4.19 95.07 95.07 0 0 0 -4.96 21.79z" fill="#38a7e0"/></g><path d="m234.55 161.48-87.09 9.41-2.4-128.89 89.49 4.8z" fill="none" stroke="#d3d3d3" stroke-miterlimit="10" stroke-width="8"/><ellipse cx="191.9" cy="14.03" fill="#e5e5e5" rx="5.69" ry="3.84"/><path d="m226.12 293.59s5.08-14.21 13.51-19.87c4.19-2.81 3.88-3.05 9-2.28a79.66 79.66 0 0 1 9.32 1.9 94.11 94.11 0 0 1 5 16.1c.31 1.29.55 2.55.8 3.83 4 21.48.14 40.71 8.11 58.21-.59.19-3.51 1.11-4.75 1.37-2.75.59-5.72 1.09-8.79 1.46l-.44.08-1.85.21-1.44.14h-.34c-2.37.25-4.76.41-7.14.51-6 .27-19.67-2.55-20.42-2.74-1.49-10.24-2.37-28-2.24-39.73 0-.12 0-.44 0-.9" fill="#cce5f1" transform="translate(1.48 -80)"/><path d="m287.87 46.1 14.74-21.58 11.79 24.32z" fill="none" stroke="#efefef" stroke-miterlimit="10" stroke-width="4"/><path d="m339.69 148.83-74.58 8.06-2.05-110.37 76.63 4.12z" fill="none" stroke="#d3d3d3" stroke-miterlimit="10" stroke-width="8"/><path d="m250.31 261.75c-.6 3.38-.23 6.45 2.31 10.51 2.67.93-2.49 7.14-8 6.81-4.67-.69-5.7.9-5.88-1.88 2.71-1.22.84-10.33.77-13.47z" fill="#e0ad94" transform="translate(1.48 -80)"/><path d="m252.15 260.4c-3.88 3-13.19 6.2-16 5-5-1.48-6.58-22.67-1.15-27.78l14.92 3.42 6.68 10.09c-1.01 3.87-1.48 7.13-4.45 9.27z" fill="#edbfa4" transform="translate(1.48 -80)"/><path d="m265.13 349.69.46-2.1.16-.71-5.17-.65v3c-1 .32-2.32 2.51-2.86 3.13-.1.23-.19.47-.27.7-.54 1.62-1.17 2.89-.62 4.54 0 0 1.58 1.6 2.3.06a6.44 6.44 0 0 0 .16-1.3.94.94 0 0 1 .88-.71l5.57 4.54a15.17 15.17 0 0 0 1.34-3.81c-.19-1.62-.79-5.68-1.95-6.69z" fill="#edbfa4" transform="translate(1.48 -80)"/><path d="m247.14 251.65c-3 2.91-1.88-2.62.32-5.82-10.05-1.4-5.56-6-11.3-6.36-2.14.33-2.55 3.4-4.42 4.62-.69-7.43 1.61-15.48 10-17.94 5.16-1 14.22-1.89 20.76 4.34 5.22 4.13 8.27 16.83 6.34 22.82-5.08 16.64 8.65 14.43 19.52 16 15.37 2.64 23.25 12.69 25.39 19.49 6.06 16.38-7.39 4.73-20.42 10.41-24 6.54-14.73-16.8-31.72-17.44-14.61-.58-21.61-18.88-16.61-20.83 1.64.28 1.1-3.74-.33-3.77" fill="#243a45" transform="translate(1.48 -80)"/><path d="m249.07 276.11h21.26v5.82h-21.26z" fill="#38a7e0"/><path d="m252.47 356.5h15.73v1.44h-15.73z" fill="#3293ba" transform="matrix(.99907092 -.04309628 .04309628 .99907092 -13.69 -68.44)"/><path d="m22.48 155.48 38.55-39.92 12.54 11.38 42.91-44.44" fill="none" stroke="#29abe2" stroke-miterlimit="10" stroke-width="6"/><path d="m51.25 35.63 19.12-28.69 15.3 32.34z" fill="none" stroke="#efefef" stroke-miterlimit="10" stroke-width="4"/><path d="m118.48 172.18-96.76 10.71-2.66-146.69 99.42 5.46z" fill="none" stroke="#d3d3d3" stroke-miterlimit="10" stroke-width="8"/><ellipse cx="71.09" cy="4.37" fill="#e5e5e5" rx="6.33" ry="4.37"/><ellipse cx="303.16" cy="22.58" fill="#e5e5e5" rx="4.88" ry="3.29"/><path d="m190.41 216.13a27.65 27.65 0 0 1 -8.85-1.43c1.55-2.15 0-5.49-1.25-8.14-1.67-3.6 1.62-8-1.46-6.94s-4.57-6.2-6.12-4.37c-2.52 3 1.7 10-2.57 5.64-3.16-3.25-4.05-4.35-5.09-.79a27.62 27.62 0 0 1 .19-23.85 13.64 13.64 0 0 1 .09 4.47c-.59 4.86 1.27 7 2.45 3.51s2.45-8.09 7.35-9.66 4.24 2.06 10.5.4 4.8-6.92 1.58-6.62-2.94-3-.31-3.9c1.79-.58.73-1.87-3.11-3.06a29.22 29.22 0 0 1 6.59-.77 27.91 27.91 0 0 1 17.36 6c.12 1-.52 1.29-2.57 1.43-4.14.3-7.75 2.57-8.85 6.06-1.7 5.4 0 4.56 3.49 1.31 2.87-2.67 6.31 2.48 4 5.31s-1.62 4.09 2.12 5.66c2.17.89 7.82 1.29 12.36.84a9.7 9.7 0 0 1 0 1.17 27.89 27.89 0 0 1 -27.9 27.73zm30.28-29.25a30.35 30.35 0 0 0 -30.28-28.62 30.42 30.42 0 0 0 -26 14.68 29.94 29.94 0 0 0 -.12 30.68 30.37 30.37 0 0 0 56.47-15.24c-.02-.52-.05-1.01-.07-1.5z" fill="#29abe2" transform="translate(1.48 -80)"/><path d="m19.06 187.33 104.09-11.33" fill="none" stroke="#a8a8a8" stroke-miterlimit="10" stroke-width="3"/><path d="m143.81 176 89.3-10.33" fill="none" stroke="#a8a8a8" stroke-miterlimit="10" stroke-width="3"/><path d="m269.64 160.72 74.84-8.72" fill="none" stroke="#a8a8a8" stroke-miterlimit="10" stroke-width="3"/></svg>