<svg viewBox="0 0 468.4 432.79" xmlns="http://www.w3.org/2000/svg" xmlns:xlink="http://www.w3.org/1999/xlink"><clipPath id="a" transform="translate(50.79 -71.21)"><path d="m138.89 122.37h79.16v79.28h-79.16z"/></clipPath><clipPath id="b" transform="translate(50.79 -71.21)"><path d="m-399.26-64.94h1155.53v584.85h-1155.53z"/></clipPath><path d="m60.07 108.31c-15.07 50.44 59 33.11-5.63 104.18-82 90.13 14.4 347.93 74.94 264.89 41.51-56.94 137.58 123 196.68-91.13s-37.92-207.54-143.4-289.14c-83-64.21-122.59 11.2-122.59 11.2z" fill="#eff5f8" transform="translate(50.79 -71.21)"/><path d="m0 277.79h468.4" fill="#545454"/><path d="m278.11 353.79-.36-36h-36.64-4.99-35.47l-.35 36h-79.51v79h115.33 4.99 119.68v-79z" fill="#e5e5e5"/><path d="m170.42 380.33s.25 2.75-.48 3.65 7.12.74 7.12.74-2.35-4-1.43-5.84-5.21 1.45-5.21 1.45z" fill="#edbfa4" transform="translate(50.79 -71.21)"/><path d="m160.31 391.16 17.36-1.84a5 5 0 0 0 -.6-5.69 15.62 15.62 0 0 1 -8-.35c-2.07 2.11-5.29 3.93-9 5.63-1.19.65-.88 1.42.24 2.25z" fill="#243a45" transform="translate(50.79 -71.21)"/><path d="m200.65 318.79h40.14v114h-120v-77h79.51z" fill="#72c1dd"/><path d="m277.75 318.79h-41.96v114h125v-77h-82.68z" fill="#44b9e2"/><path d="m110.45 457-12.3 14.4a7.45 7.45 0 0 0 -.92 6.89l8.31 23.05c.6 1.67 1.73 2.7 3 2.7h24.68l-17.73-45.4c-1.06-2.82-3.4-3.64-5.04-1.64z" fill="#4ab8d1" transform="translate(50.79 -71.21)"/><path d="m182.13 452.63-16.51 15.72a6.9 6.9 0 0 0 -1.24 7.52l10.36 28.13h37.9l-23.81-49.57c-1.36-3.05-4.5-3.89-6.7-1.8z" fill="#4ab8d1" transform="translate(50.79 -71.21)"/><path d="m267.39 464.26-18.84 12.16a4.12 4.12 0 0 0 -1.42 5.82l11.87 21.76h43.23l-27.23-38.35a5.68 5.68 0 0 0 -7.61-1.39z" fill="#72c1dd" transform="translate(50.79 -71.21)"/><path d="m160.3 390.24h17.49v.75h-17.49z" fill="#a8d8ef" transform="matrix(.99441189 -.10556987 .10556987 .99441189 10.51 -51.18)"/><path d="m206.88 382.79s-.73 2.66-.17 3.68-7.14-.52-7.14-.52 3-3.55 2.43-5.49 4.88 2.33 4.88 2.33z" fill="#edbfa4" transform="translate(50.79 -71.21)"/><path d="m214.94 395.22-16.77-4.86a5 5 0 0 1 1.59-5.49 15.63 15.63 0 0 0 7.91 1c1.67 2.44 4.52 4.8 7.9 7.13 1.05.9.61 1.6-.63 2.22z" fill="#243a45" transform="translate(50.79 -71.21)"/><path d="m206.06 384.41h.75v17.49h-.75z" fill="#a8d8ef" transform="matrix(.28 -.96 .96 .28 -177.83 410.85)"/><g transform="translate(50.79 -71.21)"><path d="m210.23 319.33c.6 4.47.9 8.83 1.07 12.61v.37.29c.11 2.83.16 5.3.22 7.25a22.46 22.46 0 0 1 .32 4.11c.15 8.66-1.7 25.73-3.92 38.82l-1.23-.13-4.78-.58-1-.14.84-39.38v-.07c-1.48-3.36-3-6.72-4.43-10-1-2.29-1.95-4.56-2.89-6.77a165.43 165.43 0 0 1 -6.46-17.46 0 0 0 0 1 0-.07c-.89-3 .34-6 .29-8.09l15.46-3.09.34.62a20.37 20.37 0 0 1 1 1.9 1 1 0 0 1 .11.21 31.79 31.79 0 0 1 1.3 3.16 71.74 71.74 0 0 1 3.76 16.44z" fill="#38a7e0"/><path d="m167.4 317.71c-.6 4.47-.9 8.83-1.07 12.61v.37.31c-.11 2.83-.16 5.3-.22 7.25a22.46 22.46 0 0 0 -.32 4.11c-.15 8.66 1.7 25.73 3.92 38.82l1.23-.13 4.78-.58 1-.14-.84-39.38v-.07c1.48-3.36 3-6.72 4.43-10 1-2.29 1.95-4.56 2.89-6.77a165.43 165.43 0 0 0 6.46-17.46 0 0 0 0 0 0-.07 31.74 31.74 0 0 0 1.44-7.75l-17.27-3.44-.34.62a20.37 20.37 0 0 0 -1 1.9 1 1 0 0 0 -.11.21 31.79 31.79 0 0 0 -1.3 3.16 71.74 71.74 0 0 0 -3.68 16.43z" fill="#38a7e0"/><path d="m171.38 299.34c.56.15 10.9 2.28 15.41 2.07 1.8-.07 3.6-.2 5.39-.39h.25l1.09-.11 1.4-.16.33-.06c2.31-.28 4.55-.66 6.63-1.1.94-.2 3.14-.9 3.59-1-6-13.21-3.13-27.72-6.12-43.93-.19-1-.37-1.91-.6-2.89a71 71 0 0 0 -3.75-12.2 60.11 60.11 0 0 0 -7-1.43 53.61 53.61 0 0 0 -11.47-.55 49.36 49.36 0 0 0 -6.57.85c.21 4.6.26 8.69.24 12.48 0 1 0 2-.06 3-.08 5.23-.3 10-.35 14.77v.68a235.17 235.17 0 0 0 1.59 29.97z" fill="#cce5f1"/><path d="m186.18 230.18a10.32 10.32 0 0 0 1.74 7.93c2 .7-1.88 5.39-6.06 5.14a6.4 6.4 0 0 1 -5.42-5.68c2-.92 1.62-3.54 1.57-5.91z" fill="#e0ad94"/><path d="m188.5 231.48c-2.93 2.26-10 4.68-12.06 3.79-3.77-1.11-5-17.11-.87-21l11.26 2.58 5 7.62c-.73 2.92-1.09 5.4-3.33 7.01z" fill="#edbfa4"/><path d="m158.66 191.72-.47 2.12-.16.72 5.21.65v-3c1-.33 2.34-2.53 2.89-3.16.1-.23.19-.47.27-.71.54-1.64 1.18-2.91.62-4.57 0 0-1.59-1.61-2.32-.06a6.49 6.49 0 0 0 -.17 1.31 1 1 0 0 1 -.88.72v-5.24c-2.45 0-5.47-.94-7 4.51-.54 1.99 1.35 5.3 2.01 6.71z" fill="#edbfa4"/><path d="m153.64 233.63c2.1 6.12 8.95 12.7 15.51 20.14.33.38.69.76 1 1.16.08.08.14.17.22.25l.18-.54.84-2.59 4-12.44-14.39-10.78 2.51-34.42-.93-.09-4.26-.4-.8-.08-.86-.09c-1.83 16.99-4.97 33.96-3.02 39.88z" fill="#cce5f1"/><path d="m188.47 220c-7.59-1.05-8.36-5.11-12.69-5.39-1.62.25-1.93 2.56-3.33 3.48-.52-5.61 1.22-11.68 7.51-13.54 3.9-.72 10.73-1.42 15.66 3.27 3.94 3.12 6.24 12.7 4.79 17.22-3.84 12.55 6.53 10.89 14.73 12.06 11.6 2 17.55 9.58 19.16 14.7 4.57 12.36-5.58 3.57-15.41 7.85-18.11 4.94-11.11-12.67-23.94-13.16-11-.41-12.09-13.64-8.36-15.11 1.24.21 2.18-.93 2.53-2 .65-1.36 1.47-2.12.34-3.23-.41-.33-2.3-.42-3.82 1.3-.45-2.34 1.16-5.05 2.83-7.45z" fill="#243a45"/><path d="m197.87 249.39.14-.21c.22-.37.46-.77.7-1.17 4.3-6.9 8.39-13.71 8.38-18.81 0-5.92-4.28-22.84-7.35-36.72a.26.26 0 0 1 0-.1l-6.74-.38 5 38.14-14.95 16.64 11.77 2.06 1.68.28z" fill="#cce5f1"/><path d="m193.54 193 5.79.06-.5-2.58c1-2 1-3.54.68-6.07-.07-.29-.05-2.8-.9-3.43-6.14-4.56-5.7 3.55-5.7 3.55a7.84 7.84 0 0 1 -.22 2.18c.22-1.12-1.17-.95-2-1.23-.54-.15-2 0-1.84.74 1.82 2.2 3.33 3.7 4.81 4.12z" fill="#edbfa4"/></g><g clip-path="url(#a)"><path d="m208.15 127.3c-8.66 0-9.9 7.42-9.9 9.9s0 4.95 2.47 4.95 2.47-2.47 2.47-4.95 1.24-4.95 4.95-4.95 4.95 2.47 4.95 4.95c0 12.37-14.85 19.79-22.27 19.79h-24.73c-7.42 0-22.27-7.42-22.27-19.79 0-2.47 1.24-4.95 4.95-4.95s4.95 2.47 4.95 4.95 0 4.95 2.47 4.95 2.47-2.47 2.47-4.95-1.24-9.9-9.9-9.9a9.76 9.76 0 0 0 -9.9 9.9c0 14.85 17.32 24.74 27.21 24.74h24.74c9.9 0 27.22-9.9 27.22-24.74a9.76 9.76 0 0 0 -9.9-9.9zm0 0" fill="#e6b85c" transform="translate(50.79 -71.21)"/><path d="m200.73 127.3c0-2.47 0-4.95-2.47-4.95h-39.6c-2.47 0-2.47 2.47-2.47 4.95 0 42.06 17.32 37.11 17.32 42.06v4.95c0 4.95-7.42 2.47-7.42 7.42h24.74c0-4.95-7.42-2.47-7.42-7.42v-4.95c0-4.95 17.32 0 17.32-42.06zm0 0" fill="#fc6" transform="translate(50.79 -71.21)"/></g><path d="m190.83 181.73h-24.74s-7.42 0-7.42 4.95h39.59c0-4.95-7.42-4.95-7.42-4.95zm-17.32-7.42h9.9a2.47 2.47 0 0 0 0-4.95h-9.9a2.47 2.47 0 0 0 0 4.95zm0 0" fill="#e6b85c" transform="translate(50.79 -71.21)"/><path d="m183.41 147.09h-2.47v-17.32h-2.47a2.47 2.47 0 0 0 -2.17 1.28l-4.55 4.55a2.38 2.38 0 0 0 3.35 3.4l.88-.88v9h-2.47a2.47 2.47 0 0 0 0 4.95h9.9a2.47 2.47 0 0 0 0-4.95zm0 0" fill="#cca352" transform="translate(50.79 -71.21)"/><path d="m189.76 113.82 2.49 4.52 4.54 2.47-4.54 2.47-2.49 4.51-2.48-4.51-4.55-2.47 4.55-2.47z" fill="#cce5f1"/><path d="m158.6 131.28 3.42 6.21 6.25 3.39-6.25 3.4-3.42 6.21-3.42-6.21-6.25-3.4 6.25-3.39z" fill="#cce5f1"/><path d="m154.01 90.74 4.46 8.09 8.14 4.42-8.14 4.42-4.46 8.09-4.45-8.09-8.15-4.42 8.15-4.42z" fill="#cce5f1"/><path d="m360.68 225.01 2.49 4.51 4.54 2.47-4.54 2.47-2.49 4.51-2.49-4.51-4.54-2.47 4.54-2.47z" fill="#cce5f1"/><path d="m329.52 242.47 3.42 6.2 6.25 3.4-6.25 3.39-3.42 6.21-3.42-6.21-6.25-3.39 6.25-3.4z" fill="#cce5f1"/><path d="m324.93 201.92 4.45 8.09 8.15 4.43-8.15 4.42-4.45 8.09-4.46-8.09-8.14-4.42 8.14-4.43z" fill="#cce5f1"/><g clip-path="url(#b)" opacity=".5"><g fill="#f9ceb5"><path d="m28.83 244.54a3.71 3.71 0 0 1 -3.72-3.69h2.14a1.58 1.58 0 1 0 1.58-1.57v-2.12a3.69 3.69 0 1 1 0 7.38z" transform="translate(50.79 -71.21)"/><path d="m132.12 210.62a3.71 3.71 0 0 1 -3.72-3.69h2.14a1.58 1.58 0 1 0 1.58-1.57v-2.12a3.69 3.69 0 1 1 0 7.38z" transform="translate(50.79 -71.21)"/><path d="m85.61 231.29a3.71 3.71 0 0 1 -3.72-3.69h2.11a1.58 1.58 0 1 0 1.61-1.6v-2.1a3.69 3.69 0 1 1 0 7.39z" transform="translate(50.79 -71.21)"/><path d="m83.4 296.44a3.71 3.71 0 0 1 -3.72-3.69h2.14a1.58 1.58 0 1 0 1.58-1.57v-2.12a3.69 3.69 0 1 1 0 7.38z" transform="translate(50.79 -71.21)"/><path d="m91.47 363.39a3.71 3.71 0 0 1 -3.72-3.69h2.14a1.58 1.58 0 1 0 1.58-1.57v-2.13a3.69 3.69 0 1 1 0 7.39z" transform="translate(50.79 -71.21)"/><path d="m52.33 286.29a3.71 3.71 0 0 1 -3.72-3.69h2.14a1.58 1.58 0 1 0 1.58-1.6v-2.12a3.69 3.69 0 1 1 0 7.41z" transform="translate(50.79 -71.21)"/><path d="m183 231.81a3.71 3.71 0 0 1 -3.72-3.69h2.14a1.58 1.58 0 1 0 1.58-1.57v-2.12a3.69 3.69 0 1 1 0 7.38z" transform="translate(50.79 -71.21)"/><path d="m286.55 270.26a3.71 3.71 0 0 1 -3.72-3.69h2.17a1.58 1.58 0 1 0 1.58-1.57v-2.12a3.69 3.69 0 1 1 -.03 7.38z" transform="translate(50.79 -71.21)"/><path d="m269 336.27a3.71 3.71 0 0 1 -3.72-3.69h2.14a1.58 1.58 0 1 0 1.58-1.58v-2.12a3.69 3.69 0 1 1 0 7.39z" transform="translate(50.79 -71.21)"/><path d="m318.7 282.77a3.71 3.71 0 0 1 -3.72-3.69h2.14a1.58 1.58 0 1 0 1.58-1.57v-2.12a3.69 3.69 0 1 1 0 7.38z" transform="translate(50.79 -71.21)"/><path d="m244.78 220.65a3.71 3.71 0 0 1 -3.72-3.69h2.14a1.58 1.58 0 1 0 1.58-1.57v-2.12a3.69 3.69 0 1 1 0 7.38z" transform="translate(50.79 -71.21)"/><path d="m265.27 148.79a3.71 3.71 0 0 1 -3.72-3.69h2.14a1.58 1.58 0 1 0 1.58-1.57v-2.13a3.69 3.69 0 1 1 0 7.39z" transform="translate(50.79 -71.21)"/><path d="m230.39 184.64a3.71 3.71 0 0 1 -3.72-3.69h2.14a1.58 1.58 0 1 0 1.58-1.57v-2.12a3.69 3.69 0 1 1 0 7.38z" transform="translate(50.79 -71.21)"/><path d="m265 181.86a3.71 3.71 0 0 1 -3.72-3.69h2.14a1.58 1.58 0 1 0 1.58-1.57v-2.12a3.69 3.69 0 1 1 0 7.38z" transform="translate(50.79 -71.21)"/><path d="m187.62 155.34a3.71 3.71 0 0 1 -3.72-3.69h2.1a1.58 1.58 0 1 0 1.58-1.57v-2.12a3.69 3.69 0 1 1 .04 7.38z" transform="translate(50.79 -71.21)"/><path d="m178.94 174.8a3.71 3.71 0 0 1 -3.72-3.69h2.14a1.58 1.58 0 1 0 1.58-1.57v-2.12a3.69 3.69 0 1 1 0 7.38z" transform="translate(50.79 -71.21)"/><path d="m222.76 138a3.71 3.71 0 0 1 -3.72-3.69h2.14a1.58 1.58 0 1 0 1.58-1.57v-2.14a3.69 3.69 0 1 1 0 7.4z" transform="translate(50.79 -71.21)"/><path d="m265.92 295.86a3.71 3.71 0 0 1 -3.72-3.69h2.14a1.58 1.58 0 1 0 1.58-1.57v-2.12a3.69 3.69 0 1 1 0 7.38z" transform="translate(50.79 -71.21)"/></g><path d="m12.33 240.22a3.69 3.69 0 1 1 3.72-3.69h-2.14a1.58 1.58 0 1 0 -1.58 1.57z" fill="#b5e2f9" transform="translate(50.79 -71.21)"/><path d="m31.48 267.11a3.69 3.69 0 1 1 3.72-3.69h-2.14a1.58 1.58 0 1 0 -1.58 1.58v2.12z" fill="#b5e2f9" transform="translate(50.79 -71.21)"/><path d="m80.31 282.28a3.69 3.69 0 1 1 3.69-3.69h-2.1a1.58 1.58 0 1 0 -1.58 1.57v2.12z" fill="#b5e2f9" transform="translate(50.79 -71.21)"/><path d="m72.26 323.49a3.69 3.69 0 1 1 3.74-3.69h-2.16a1.58 1.58 0 1 0 -1.58 1.57z" fill="#b5e2f9" transform="translate(50.79 -71.21)"/><path d="m87.39 358.62a3.69 3.69 0 1 1 3.72-3.69h-2.11a1.58 1.58 0 1 0 -1.58 1.57v2.12z" fill="#b5e2f9" transform="translate(50.79 -71.21)"/><path d="m104.14 212.83a3.69 3.69 0 1 1 3.72-3.69h-2.14a1.58 1.58 0 1 0 -1.58 1.57z" fill="#b5e2f9" transform="translate(50.79 -71.21)"/><path d="m174.32 218.23a3.69 3.69 0 1 1 3.72-3.69h-2.14a1.58 1.58 0 1 0 -1.58 1.57z" fill="#b5e2f9" transform="translate(50.79 -71.21)"/><path d="m222.76 218.65a3.69 3.69 0 1 1 3.72-3.69h-2.14a1.58 1.58 0 1 0 -1.58 1.57z" fill="#b5e2f9" transform="translate(50.79 -71.21)"/><path d="m291.2 245.28a3.69 3.69 0 1 1 3.72-3.69h-2.14a1.58 1.58 0 1 0 -1.58 1.57z" fill="#b5e2f9" transform="translate(50.79 -71.21)"/><path d="m289 308.53a3.69 3.69 0 1 1 3.72-3.69h-2.14a1.58 1.58 0 1 0 -1.58 1.56v2.12z" fill="#b5e2f9" transform="translate(50.79 -71.21)"/><path d="m261.69 327a3.69 3.69 0 1 1 3.72-3.69h-2.14a1.58 1.58 0 1 0 -1.58 1.57z" fill="#b5e2f9" transform="translate(50.79 -71.21)"/><path d="m262 270.26a3.69 3.69 0 1 1 3.72-3.69h-2.12a1.58 1.58 0 1 0 -1.58 1.57v2.12z" fill="#b5e2f9" transform="translate(50.79 -71.21)"/><path d="m324.64 249.34a3.69 3.69 0 1 1 3.72-3.69h-2.14a1.58 1.58 0 1 0 -1.58 1.57z" fill="#b5e2f9" transform="translate(50.79 -71.21)"/><path d="m254.24 157a3.69 3.69 0 1 1 3.76-3.7h-2.14a1.58 1.58 0 1 0 -1.58 1.57v2.13z" fill="#b5e2f9" transform="translate(50.79 -71.21)"/><path d="m220.45 128.55a3.69 3.69 0 1 1 3.72-3.69h-2.17a1.58 1.58 0 1 0 -1.58 1.57v2.12z" fill="#b5e2f9" transform="translate(50.79 -71.21)"/><path d="m168.9 160.62a3.69 3.69 0 1 1 3.72-3.69h-2.14a1.58 1.58 0 1 0 -1.58 1.57z" fill="#b5e2f9" transform="translate(50.79 -71.21)"/><path d="m195.06 177.57a3.69 3.69 0 1 1 3.72-3.69h-2.14a1.58 1.58 0 1 0 -1.58 1.57z" fill="#b5e2f9" transform="translate(50.79 -71.21)"/><path d="m187.06 118.67a3.69 3.69 0 1 1 3.72-3.69h-2.14a1.58 1.58 0 1 0 -1.58 1.57z" fill="#b5e2f9" transform="translate(50.79 -71.21)"/></g></svg>