<svg viewBox="0 0 446.95 384.84" xmlns="http://www.w3.org/2000/svg"><path d="m147.79 376.09a193.39 193.39 0 0 1 -38.69-116.36c0-107.28 87-194.25 194.25-194.25s194.25 87 194.25 194.25a193.36 193.36 0 0 1 -35.22 111.58" fill="#fbdfe5" transform="translate(-77.38 -65.48)"/><path d="m269.19 186.62s-23-89.33 0-88.14 18 82.19 18 82.19z" fill="#fff" transform="translate(-77.38 -65.48)"/><path d="m333.31 182.62s23-89.33 0-88.14-18 82.19-18 82.19z" fill="#fff" transform="translate(-77.38 -65.48)"/><path d="m401.21 375.72c0-114.84-45.25-207.94-101.07-207.94s-101.07 93.1-101.07 207.94" fill="#fff" transform="translate(-77.38 -65.48)"/><path d="m208.26 314.99h-16.45v-176.75l14.19-5.75z" fill="#88b5e1"/><path d="m237.22 321.24h16.45v-182.81l-14.19-5.94z" fill="#88b5e1"/><g transform="translate(-77.38 -65.48)"><path d="m316.8 197 15.07 5.6a1.35 1.35 0 0 1 .86 1.52 1.35 1.35 0 0 1 -1.78 1l-15.12-5.35a1.35 1.35 0 0 1 -.87-1.55l.04-.22a1.35 1.35 0 0 1 1.8-1z"/><path d="m268.42 203.49 14.93-5.64a1.44 1.44 0 0 1 1.92 1.08v.07a1.44 1.44 0 0 1 -.91 1.61l-14.93 5.61a1.44 1.44 0 0 1 -1.93-1.15 1.44 1.44 0 0 1 .92-1.58z"/><path d="m217.36 450.32h-1c-1.15-.76-2.64-.82-3.65-1.85a24.76 24.76 0 0 0 -11.62-2.2c-8.16.15-16.33.08-24.49 0-1.76 0-3.71.55-5.18-1.06.63-2.89 3.34-2.24 5.18-3.08 7.13.55 14.21-1.64 21.39-.44 2.62.44 3.88-1.85 2.94-4.66-.59-1.78-2.28-2.27-3.5-3.32-.91-1.23-.46-2.53-.13-3.79s.95-2.6 2.5-2.68c1.31-.07 2 1 2.54 2.06a43.87 43.87 0 0 1 2.82 7.87c2.38-1 3.32-3.56 5.83-3.23 6.43 4.76 8.76 10.77 6.37 16.38z" fill="#86b1d9"/><path d="m489.31 394.31-1 1c-1.14.72.55 3.45-2.17 3.06a3.1 3.1 0 0 1 -.69-1.35c.23-3.83 2.36-7.24 2.47-11.1 0-4.29-2.16-7.24-5.72-9.26a37.32 37.32 0 0 0 -13.49-5 10.06 10.06 0 0 1 -5.91-2.41c-3.4-3.28-7.45-3.88-12-3.67-7.4.35-15-1.14-21.88 3.11a2.68 2.68 0 0 1 -2.42-.05.85.85 0 0 1 -.2-1.35c3.76-4.06 8.56-5.17 13.88-5a109.7 109.7 0 0 0 11.91 0c5.14-.39 9.48.69 12.72 5 .9 1.2 2.12 2.27 3.77 2 6.29-1 11.09 3.68 16.95 4.42 1 .13 1.85 1.72 2.77 2.64 3.4 1.76 1.79 5.41 3 8v3c-1.19 2.15.35 5.12-1.99 6.96z" fill="#cae3f5"/><path d="m303.35 450.32h-25a2.64 2.64 0 0 1 -.7-2.12 43.78 43.78 0 0 1 6.42-8c2.1 4.18 1.68 5.52-2.18 7.12 8.26-1.37 17 1.35 24.9-3.11 3-.81 5.91-1.78 9-.6a2 2 0 0 1 1.08 2 1.33 1.33 0 0 1 -1 1.12c-4.87-1.28-8.06 3.35-12.52 3.59z" fill="#bbdaf0"/><path d="m217.36 450.32c1-6.81-2.81-11.48-7-16a1.81 1.81 0 0 1 -.52-1.82 4.39 4.39 0 0 1 1.06-1.64 11.9 11.9 0 0 0 3-3.31 1.27 1.27 0 0 1 1.22-.38 1.5 1.5 0 0 1 .91 1.09c-.76 5.21 2.1 9.4 3.85 13.9-.93 2.64 1.29 5.87-1.51 8.17h-1z" fill="#c2d9ee"/><path d="m77.38 397.33v-1c1.14-3.45.18-7 .57-10.49a.87.87 0 0 1 1.22-.61.9.9 0 0 1 .36.32c.56 7.45 3.81 13.79 8.06 19.72a2.72 2.72 0 0 1 -2.07 1c-5.62-.33-6.97-4.55-8.14-8.94z" fill="#9bc8ea"/><path d="m268.36 450.32h-47c-.25-1.53.51-2.29 1.94-2.54 14.3.45 28.62-.16 42.92.32a4.73 4.73 0 0 1 1.72.64 1.15 1.15 0 0 1 .42 1.58z" fill="#bfdbf0"/><path d="m222.48 448.37-1.12 2h-3c1.31-2.54-1.49-5.58 1-8 1.69.32 2.64 1.56 3.52 2.88a3.65 3.65 0 0 1 .29 2 2.56 2.56 0 0 1 -.69 1.12z" fill="#c2d9ee"/><path d="m77.38 397.33c2.23 3.1 2.56 8.09 8 8 .77 1.14 3.2-.43 3.19 2a.75.75 0 0 1 -1.19.06c-4.76 1.14-6.83-3-10-5v-5z" fill="#d4e8f5"/><path d="m78.39 385.34c-.55 3.64 1.13 7.49-1 11v-12q1.37-.34 1 1z" fill="#b0d4ed"/><path d="m268.36 450.32q0-.49 0-1c3.16-2.08 6.56-1.76 10-1v2z" fill="#a2cae7"/><path d="m77.38 379.33a6.84 6.84 0 0 0 3-3 .81.81 0 0 1 1.18-.09 2.4 2.4 0 0 1 .28 2 17.59 17.59 0 0 1 -1.84 2.76c-.82.84-.77 2.71-2.66 2.3v-4z" fill="#d7eaf6"/><path d="m77.38 383.33 2-3c1.36 1.33 1.27 2.86.58 4.46l-.57.58h-1l-1-1q-.01-.54-.01-1.04z" fill="#acd3ed"/><path d="m377.33 366.31h22c1-.36 1.42.25 1.81 1a5.74 5.74 0 0 1 .38 1.52c.56 4.45-2.8 7.68-3.66 11.69-2.8 3-6.77 2.58-10.23 3-6 .69-11.53 3.16-16.91 5.22s-7.47 8.6-8.63 14.34c-2 9.67 1.6 18.22 11.79 18.24a7.65 7.65 0 0 1 4.72 2.4 36.5 36.5 0 0 0 2.8 3.73 8.56 8.56 0 0 1 .76 1 10.82 10.82 0 0 0 2.78 3.28 4.12 4.12 0 0 1 1.7 2c-.53 1.95-2 3.24-3.28 4.64a4.17 4.17 0 0 1 -2.2.93 17.72 17.72 0 0 0 -7.78 1.4 26.06 26.06 0 0 1 -12.17 2.16 53.42 53.42 0 0 0 -17.72 2.14c-4.39 1.28-9.45 2.34-13.67-1.33-.17-.63-.43-1.44 0-1.89 4.35-4.71 2.09-9.25-.26-13.8a5.61 5.61 0 0 1 .21-3.89c1.68-3.52 1-6.71-1-9.84s-2.23-6.21-.19-9.33c1.62-2.46 1.49-5 .59-7.59s-1.16-5 1.07-6.86c2.78-2.35 3-4.89 1.15-7.87a8.81 8.81 0 0 1 -1.27-3.73c0-2-.36-4 1.15-5.67 10.87 1.33 21.8.67 32.68.41 3.53-.09 6.35-3.85 10.07-4.75a5.1 5.1 0 0 1 1.54-.23c1.91 0 3.61 1.81 5.88.61-1.09-1.27-2.91-.59-3.9-1.68a1.1 1.1 0 0 1 -.32-.83.53.53 0 0 1 .11-.42z" fill="#c4ddf3"/><path d="m193.37 361.33c1.94.84 3.74 1.82 4.51 4a3 3 0 0 0 3.39 2l-.11 1.07c-3.63 4.32-4 8.81-1.14 13.77 1.45 2.49.91 5.15-.79 7.53a6.35 6.35 0 0 0 -.54 7.09c2.73 5 1.8 10 .23 15-3.18 2.48-6.75.8-10 .63-8.75-.47-17.44-1.52-25.79-4.56a62.22 62.22 0 0 1 -7.38-2.89c-6.1-3.15-7.23-5.48-5.47-12a13.6 13.6 0 0 0 .15-6.34c-1.08-5.76-4.26-10.77-5.58-16.43-.25-1.08-1.27-1.45-2.25-1.72-5.16-1.63-10.46-.52-15.68-.84a32.39 32.39 0 0 1 -5.81-.28 4.12 4.12 0 0 1 -1.51-.69 1.38 1.38 0 0 1 -.33-1.51 2.94 2.94 0 0 1 1.58-.39 14 14 0 0 1 4.82-.85c7.13-.15 14.45 1 21-3.15h41.87c1.57.11 3.27-.32 4.83.56z" fill="#9ac4e9"/><path d="m201.43 369.35c3.85 4.75 9.19 4.06 14.4 4 5.65-.07 11.3 0 16.95 0 1.94 0 4.07.51 5.41-1.61a1.27 1.27 0 0 1 1.61-.74c12 4.5 24.21 2.13 36.4 1.53 3.36-.17 6.93-1.1 10.17.83a1 1 0 0 1 -.19 1.41c-5 1.79-10.48.6-15.54 2.67-2.85 1.16-4.12 2.42-3.5 5.42a10 10 0 0 1 -.47 5.87c-1.37 3.42-.62 6.48 1.46 9.36 3 4.13 5.07 8.48 4.35 13.84-.37 2.72 1.44 5 2.26 7.54 1.38 4.18.46 5.69-4.12 7a4.78 4.78 0 0 1 -2.26-.63 54.28 54.28 0 0 1 -7.07-17.93c-1.13-5.9-4.58-8.92-10.06-10.28a57.62 57.62 0 0 1 -12.09-4.63c-6.45-3.25-11.67-1.49-15 4.87-2.34 4.41-4.22 8.93-4.34 14.14-.13 5.38-2.61 6.92-7.92 5.77-2.45-.53-4.76-1.5-7.19-2.07-3-1.55-3.92-4.15-2.75-7.09a8.2 8.2 0 0 0 -.61-7.59c-2.1-3.71-2.86-7.36-.17-11.19a4.4 4.4 0 0 0 .41-4.76c-3.4-5.3-1.89-10.49-.14-15.73z" fill="#c4ddf3"/><path d="m286.35 374.35v-1c7.14 0 14.27.13 21.41 0 3.55-.08 6.62.38 8.48 3.8.69 1.28 1.85 1.21 3 1.17a1.82 1.82 0 0 1 .6 1.89 3.77 3.77 0 0 1 -.7 1.18c-3.21 2.06-4.58 4.72-2.7 8.43.89 2.38 1.77 4.77-.29 7-1.71 1-3.22 2.3-5.06 3.06-2.76.37-4.62-1.62-6.81-2.67-8.59-4.14-13.5-2.61-18 5.79-.94 1.75-1.63 3.72-4.05 3.94-4.78-3.09-4.44-5.68-1.61-10.34 3.12-5.13 3.31-11.7 6.6-17 .78-1.37-1.56-3.31-.87-5.25z" fill="#c4ddf3"/><path d="m201.43 369.35c.11 1.3 1.78 2.6.86 3.71-3.57 4.3-1.18 8 .68 11.93.87 1.84 1.19 4.1-.42 5.64-3.07 2.95-2.34 5.76-.54 9s4 6 .84 9.94c-1.53 1.94.68 4.23 2.54 5.74a1.56 1.56 0 0 1 .46 1.24 1.67 1.67 0 0 1 -1.45 1.27c-1.25-.07-2-1-2.81-1.74-1.37-1.45-2.72-2.92-3-5 .82-5.58 1.31-11.07-2-16.2a3.42 3.42 0 0 1 .45-4.22c4.33-3.61 2.45-7.19.5-11.07-2.47-4.9-1.38-7.84 3.69-11.11a4.7 4.7 0 0 0 .2.87z" fill="#c2d9ee"/><path d="m319.32 380.31q0-1-.06-2.07a6.45 6.45 0 0 1 2-4c1.21-.59 2.65-.27 3.63-1.89 1.83-3 1.66.59 2.51 1a1.4 1.4 0 0 1 .27 1.33c-.67 1.32-2.3 3.5-2.67 3.32-3.16-1.89-3.37 2.74-5.68 2.31z" fill="#99c3e5"/><path d="m486.26 397.31.08 1c-3.41 7.27-7.16 14.2-16 16-4.57 2.54-8.31 6.49-14.37 6.28-3.31-.12-6.52 2.36-9.74 3.62-6.66 2.62-13.94 3.42-20.24 6.43-5 2.39-11 1.18-15.29 5.21a1.37 1.37 0 0 1 -.89.38c-8.44-.41-16 4.27-24.4 4.16a1.22 1.22 0 0 1 -.07-1.3 4.45 4.45 0 0 1 1.14-.79c3-1.1 6.09-1.88 8.85-3.55a5 5 0 0 1 2.68-.18c1.86.53 3.73.93 5.64.18.4-.18.81-.34 1.22-.5 2.34-.87 4.81-1.4 6.93-2.8 5.35-1.82 10.68-3.72 16.1-5.31 3.94-1.65 8.35-1.66 12.24-3.49 1.41-.48 2.9-.65 4.3-1.2 4.67-1.36 9.09-3.55 14-4.1 1.47-.23 3-.27 4-1.68a10.52 10.52 0 0 1 3.49-2.8c1.33-.66 2.69-1.26 4-2l.59-.27a12.93 12.93 0 0 1 1.23-.46 6.57 6.57 0 0 0 4.72-4.13c1-1.93 2.23-3.74 3.23-5.68a6.56 6.56 0 0 1 1.29-1.43c1.24-.8 2-2.17 3.32-2.86 1.01-.2 1.48.54 1.95 1.27z" fill="#9fcae9"/><path d="m330.34 442.3c3.73 4.41 8.66 2 12.76 1.48 2.23-.27 5-2 7.41-1.86 10.82.51 21.1-3.12 31.76-3.6a1.34 1.34 0 0 1 .08 2c-5.26-1.19-8.9 4-14 3.54a34.09 34.09 0 0 0 -3.43.39c-6 .12-11.86.27-17.89 1.93-10 2.76-20.43.76-30.67 1.13q0-.48 0-1a4.92 4.92 0 0 1 2-1.09 12.45 12.45 0 0 1 3.44-.19c3.2.22 6.3.09 8.54-2.73z" fill="#bedbf1"/><path d="m470.29 414.29c7.89-2.76 11.79-9.54 16-16l2-3c-.47 8.04-9.77 17.84-18 19z" fill="#dfeff9"/><path d="m382.35 440.31q0-1-.08-2l.88-1a3 3 0 0 1 2.19 2.29q0 .39 0 .78c-1 1.18-1.99.25-2.99-.07z" fill="#9cc8e9"/><path d="m214.33 448.37-4.92-.11c-1.14-2.24-3.24-2-5.22-2-9.63 0-19.25 0-28.88 0-3.8 0-7.57-.39-11-2.35-1.87-1.08-3.89-.65-5.84-.65-6.45 0-12.9.17-19.12-2a4.75 4.75 0 0 1 0-.9c-.78-1-2-.38-2.92-.8a1.32 1.32 0 0 1 -.33-1.2l.44-.52a4.08 4.08 0 0 1 1.31-.48 6.63 6.63 0 0 1 2.15.11c2.17.51 4.21 1.45 6.37 2 5 .87 10 .17 14.93.56a7.86 7.86 0 0 1 1.51.28c2.71 1.13 5.75 1.47 8.15 3.35l.39.63c1.49 1.6 3.43.93 5.18.94 9.46.06 18.92-.06 28.38.08 3.36.1 6.96-.06 9.42 3.06z" fill="#a2c8e4"/><path d="m136.36 439.31c1.11.06 2.34-.18 3 1.11l-5.45-.08c-8-.1-10.32-3.2-9.37-11.28.59-5 3.94-9.44 2.85-14.73-1.72-2.8-4.14-3.7-7.46-3.59-7.39.25-14.8.12-22.21 0-1.39 0-3.56.92-3.63-1.88a1.87 1.87 0 0 1 1.41-1c9.39.21 18.78-.08 28.18.15a7.36 7.36 0 0 1 4.12 1.55c3.5 3 3.1 6.94 2.53 10.91a11.72 11.72 0 0 1 -1.87 3.23c-1 1.32-.85 2.93-1.11 4.44a8.11 8.11 0 0 0 0 5c.25 2.23 1.73 3.37 3.64 4.13.41.15.81.33 1.21.49 1.33.57 3.04.29 4.16 1.55z" fill="#a1cbe9"/><path d="m109.38 362.34q0 .48 0 1c-2.81 3.44-7 3.46-10.83 4.5a11.3 11.3 0 0 1 -1.31.35c-2.19.09-4.22.92-6.32 1.44l-.58-.31c.11-1 .44-2.38 1.36-2.41 6.3-.18 11.38-4.68 17.68-4.57z" fill="#dfeff9"/><path d="m81.41 376.34h-1c3.09-2.66 4.84-7.19 9.91-7.06l.09.08a1.18 1.18 0 0 1 0 1.29c-3.12 1.69-4.66 5.92-9 5.69z" fill="#dfeff9"/><path d="m162.37 441.33c-5.66-.53-11.44 1.19-17-1-3.78-2.12-5.36-5.27-5.55-9.67-.23-5.46 1.17-7.81 6.47-8.23a7.82 7.82 0 0 0 4.91-1.92c2.2-2 4.66-2.42 7.29-.89 1.4.82 2.81 1.18 4.09 0 3.28-3.07 6.33-1.71 9.39.34a11.67 11.67 0 0 1 1.16.86c3.32 2.12 5.63 4.91 5.9 9 .16.42.3.85.44 1.28 2.33 4.23 3.41 1.31 4.62-.81a15 15 0 0 1 .63-2.59 3 3 0 0 1 .85-1c5.16-2.07 3.35 3.35 5.21 4.84a12.81 12.81 0 0 1 .6 1.17c1 1 .67 5.37 3.56 1.34.7-.63 1.4-1.23 2.43-.72 4.62.84 6.1 3 5.32 7.37-.5 2.75-2.67 3.35-4.36 2.49-3.42-1.73-6.44-.27-9.68 0-3.73.36-7.51.09-11.27.09a3.81 3.81 0 0 1 -1-3.69c.86-4.4-1.35-7.64-3.85-10.82-2.66-3.39-5.68-4.95-9.84-2.4-1.76 1.08-3.81.9-5.82.71a3.85 3.85 0 0 0 -3.92 1.62c-1 1.62.08 2.77.93 4 2.13 3.09 3.74 6.71 8.13 7.31.44.1.55.8.36 1.32z" fill="#86b0d9"/><path d="m162.37 441.33c-6.35-.17-7.54-6.27-11.08-9.67-1.29-1.24-.46-2.52.27-3.57 1.29-1.88 3.13-3.19 5.45-2.34a5.78 5.78 0 0 0 5.65-.59c3.89-2.71 6.65-1.62 9.84 1.61 4.74 4.8 6.15 10.18 4.87 16.55-2 .33-3.89 1.35-6 1-2.11-2.49-5.33-2-8-3h-1z" fill="#85afd8"/><path d="m197.36 433.32-2 1c-2.55 1.55-3.49-.94-5-2-.72-1.63-1.28-3.27-.31-5 3.64-2.47.25-3.76-.93-5.42a2.68 2.68 0 0 1 4.18-1.11c4.38 3.37 11.37 3.91 12.31 11.07 1.71 1.62 2.56-.85 3.92-.84.7.18 1.36.38.81 1.32q0 1 0 2c-.75 1.27-2.6 1.47-3 3.17-.22 1.05-.34 2.59-2 2.06a3.08 3.08 0 0 1 -2-2.65c-.14-1 .06-2.13-.4-2.9-1.16-1.94-1-5.57-3.05-5.75-2.54-.27-.89 3.64-2.53 5.05z" fill="#89b4de"/><path d="m401.38 367.12c7.31-4 14-.56 20.71 1.85 1.86.67 3 .92 4.25-.62 9.29-5.64 19.59-3.82 29.62-4 .82 0 2-.19 2.42.26 6.29 6.76 15.85 5.8 23.24 10 4.66 2.62 7.84 6.08 7.71 11.78-.67.85-1.29 1.87-2.52.71-1.31-3.78-3.67-6.27-7.92-6.44a1.89 1.89 0 0 1 -1-.21c-4.67-3.26-9.55-5-15.53-4.38-2.88.28-5.39-2.73-5.82-6-.39-3-2.06-3.3-4.46-3.4-8.38-.33-16.56-.33-23.86 5-3.61 2.65-7.71 2.64-11.55-.43-3.6-2.87-8.12-.92-12.12-1.84a4.23 4.23 0 0 1 -3.17-2.28z" fill="#9dc7ea"/><path d="m487.33 387.33 2-1-3.07 11-1.93-1c-1.3-1.4-.65-2.8 0-4.22 1.01-1.56.75-3.97 3-4.78z" fill="#9ec9eb"/><path d="m286.35 374.35c3.08 4 3.52 7.19-.61 11.51-3.69 3.86-.8 11.24-6.22 15.29-1 .72.77 4 2.79 5.21a7.41 7.41 0 0 1 1.9 1.83 13.3 13.3 0 0 1 2 3.61 8.38 8.38 0 0 1 .17 3.55c-1.55 3.73.29 6.86 1.83 10 .64 1.89 1.42 3.76.89 5.82-1.83 3.08-4.49 5.65-5.69 9.13 1 4.37-3.12 5.47-5 8-3.19 1.79-6.67.68-10 1h-.95a14.21 14.21 0 0 1 -1.72-1.2 13.9 13.9 0 0 1 -2.31-5.15c-.71-3.61 2.68-6.75 1.19-10.46a9.58 9.58 0 0 1 -.27-1.47c-.15-2.2.35-4.08 2.56-5.1 1.13-.51 2.5.42 3.55-.57 4.27-.07 4.75-2.37 3.13-5.6-1.8-3.59-3.08-7-2.3-11.31.71-3.85-2.22-6.84-4.31-9.74-2.58-3.57-3.57-7.06-1.22-11 1.18-2 .2-3.83-.2-5.75-.58-2.78.13-4.64 3.3-5.56a48.72 48.72 0 0 1 17.49-2.04z" fill="#90bbe4"/><path d="m283.36 440.33c-1.16-4.56 2.3-6.56 5-9 3.64-3.1 9-2.86 12.71 1 2.83 3 4.66 6.77 7.09 10.1.81 1.11.43 2.19-.79 2.9-8.13 5-17.13 2.22-26.49 3.18 2.23-2.72 5.2-4.82 2.48-8.18z" fill="#c4ddf3"/><path d="m307.35 445.32c1.27-2.05-.67-2.83-1.54-4.1-1.77-2.57-3-5.67-5.17-7.76-3.41-3.25-7.7-4.33-12.3-2.14l-1-6c6.73.16 13.11 1.12 17.19 7.44 2.92 4.53 6.37 8.46 11.75 10.17a1.09 1.09 0 0 1 .11 1.38 24 24 0 0 0 -9.04 1.01z" fill="#c0daf2"/><path d="m316.34 444.32q0-.5 0-1a1.35 1.35 0 0 1 -.16-1.85 1.39 1.39 0 0 1 1.27-.3 3.26 3.26 0 0 1 .75 1.14c.28 1.31.88 2.62.16 4h-2q-.01-1-.02-1.99z" fill="#aacbeb"/><path d="m193.37 361.33h-48c-4.79 1.45-9.61 2.26-14.54.58a1.12 1.12 0 0 1 -.45-1.58q28.9 0 57.81 0c1.75.04 3.7-.63 5.18 1z" fill="#aed2ef"/><path d="m130.39 360.34q0 .49 0 1a2.61 2.61 0 0 1 -1 .79c-1.62.2-2.3 1.58-3.26 2.61a8.84 8.84 0 0 1 -1.36.08c-1.14-.14-2.37.37-3.4-.5.05-2.62 2.32-3 4-4z" fill="#c4dff4"/><path d="m222.3 445.44-3-3.11a22.27 22.27 0 0 1 -4.89-15.13 4.86 4.86 0 0 1 -1.91-1.84 2.21 2.21 0 0 1 -.36-2 2 2 0 0 1 1.38-.57c5.86 2.95 11.3 17.05 8.78 22.65z" fill="#adcceb"/><path d="m213.38 425.3 1.06 1.91-.09 1.11c-1 1-2.33 1.67-3 3l-1 1-1-1c-1.52-1.53-1.31-3.33-.83-5.16a2.55 2.55 0 0 1 .88-1.06c1.34.06 2.6 1.1 3.98.2z" fill="#c2d9ee"/><path d="m211.37 431.33a2.8 2.8 0 0 1 3-3c-.03 1.97-1.74 2.27-3 3z" fill="#c2d9ee"/><path d="m95.38 408.33-1.1.18v-.06a27.19 27.19 0 0 1 -6.94-3.12c-6.22-5.25-9.24-11.77-8-20 .93-2.46 1.86-4.93 2.6-7.46 2.44-3.34 5.8-5.59 9.2-7.8 1.49-2.23 4.41-1.2 6.21-2.73 3.86-.15 7.65-2.3 11.58-.44a1.57 1.57 0 0 1 .57 1.41c-7.85 2.88-11.12 9-11.05 16.86.06 6.33 2.38 8.86 8.6 10.28 7 1.59 11.25 5.66 12.6 12.73a1.69 1.69 0 0 1 -1.49.63c-7.57-.29-15.16.6-22.78-.48z" fill="#9ac4e9"/><path d="m87.38 405.32c2.57.46 5.45.24 6.94 3.12-2.4 1.82-4.12.18-5.91-1.15l-3.06-2z" fill="#9dc9eb"/><path d="m266.42 448.3 1 1h-39.14c-2 0-4 .18-5.76-1q0-.52 0-1a4.34 4.34 0 0 1 3.57-.9c11.08.75 22.17.14 33.26.35 2.42.07 4.97-.2 7.07 1.55z" fill="#b7d7f0"/><path d="m109.39 368.32c-3.86-2.1-8-.43-12-1l12-4h2c.54 1.92 2.58 2.95 2.95 5a3.37 3.37 0 0 1 -4.95 0z" fill="#bad9f2"/><path d="m114.39 367.35c-3.39.46-4.29-1-3-4a24.28 24.28 0 0 0 9 1 .53.53 0 0 1 .32.66.47.47 0 0 1 -.33.33h-1c-1.2 1.19-2.87 1.32-4.33 1.95z" fill="#c3ddf3"/><path d="m120.38 365.34q0-.5 0-1h1 4a.53.53 0 0 1 .33.67.47.47 0 0 1 -.33.33z" fill="#aed2ef"/><path d="m225.36 447.32h-2.88l-.19-1.88c.89-7.34-3.84-13-5.94-19.43a4.35 4.35 0 0 0 -3.87-2.73 1.23 1.23 0 0 1 -1.42.33c-1.47-.89-2.49-2-2-3.92 4.51-2.24 9.91.49 11.35 6.17s3.95 11.13 5.85 16.72c.31 1.7.5 3.42-.9 4.74z" fill="#bad6f0"/><path d="m91.41 370.36c-2.78 2.92-6.78 4.45-9 8a.71.71 0 0 1 -1.07 0l.1-1.94c3.44-1.33 4.9-5.64 9-6a.56.56 0 0 1 .97-.06z" fill="#acd3ed"/><path d="m81.31 378.29h1.07c.74 3.08-1.58 4.85-3 7q0-2.52 0-5z" fill="#9bc8ea"/><path d="m319.32 380.31c1.86-3.1 6-3.07 8-6 2.24-1 3.49-.48 3.48 2.17 0 1-.23 2 .49 2.86 0 1.83 1.55 2.87 2.19 4.38 1.12 2.67 1.63 5.11-1.54 6.8-2.81 1.5-2.75 3.7-1.67 6.33 1.3 3.17 2 6.3-1 9.17a4.4 4.4 0 0 0 -.55 5.58c3.7 4.86 4.25 9.79 1.63 15.22a3.75 3.75 0 0 0 0 1.48l-.71.14a49.78 49.78 0 0 1 -6.43-15c-1.46-5.61-4.53-8.7-10.39-8.81-1.85-1.21-1.74-2.92-1.2-4.74a11.67 11.67 0 0 1 3.74-3.6c2.3-2.34.15-4.67 0-7-2.16-4.55 1.43-6.56 4-9z" fill="#90bbe4"/><path d="m386.39 433.34a2.14 2.14 0 0 1 -2-1c-.89-1.41-2.07-2.62-3-4s-2.07-2.61-3-4c-1.07-2-3-2.52-5-2.89-9.79-1.81-14.07-7.78-12.43-17.33.89-5.21 3.51-9.57 6.58-13.73a8 8 0 0 1 4.46-2.89c8.06-2.19 16.08-4.54 24.34-5.89a12.58 12.58 0 0 0 1.89-.62c1.84.27 2 1.62 1.91 3.07a3.12 3.12 0 0 1 -.68 1.42 258.55 258.55 0 0 0 -26.73 6.52c-6.28 2-7.32 8.29-8.73 13.66-1.08 4.12 1.13 7.71 3.9 10.8 1.39 1.55 3.28 1.39 5.07 1.65 6.85 1 13.33 7.59 14.71 14.88a.87.87 0 0 1 -1.29.35z" fill="#bdd8f1"/><path d="m398.48 381a19.43 19.43 0 0 1 -9.2 3.14c-6.16.59-11.7 3.24-17.58 4.7-7.15 1.78-12.55 16.84-9.5 23.85 2.09 4.82 4.64 8.1 10.58 7.83 2.06-.09 5.26.24 5.56 3.76-1.52-.65-3.07-1.89-4.57-1.85-11.1.36-14.59-9.11-13.31-18.93.72-5.47 3.91-9.81 6.64-14.34a5.91 5.91 0 0 1 4.12-2.64c8.2-1.38 15.77-5.51 24.28-5.48a5.38 5.38 0 0 0 1.83-.76.67.67 0 0 1 .92-.29.86.86 0 0 1 .3.64.41.41 0 0 1 -.07.37z" fill="#bfd9f1"/><path d="m318.37 446.29a6.43 6.43 0 0 1 -1-4c4.29.53 6.56-2 8.38-5.38 1.53-2.87 1.83-6.4 4.59-8.61 5.14 7.56 5.14 7.56 0 14-.33 3.91-2.75 4.51-6.1 4.06a45 45 0 0 0 -5.87-.07z" fill="#90bbe4"/><path d="m398.48 381a.91.91 0 0 0 -.1-.72c-1.41-2.12-.1-4 1.09-5.31 1.93-2.19 1.93-4.29.88-6.7q0-.44 0-.87l1-.33 2.81 1.27c3 2.49 4 5.41 1.82 9-2 1.7-2.29 4.23-3.11 6.51-1 1.21-2.05 1.52-3.33.46-.16-1.14-.08-2.38-1.06-3.31z" fill="#c2d9ee"/><path d="m377.34 367.32a17.58 17.58 0 0 1 2.46 0c1.36.21 3.05-.74 4 .9a2.23 2.23 0 0 1 -.63 1.66 3.51 3.51 0 0 1 -4.43 1 16.07 16.07 0 0 1 -2.41-1.6c-.59-1.15.49-1.44 1-2z" fill="#9ec8eb"/><path d="m386.39 433.34a3 3 0 0 0 .92-.32 3.5 3.5 0 0 1 1.28-.45 1.92 1.92 0 0 1 2 1.42c-.25 1.65-1.58 2.53-2.58 3.66a12 12 0 0 1 -1.9 1.62 1.47 1.47 0 0 0 -.82.33 2.18 2.18 0 0 1 -2.19-2.29z" fill="#c2d9ee" opacity=".5"/><path d="m400.35 368.32c2.09 2.48 2.2 4.8-.36 7.12a5.78 5.78 0 0 0 -1.6 4.89h-1c-.98-4.48 4.17-7.45 2.96-12.01z" fill="#bdd8f1"/><path d="m398.09 368.46c-3.67 1.08-5.87 1.33-8.29-.92 2.69-.17 4.84-.6 8.29.92z" fill="#a2cbed"/><path d="m331.33 379.35c-1.92-1.21.28-5.66-4-5q0-.5 0-1l4 .07q0 2.95 0 5.93z" fill="#b6d4ed"/><path d="m381.34 428.33c1.6.88 2.92 2 3 4-1.6-.88-2.92-1.98-3-4z" fill="#bfd9f1"/><path d="m378.34 424.33c1.6.88 2.92 2 3 4-1.6-.88-2.92-1.98-3-4z" fill="#bfd9f1"/><path d="m377.34 367.33-1 2h-1c-1.34-2.66.94-1.71 2-2z" fill="#bbdbf3"/><path d="m126.37 366.34c5.66.46 11.43-1.05 17 1 3.79 6.84 6 14.27 7.82 21.8.51 2.11-.89 4.14-1.69 6.13-2.39 6-2 7 3.85 9.23a199.64 199.64 0 0 0 28.6 8.42c3.25.12 6.5 0 9.74.08 3 0 5.65 1.36 8.37 2.41 1.68.66 2.8 2.38 4.78 2.48 2.42.75 3.63 2.24 3 4.86-2.5 2.85-5.2 1.07-7.1-.38-4.76-3.64-10-4.16-15.56-3.46-7.51.93-13.77-3.22-20.59-5.08-4.75-1.3-9.58-2.1-14.23-4.09-6-2.56-9.26-.36-11.55 6.38a22.51 22.51 0 0 0 -1.15 8.36 50.43 50.43 0 0 1 -1.32 13.83 2 2 0 0 1 -2.19.19 3 3 0 0 1 -1.71-3.32c1.52-5.93-1-11.86.2-17.77a4.89 4.89 0 0 0 -1.54-4.94 5.43 5.43 0 0 1 -2.11-3.8c2.08-3.29 6.59-3.15 8.82-6.44s6.6-5.47 6.94-10.24c1.86-2.95 1.46-6 .25-9-1.35-3.35-3-6.54-4.25-10-1.38-3.77-5.35-3.77-8.77-4.4-1.98-.3-4.83 1.14-5.61-2.25z" fill="#93bee6"/><path d="m200.36 416.33c-2.94.41-5.06-2.41-8-2a24.94 24.94 0 0 0 -11 0c-10.95-3-21.91-5.89-32.52-10-2.18-.84-2.7-2.21-2.26-4.24a4.61 4.61 0 0 1 .54-1.39c4.73-7.87 2.11-15.38-1-22.93-1.13-2.73-1.84-5.64-2.74-8.47 1.24.08 2.5.48 2.7 1.77 1 6.58 5 12.2 6.07 18.77.45 2.67-.43 4.9-1.21 7.21-1.14 3.39-.14 5.94 3 7.45 8.8 4.29 17.91 7.44 27.84 7.84 4.76.19 9.51.79 14.24 1.36 1.06.13 1.92.4 2.56-.68l3.73 4.51c-.14 1.63-.98 1.39-1.95.8z" fill="#97c2e8"/><path d="m126.37 366.34c3.22 2.23 7.09.44 10.59 1.8 2.93 1.14 5 2.41 5.45 5.62.54 3.89 3.71 6.68 4.4 10.49.52 2.86 1.88 5.9-1.44 8.09a2.92 2.92 0 0 1 -.85-1.12c-.45-4.47-2.36-8.49-4-12.61-.84-2.17-1.73-3.4-4.26-1.67-3.19 2.17-5.89 1.43-7.69-2.08-.57-2.55-1.8-4.15-4.77-3.9a4.84 4.84 0 0 1 -4.65-2.33c-.41-1.19.37-1.74 1.2-2.27h6z" fill="#8ebae3"/><path d="m125.37 365.33q0-.5 0-1h1c2.21-2.21 4.65.16 6.41-.38 1.21.09.43-1.1.59-.45 0 .11-.08.13-.31.15-1.84.2-3.72.48-3.68-2.31h16c-5.55 6.95-13.28 2.95-20.01 3.99z" fill="#a4cbec"/><path d="m120.39 366.34-1 2c-.49 1.47-1.7 1.88-3 2.12a20.86 20.86 0 0 1 -5.43-.09 3.8 3.8 0 0 1 -1.41-.65 1 1 0 0 1 -.13-1.38c1.68-.25 3.6.69 5-1 1.54-.95 3-2.27 5-1h1z" fill="#98c3e5"/><path d="m119.38 366.33-5 1c1-2.38 3.08-2 5-2q0 .51 0 1z" fill="#bad9f2"/><path d="m225.36 442.32a54.53 54.53 0 0 1 -6-15.87c-1-4.71-5.76-7.6-10-6.06-2.52-.33-3.13-2.36-3.82-4.31q-.06-.39-.15-.78c2.58-.88 4.69.93 7.06 1.31 4.45.71 6.43-.57 6.3-5.17-.19-6.82 2.6-12.64 6.62-17.66 2.54-3.17 6.72-5.3 11-3.22 6.69 3.28 13.91 5.1 20.69 8.07 2.14.94 3.72 2.38 4.16 4.6 1.49 7.67 5.25 14.58 7.19 22.09-2.94 1.18-3.47-1.22-4-3-1.2-4.34-3.58-8.26-4.43-12.69-1.19-6.22-5.61-8.86-11.18-9.78a27.25 27.25 0 0 1 -9.25-3.41c-6.23-3.54-10.59-2.47-14.35 3.58a23.94 23.94 0 0 0 -3.38 16.29c.55 4 4.18 6.87 9.22 7.77 6.39 1.15 10.86 5.6 11.7 11.65-2.82 1.75-3.82-.85-5-2.33-2.93-3.73-6.26-5.86-11.33-5.74-3.22.08-3.29 1.17-2.65 3.49a51.78 51.78 0 0 0 1.9 5.62c.77 1.88 1.34 3.8-.3 5.55z" fill="#c0daf2"/><path d="m242.36 436.32c-2.39-5.85-5.41-10.64-12.8-11.12-6.82-.44-10.88-8-9-16.56.87-4 2-7.92 5-11.22 3.71-4.16 7.7-5.67 12.6-3.09a42.74 42.74 0 0 0 12.8 4.83c5.31.91 8.79 4.05 10.16 9.58 1.14 4.6 2.87 9.07 4.4 13.57.47 1.4.94 2.92 2.85 3h2c-.75 1.12-1.92 1-3 1-3.94 1.84-3.76-1.71-4.81-3.66a8.73 8.73 0 0 1 -.77-1.24 7.14 7.14 0 0 1 -.46-1.36c-1-5.27-2.48-10.36-5.62-14.82-2.83-2.08-5.74-3.53-9.51-3.37-2.82.12-5.14-2-7.64-3.25-5.83-2.89-8-2.49-12 2.13-.23.38-.49.75-.75 1.11a9.31 9.31 0 0 0 -1.7 4.23 10.2 10.2 0 0 1 -.46 1.3c-2.81 8.75.61 14.6 9.49 15.66 4.55.55 7.08 3.46 9.19 6.89a37.13 37.13 0 0 0 6.1 7.21c1.87 1.8 3.9 2.49 6.29 1 2.71-1.43 5.64-2.47 7.06-5.64.58-1.29 1.82-2.42 3.55-1.2q0 .5 0 1c-2.92 11.89-13 14-22.69 4.69z" fill="#bcd7f0"/><path d="m283.35 408.33a2.17 2.17 0 0 1 -1-2c3.4-1.93 3.3-6.16 6-8.8 3.92-3.85 8-4.91 12.86-3.09 3.51 1.32 6.8 3.22 10.19 4.85l.38.61a9.67 9.67 0 0 1 -.44 1.36c-1.58 2.36-3.5 1.17-5.27.41s-3.34-2.15-5.18-3c-4.37-1.9-7.25-1-10.54 2.57-2.29 2.47-2.69 6.76-7 7.09z" fill="#c0daf2"/><path d="m319.33 380.31c-1.53 2.92-5.25 4.87-4 9-2.77-4.8-.01-7.17 4-9z" fill="#99c3e5"/><path d="m315.37 396.34a6.64 6.64 0 0 1 -3 3c-.33.47-.67.49-1 0 .87-1.62 1.96-2.95 4-3z" fill="#c0daf2"/><path d="m205.53 416.08 3.82 4.31 2.3 2.84a2.25 2.25 0 0 1 -2 .87 2.58 2.58 0 0 1 -2.21-1.86 5.57 5.57 0 0 0 -2.94-4q-.58-.2-.47-.54a.43.43 0 0 1 .28-.38z" fill="#c2d9ee"/><path d="m204.29 417.36q.11.46.2.93a5.24 5.24 0 0 1 -4.13-2l1.91-.76z" fill="#97c1e7"/><path d="m402.44 383.19c-.09-2.52-.14-5 2.82-6.15.81.57 1.42 1.72 2.41 1.68 9.57-.35 17.3 5.45 26.07 7.8 3.68 1 5.53.37 6.87-3.18a35.39 35.39 0 0 1 6-10.88c4.11-4.74 9.32-3.79 11.87 2-2.37 2-6 .27-8.19 2.92-3.82 4.67-5.94 10-5.37 16 .46 4.88 3.64 7.62 9.45 8.6s9.47 4.29 10.56 10.2c-1.61 3.25-3.14 1.11-4.52-.16-4.72-4.39-7.66-5.62-14.84-5.87.32 3.65 1 7.23 1.34 10.85.23 2.46-.26 4.24-2.56 5.33-1.05 1.46-2.62.85-4 1 4.56-9.86-1.24-18.21-4.19-26.87-1.13-3.31-5-4.39-8.1-5.2a74.32 74.32 0 0 1 -12.46-4.77c-3.82-1.79-8.11-1.24-12.11-2.2a4.48 4.48 0 0 1 -1.05-1.1z" fill="#98c2e8"/><path d="m481.33 399.33-1 1c-2.45-2.39-2.05-6.35-4.87-8.72-1.61 1.76-4.4 2.33-5 5.14-.38.87-.79 1.71-1.9 1.81-1.31-.68-1.79-2.06-2.64-3.13-.73-2.14-.2-4.52-1.23-6.6-.57-1.13-1.72-1.94-2.74-1.2-1.62 1.18.74 1.61.83 2.55.86 3.48-2 7.16.6 10.53 2.41 3.47 5.6 6.43 6.94 10.6-3.25 1.6-5.1-.49-6.5-2.8a14.92 14.92 0 0 0 -9.37-6.8c-3.91-1.11-8.67-2.24-9-7.34-.44-5.91.46-11.78 5.67-15.76 3.39-2.59 7.15-1.76 10.32.26a26.53 26.53 0 0 0 10.56 3.96c4.81.69 7.95 2.87 9.16 7.76.39 1.56 1.43 3 1.85 4.61a3.91 3.91 0 0 1 -1.68 4.13z" fill="#8eb9e3"/><path d="m482.33 395.33c-1.18-2.12-2.58-4.08-3.12-6.57-1.17-5.44-6.51-3.89-9.92-5.17-2.56-1-5.17-1.41-7.53-3.17-5-3.75-9.44-2.68-12.85 2.65-5.25 8.21-3.26 14.5 5.71 17.42 4.26 1.38 7.77 3.45 10.11 7.44 1.18 2 2.85 3.74 5.6 3.41a5.52 5.52 0 0 1 -4 2c-1.16.66-1.5-.33-2-1-2.21-5.38-5.32-9-12-9.32-5.24-.21-8.95-5.25-9-10.78a24.62 24.62 0 0 1 6.47-16.58c2.29-2.63 5.64-.85 8.48-1.32 6 2.84 13 2 18.77 5.56 2.24 1.35 4.08 2.77 5.14 5.16.48 3.41 3.67 6.81.14 10.27z" fill="#93bee6"/><path d="m464.33 412.33 2 1-3 3c-1.16 1-2.86.94-4 2l-15 4c3-3.58.49-7.53.69-11.29a12.58 12.58 0 0 0 -.78-4.34c-1-3 .43-3.1 2.68-2.33 5.57 1.89 12.38 1.42 15.38 8.23.37.8 1.44.57 2.03-.27z" fill="#9ac4e9"/><path d="m403.25 383.37c6.9-.24 13.15 1.71 19.28 4.89 3.39 1.75 7.54 1.84 11 3.9 1.29.77 3 1.2 3.42 2.62 2.15 7.2 6.39 13.76 6.45 21.62a8.27 8.27 0 0 1 -3.05 6.93c-3.39 3.16-8.27 1.85-12 4a1.6 1.6 0 0 1 -.46-1.31 2.81 2.81 0 0 1 .77-1.2c2.3-1.78 5.49-1.12 7.81-2.84 3.4-4.48 4.25-9.17 1.38-14.28a21.22 21.22 0 0 1 -2.11-5.57 7.86 7.86 0 0 0 -5.51-5.85 78.68 78.68 0 0 1 -12.23-5.61c-4.24-2.42-9.14-1.25-13.55-2.69a3.74 3.74 0 0 1 -1.64-1.6 3.2 3.2 0 0 1 .44-3.01z" fill="#94bfe6"/><path d="m428.33 426.32q0 .5 0 1c-5.75 1.37-11.07 4.23-17 5-2.18 1.37-5.18.8-7 3-2 1.26-4-.42-6 0h-3c-2.51 1.35-5 2.77-8 2l3-3a14.42 14.42 0 0 1 2.08-2.69 8.16 8.16 0 0 1 1.18-.87c4.59-2.52 10.21-1.63 14.71-4.46 5-.62 10-.08 14.91-1.19a5.3 5.3 0 0 1 5.12 1.21z" fill="#92bee6"/><path d="m470.33 411.32c-3.51-2.66-4.87-7-8-10 2-3.67 2.94-7.33 0-11l-3.91-2.18c2.06-1.35 3.53-3.09 5.77-2.17s1.94 3.08 2.3 5a14.64 14.64 0 0 1 -.16 4.32c1 .77 1 2.24 2 3a2.06 2.06 0 0 0 1-2 1 1 0 0 1 1.29.05 2.83 2.83 0 0 1 .21 2.76c-1.06 1.17-2 2.37-.92 4a9.82 9.82 0 0 1 .55 1.91c.2 1.77 1.37 3.27 1.47 5.07a2 2 0 0 1 -.61 1.16h-1z" fill="#8db8e2"/><path d="m470.33 396.33h-1c.1-4 5.71-3.6 5.6-8.49 2.8 4.56 5.27 8 5.4 12.5-.11 2.44-1.88 4.05-3 6-1.51 2.07-3 4.15-6 4l-2-5c1.63-.55 3.4 1.61 5-.33 1.75-2.13 4.14-4 2.73-7.28-1.59-3.73-4.32-1.73-6.73-1.4z" fill="#8db7df"/><path d="m482.33 395.33c1.79-3.55-1.1-6.62-1-10 4.26.66 4.27 3.75 4 7a6.69 6.69 0 0 0 -1 4c-.72 1.27-1 3-3 3a6.76 6.76 0 0 0 1-4z" fill="#98c2e8"/><path d="m387.3 437.32 8-2c-2.33 3-6 2.9-9.17 3.93z" fill="#9cc8e9"/><path d="m404.34 435.32c1.4-3.17 4.17-3.15 7-3-1.5 2.95-4.74 1.82-7 3z" fill="#9cc8e9"/><path d="m471.34 410.34 6-4c-.53 3.44-3.14 4.37-6 5q-.01-.51 0-1z" fill="#99c4e4"/><path d="m398.34 435.32c2-2.25 4 .72 6 0a4.53 4.53 0 0 1 -6 0z" fill="#9cc8e9"/><path d="m459.33 418.32c.76-1.81 2.29-2.08 4-2-.75 1.84-2.33 2.1-4 2z" fill="#9ec9eb"/><path d="m207.43 422.24 1.77 1.18a1.16 1.16 0 0 1 .24 1.87q0 3-.05 6c-.92 1.5-1.71 3.27-4 2a3.58 3.58 0 0 1 -.76-1.27c-.48-4.27-2.58-6.63-6.68-8.64-3.66-1.79-6.63-2.65-10.7-2-5.22.84-10.61.65-15.43-2.39a19.43 19.43 0 0 0 -8.46-2.68 37.2 37.2 0 0 1 -12.35-3.6c-5-2.43-7.86-1.23-9.64 4-1.37 4-3 8-2 12.56a11.85 11.85 0 0 1 -2 9h-1c.13-9.56-1.92-19.47 4.12-28.13 3.25-4.65 8.52-3.66 11.61-1.44 4.58 3.31 9.88 2 14.49 4.32 8.37 4.29 17.51 5.17 26.87 4.31 3.83-.35 5.69 3.79 9.13 4.59 1.61.42 3.09 2.49 4.84.32z" fill="#8eb9e3"/><path d="m172.37 421.33c-3.27-1.44-6.47-4.77-9.8.12-1 1.5-2.66.8-3.92-.29-2.72-2.36-5.29-1.71-7.28.83-1.42 1.83-2.57 2.25-4.94 1.64-3.55-.91-5.79 2.17-5.58 5.89a16.69 16.69 0 0 0 4.52 10.82l-6-2c-1.74-4.66-.34-9.42-.32-14.11 0-2.41 1.07-4.82 1.62-7.24 1.19-5.19 5.19-7.06 9.84-4.52 4.86 2.65 9.54 4.79 15.44 4.15 2.4-.29 6.61.01 6.42 4.71z" fill="#88b3dc"/><path d="m172.37 421.33c-2.23-4.47-6.41-4.87-10.16-3.53-2.63.94-3.83.68-6-.84-10.53-7.45-12.72-6.47-15.88 6-1.3 5.11-.81 10.23-1 15.36h-2c1.68-6.69-.42-13.64 1.91-20.4 2.62-7.6 6.1-9.5 13.4-5.9a23 23 0 0 0 8 2.5c4.57.47 9.14 1.37 13.15 4 4.86 3.2 10.4 2 15.56 1.65 5.4-.32 9.16 2.5 13.16 5 2.91 1.82 1.55 5.54 2.85 8.16a3 3 0 0 1 -2-2.63c-.19-3-.66-5.69-4.87-4.72-1.35.31-1.68-1.28-2.46-2.06-1.86-1.88-3.84-3.79-6.72-1.59a4.07 4.07 0 0 1 -3.31 1.87 66.79 66.79 0 0 0 -11.48-1.95 5.7 5.7 0 0 1 -2.15-.92z" fill="#8bb5df"/><path d="m163.36 441.33c2.91.34 6.62-1.43 8 3-2.73-.83-5.6-1.33-8-3z" fill="#86b1d9"/><path d="m134.37 438.32h2q0 .49 0 1c-1.68-.22-3.59.68-5-1a2.16 2.16 0 0 1 3 0z" fill="#9bc8ea"/><path d="m134.37 438.32h-3c-2-1.35-3.94-2.72-5-5a4.11 4.11 0 0 1 0-5c1.23-1.49-.18-3.5 1-5a3.46 3.46 0 0 1 2-2c.34-3.85 2.32-8-2-11l-3-1a.85.85 0 0 1 -.31-.77.48.48 0 0 1 .18-.42 3 3 0 0 1 1.23-.54 9.08 9.08 0 0 1 3.89.76c8.28 7 3.49 16.44 4.42 24.78.22 1.69-.35 3.51.59 5.19z" fill="#98c3e8"/><path d="m124.37 408.33q0 .49 0 1c-8.12 0-16.24 0-24.35 0-1.59 0-3.36.55-4.66-1h24c1.64-1.26 3.35-1.54 5.01 0z" fill="#9dc9eb"/><path d="m127.37 410.33c3.44 1.85 4.09 5.43 2 11-.27-3.74 1.05-7.77-2-11z" fill="#9bc8ea"/><path d="m126.38 433.32a15.53 15.53 0 0 1 5 5c-2.79-.55-5.28-1.39-5-5z" fill="#9bc8ea"/><path d="m127.38 423.33c-.24 1.69.67 3.6-1 5 .24-1.69-.67-3.6 1-5z" fill="#9bc8ea"/><path d="m91.41 370.36h-1q0-.49 0-1c2-1.91 4.37-2.29 7-2-1.12 2.77-4.27 1.48-6 3z" fill="#bad9f2"/><path d="m172.37 421.33h2c4.11 0 7.44 4.71 12 2l3-1c1.93-.15 3.79.36 4.32 2.29.37 1.35-1.19 2.08-2.32 2.71-2-1.06-4-2.21-6 0-.8 1-1.1 2 0 3a4.52 4.52 0 0 1 -4.13 4.29c-2 .27-2.65-1.53-2.87-3.29.25-.34.83-.48.78-1 0-.17-.48-.16-.78 0-.73-3.85-2.98-6.68-6-9z" fill="#88b3dc"/><path d="m190.37 432.32 5 2c-.22 1.45-.57 3.64-2 3.43-2.79-.39-2.22-3.45-3-5.43z" fill="#86b1d9"/><path d="m185.37 427.33c2-2.88 4-3.68 6 0-1.67 1.4-.75 3.32-1 5a4.79 4.79 0 0 1 -1.94-3.67c-.12-2.74-1.93-1.17-3.06-1.33z" fill="#86b1d9"/><path d="m178.37 430.33c.19-1 .33-2.1 1.77-1.43a1.7 1.7 0 0 1 1.07 2c-.59 1.86-1.92 0-2.84.44q0-.51 0-1.01z" fill="#89b4de"/><path d="m185.37 430.33c-3.15-1-1.56-2 0-3z" fill="#86b1d9"/><path d="m485.33 392.33c-.72-2.68-1.48-5.35-4-7-2.56-4.62-6.93-6.36-11.77-6.89-4.15-.45-7.7-2.16-11.23-4.11-4.61-5.41-8.28-5.27-12.06.62a47 47 0 0 0 -5.18 10.69c-1 2.93-2.4 4.22-5.93 2.74-5.75-2.41-11.9-3.83-17.49-6.77-3.18-1.67-6.77-1.44-10.24-1.26-2.81.15-3.06-1.15-2.17-3.31 2.06-3.18-.05-5.85-1.07-8.65 5.45.24 11.1-1.43 15.84 3.44 1.78 1.82 5.31.63 7.39-1.12 8.34-7 18.25-5.28 27.85-5.36 1.53 0 2.89 0 2.82 2.33-.18 6.48 3.66 9.21 9.74 6.77 2.25-.9 3.68-.79 5.16 1a10.19 10.19 0 0 0 8 4.1c4.42.2 6.74 3.09 6.3 7.75-1.23 1.46-.37 3.7-1.96 5.03z" fill="#9ac4e9"/><path d="m225.36 442.32c.65-4.18-2.14-7.44-3-11.24-1-4.49-.35-4 3.85-4.62 8.66-1.26 11.12 6.1 16.15 9.86 1 1.07 2.13 2.09 3.15 3.18 4.27 4.52 9.25 4.09 14 1.38 3.45-2 4.24-.43 4.8 2.43l2.1 5c-12.13 0-24.26 0-36.39 0-1.59 0-3.37.55-4.67-1q.01-2.49.01-4.99z" fill="#c4dcf3"/><path d="m311.35 399.33h1c.23 1.69-.67 3.6 1 5a2.29 2.29 0 0 1 .6 2.14 9 9 0 0 1 -10.76.65c-8.22-5.26-9.26-4.95-13.65 4.11-1 1.4-1.32 3.2-2.81 4.24a1.29 1.29 0 0 1 -1.35-.15v-4a20.37 20.37 0 0 1 1.55-5.72c4.21-8.35 9-9.45 18.3-4.14 2.46 1.41 4.92 3.57 6.17-1.16q-.05-.47-.05-.97z" fill="#b0cfed"/><path d="m285.37 415.33h1c1.3 1 1 2.74 1.7 4 1.25 2.3 2.38 4.75 5.69 4.75 5.89 0 9.84 3.32 12.87 8a27 27 0 0 0 9.29 8.68l.44.59q0 1 0 2c-6.51.13-9.44-4.81-12.42-9.23-2.79-4.13-6.06-6.92-11.19-6.75-2.18.08-3.34-2.16-5.44-2-2.43-3.04-4.14-6.16-1.94-10.04z" fill="#b3d1ee"/><path d="m311.35 400.33c-.43 5.43-1 5.79-5.32 3.15a38.82 38.82 0 0 0 -3.4-2c-8.76-4.26-13-2.26-15.3 7.26a3.6 3.6 0 0 1 -2 2.62l-2-3c2.67-1.66 3.54-4.71 5.42-7 4.73-5.75 8.43-6.34 14.91-2.47 2.27 1.32 4.45 4.65 7.69 1.44z" fill="#bcd6f0"/><path d="m264.33 443.31c-1.08-2-1.83-3-4.6-1.37-7.07 4.23-14.07 1.72-17.37-5.62 3.52.18 4.39 4.34 7.71 5 6 1.22 11.19-1.51 13.6-7.33a6.49 6.49 0 0 1 1.71-1.7c1.64 1.73 1.13 3.61.23 5.39a10.35 10.35 0 0 0 -1.28 5.63z" fill="#c0daf2"/><path d="m263.36 421.33c1.92 1.2-.25 5.68 4 5a4.89 4.89 0 0 0 -2 5c-.73.29-2 .44-2.11.89-1.06 4.19-4.69 5.39-7.89 7.11-2.34.67-4.69 1.4-6.25-1.4.4-1.53 1.7-1.17 2.77-1.37 4.16-.77 7.77-2.28 8.85-7 2.27-2.28.35-5.93 2.63-8.23z" fill="#b3d1ee"/><path d="m313.38 406.31v-2c4.87-1.24 8.54.78 10.13 6.19 1.8 6.14 4.52 11.89 6.86 17.8-2 5.1-3 10.65-7.76 14.42-2.25 1.78-3.64 1.72-5.22-.43q0-.49 0-1c-.51-1.21.28-1.86 1.09-2.45 6.32-4.58 7.61-8.81 5.07-16.12-1-3-2.53-5.8-3.46-8.83a6.91 6.91 0 0 0 -4.76-4.73c-1.39-.44-1.55-1.72-1.95-2.85z" fill="#8db9e3"/><path d="m315.35 408.33c3.05-.29 4.52 1.65 5.49 4.08 1.76 4.4 3.54 8.81 5.09 13.29 1.64 4.76-2.07 11.92-6.92 13.94a6.45 6.45 0 0 0 -1.68 1.71h-1a14.16 14.16 0 0 1 -.93-1.12c-.76-1.58-1.33-3.17-.4-4.89a2.93 2.93 0 0 1 1.25-.67c4.65-.86 6.6-3.12 5.38-7.41-1.41-5-2.79-10.17-7.11-13.74-.52-1.88-.59-3.65.83-5.19z" fill="#8bb6df"/><path d="m129.37 361.33c.9 2.23 3 2 4.88 3h-7.89c-1.89-3.91 1.26-2.75 3.01-3z" fill="#aed2ef"/><path d="m213.38 425.3c-.63 1-1.11 2.35-2.61 2.17-.22 0-.29-1.39-.42-2.14a2.61 2.61 0 0 1 2.13-1.18z" fill="#c2d9ee"/><path d="m212.49 424.15a2.17 2.17 0 0 1 -2.13 1.18h-.92l-.23-1.87 2.45-.19a4.38 4.38 0 0 1 .84.06 5 5 0 0 0 -.01.82z" fill="#c2d9ee"/><path d="m109.37 368.35q0 .49 0 1c-3.71 2.4-5.35 6.12-6.69 10.13-2.6 7.76-.55 11.82 7.44 13.47 4.15.86 6.95 2.93 8.4 6.86.42 2.19 2.16 3.75 2.77 5.82.49 1.66.1 2.7-1.93 1.72-3.62-6.23-8.12-10.45-16-11.52-4.92-.66-5.94-6.35-6.42-11.22-.74-7.47 5.46-15.8 12.43-16.26z" fill="#94bee6"/><path d="m119.38 407.33c.86-.1 1.7-.2 1-1.44-1-1.86-2.82-3.28-3-5.56 4.44.89 6 4.7 8 8h-6q0-.5 0-1z" fill="#93bee6"/><path d="m388.07 433.21a3.64 3.64 0 0 1 -.76-.19c-3.9-5.06-5.66-13-13.32-13.35-6.78-.33-9.21-4-11.08-9.29-2.73-7.68 4.85-18.24 12.48-20.38 6.07-1.7 12.44-2.24 18.25-4.67 2.09-.87 3.68-1.16 5.54 0a1.69 1.69 0 0 1 1.51 1.39 1.47 1.47 0 0 1 -.74 1.22 4.93 4.93 0 0 1 -1.42.5 129.89 129.89 0 0 0 -25.83 6.56c-3.41 1.18-7.27 9.2-6.93 13.65.32 4.17 2.59 6.07 8.4 7.71 8 2.27 12.29 8.29 14.9 15.78a2 2 0 0 1 -1 1.07z" fill="#b3d0ed"/><path d="m400.21 386.4-1-1.08.39-1c1.11 0 2.23.08 2.87-1.12a5.77 5.77 0 0 0 .81.18l.2 2.89c-1 2.02-1.12 2.03-3.27.13z" fill="#c2d9ee"/><path d="m388.07 433.21a4.32 4.32 0 0 0 .26-.91c.5-.46.67-1.14 1.13-1.64 1.86-1 3-.72 2.9 1.68-.13 1.22-.64 2.05-2 2a2.6 2.6 0 0 0 -2.29-1.13z" fill="#c2d9ee"/><path d="m125.37 408.33c-3.47-1.86-4.74-5.93-8-8-1.18-3.61-3.36-5.68-7.42-6.07-8.12-.8-11.71-7-8.75-14.53a67 67 0 0 1 3.2-7.76 4.77 4.77 0 0 1 5-2.64h1c1.44 2.64-1 3.81-2.16 5.35-1.87 2.39-3.28 4.38 1.27 5.32 1.56.32 2.71 1.79 4.07 2.71 3 3.15 1.33 7.87 3.79 11.2 2.62 2.28 5.49 3.95 6.51 8 .95 3.77 6.54 3.6 10.81.16 2.59-3.1 5.41-6 8-9.07.73-.82 1.13-2.16 2.67-1.69v1c1.27 5.66-4.32 7.17-6.59 10.66-2.11 3.24-5.61 4.71-9.41 5.34-1.36.99-2.65.06-3.99.02z" fill="#8eb9e3"/><path d="m181.37 414.33a13.06 13.06 0 0 1 11 0z" fill="#97c1e7"/><path d="m113.38 383.33c-2.81 0-4-3.86-7.55-2.77-1.54.47-.81-1.79-.66-3.07.43-3.61 4.94-4.52 5.21-8.15h6a2.13 2.13 0 0 1 .67 1.81 11 11 0 0 1 -.19 1.33c1.48 3.7 3.36 4.26 6.83 1.71 2.08-1.53 3.86-2.62 5.69.14 2.13 4 4.94 3.57 7.47.72 2.2-2.49 3-1.78 3.88.84 1.77 5.08 5 9.71 4.65 15.44l-2 2c-1.57 2.09-3.4 3.8-6.19 4-.94-2 .41-3.08 1.6-4.25 4.12-4 4.18-4.77.91-10.07-1.83-2.08-3.5-4.13-6-.57-1.51 2.12-3.61 1.23-5.12-.12-2.07-1.85-3-.84-3.93 1.05-2.12.54-2.41-1.72-3.74-2.4-2.56-2.17-6.76-1.74-8.45-5.39a1.4 1.4 0 0 0 -2.17-.1c-.83.75-.3 1.48.27 2.11 1.57 1.76 4.19 2.8 4 5.78a.73.73 0 0 1 -1.18-.04z" fill="#8ab5de"/><path d="m116.38 371.33q0-1 0-2l3-1c1.89.74 3.41 1.89 5.9 1.34 3-.66 4.09 1.87 4.1 4.65-2.24-1.37-3.78-1-5.3 1.36-2.16 3.43-5.27 1-7.58.21-1.9-.68-1.47-3-.11-4.57a4.51 4.51 0 0 0 1 1c.19.1.21-.24-.25-.42a1.91 1.91 0 0 1 -.76-.57z" fill="#8cb7e1"/><path d="m262.35 420.33q0 .5 0 1c.7 2.62 1 5.23-.38 7.74a1.62 1.62 0 0 1 -1.3.61c-1.76-4-1.06-8.56-3.38-12.47a66.25 66.25 0 0 1 -3.23-7.09c-2.06.76-2.1 3.44-4.32 3.39-1.47-1-2.87-3.82-4.52-.17-1.93 0-1.72-1.68-2.09-2.83-.45-1.38-1.1-2.61-2.74-2.16-2.08.57-1 2-.54 3.15a4 4 0 0 1 .18 2.42c-1.48 2.61-.62 5.61-1.39 8.34a2.66 2.66 0 0 1 -2.43.88 6.18 6.18 0 0 1 -1.3-.31c-1.12-.56-2.65-.67-2.81-2.37a20.61 20.61 0 0 1 1.41-2.11c.59-4.06-3.41-1-4.29-2.78a3.08 3.08 0 0 1 -.61-1.94c-.25-3.1.8-5.43 3.7-7 1.15-.6 3.26-1.58 1.89-3.22-1.2-1.43-2.67.14-3.81 1.07a18.53 18.53 0 0 0 -1.4 1.42c-1.31.8-1.73 3.27-4.05 2.15a3.26 3.26 0 0 1 -.51-1.47c1.87-8.33 7.84-11.17 14.7-6.69 3.79 2.48 8 3.41 12.23 3.89s6.12 2.42 7.24 6.27c1.02 3.5 2.4 6.9 3.75 10.28z" fill="#a5c7e8"/><path d="m262.35 420.33c-2.69-3-3.86-6.78-4.84-10.51-.74-2.84-2-4.16-4.94-4.56a39.38 39.38 0 0 1 -15.35-5c-5-3-9.82-1.64-11.86 7-.56.76-1.06 1.67-2.25 1a1.78 1.78 0 0 1 .25-2c.73-1.64.62-3.62 2-5 4.43-5.48 6.18-6.68 11.67-3.66 6.18 3.4 13.18 3.66 19.33 6.66a31.22 31.22 0 0 1 5.99 16.07z" fill="#b0cfed"/><path d="m223.36 406.33v2c2.21 2.22.36 5.57 2.23 7.88.26.37.5.77.73 1.16 2 3.47 5.71 3.88 9 5 6.88 2.94 10.37 9 14 15 1.3 2.78 3.84 1.81 6 2-4.75 2.77-6.87.85-12.44-6.49-3.54-4.66-6.38-8.33-12.92-9-7.71-.88-10.96-10.77-6.6-17.55z" fill="#b5d2ee"/><path d="m256.36 404.33c-5.29-1-10.7-1.7-15.52-4.29-5.51-3-10.75-4.29-15.48 1.29 1.69-4.17 3.92-7.08 9.19-5.17 6.42 2.33 13 4.3 19.42 6.51a10.52 10.52 0 0 1 2.39 1.66z" fill="#b5d2ee"/><path d="m261.36 429.32c1.55-2.51.84-5.31 1-8h1c-.65 3 1.63 6.66-2 9a.59.59 0 0 1 -.26-.67.42.42 0 0 1 .26-.33z" fill="#b0cfed"/><path d="m225.36 401.33c-.43 1.76-.64 3.61-2 5 .02-1.93-.36-4 2-5z" fill="#b5d2ee"/><path d="m452.33 389.33c-3.36-.65-2.63-3-1.79-5 .92-2.16 2.41-4 5.18-3.91 1.41.07 1.9 1.28 2.22 2.38.4 1.36-.64 2.19-1.59 2.82-1.55 1-4.1.91-4 3.7z" fill="#8bb7e1"/><path d="m462.33 390.33c2.47-.21 3.37 1.17 3 3.32-.53 2.7 2 6.65-3 7.68-3.08-3.67-.17-7.33 0-11z" fill="#8bb6df"/><path d="m452.33 389.33c1.28-.51 2.91-1.73 3.35.64.21 1.13-.64 2.94-2 2.83-2.19-.16-1-2.25-1.32-3.47z" fill="#92bde5"/><path d="m468.33 398.33c-2-.09-2-1.55-2-3 2.03.09 2.02 1.55 2 3z" fill="#93bde5"/><path d="m404.4 387.32c7.68-.83 14.4 1.93 21 5.48a26.57 26.57 0 0 0 5.92 2.46 7 7 0 0 1 5.28 5.29 107.89 107.89 0 0 0 4.17 11c2 4.63-1.84 8-3.38 11.81a3.44 3.44 0 0 1 -1-2.78c1.3-4.39.26-8.56-1.26-12.67-1.07-2.89-1.27-6.65-6.36-3.85-2.67 1.47-4.94-.9-6.13-3.63-1.73-4.27-8.16-8.53-12.85-8.29-2.57.13-5.09.5-6.11-2.71a2.31 2.31 0 0 1 .72-2.11z" fill="#8eb9e3"/><path d="m428.33 426.32c-7-.12-13.95 1.7-21 1a1.66 1.66 0 0 1 1.72-2c5.43-.18 10.51-2.87 16-2.25a4.35 4.35 0 0 1 2.9 1.45l.33.76q.06.55.05 1.04z" fill="#8eb9e3"/><path d="m437.34 420.33v3l-9 2c.36-4.33 2.97-5.74 9-5z" fill="#8db8e2"/><path d="m404.4 387.32-.09 2a4 4 0 0 1 -3.24 2.91c-5.39-.83-2.21-3-.78-4.94a4.06 4.06 0 0 0 -.08-.86c1.09.19 2.23 1.51 3.23-.15z" fill="#c2d9ee"/><path d="m426.34 424.33c-6.51-.1-12.71 1.74-19 3-1.86 2.92-5.09 2.61-7.8 2.86a12.63 12.63 0 0 0 -6.27 2.1 5.26 5.26 0 0 1 -.79-2.1 3.4 3.4 0 0 1 2.89-3.54c8.35-1.93 16.56-4.79 25.29-4.42 2.01.09 4.81-1.35 5.68 2.1z" fill="#8db8e2"/><path d="m393.32 430.36q0 1-.05 1.93l-.91.05c-.57-1.52-1.53-1.89-2.91-1-.87-.73-.52-1.9-1-2.77a5.38 5.38 0 0 1 -.13-2.26c.43-1.7 1.14-2.87 3.11-1.59a5.72 5.72 0 0 1 1.48 2.4c.34 1.07-.55 2.28.41 3.24z" fill="#789bbd"/><path d="m470.33 396.33c1.76-2.18 3.81-3.82 6.33-1.28 3.38 3.4 3 5.92-.67 10.19-2.38 2.79-4.4 2.74-6.66.1q0-1 0-2a25.89 25.89 0 0 0 1-4q0-1.51 0-3.01z" fill="#87b1da"/><path d="m470.33 399.33c1.38 1.76 1.83 3.29-1 4-1.12-.54-2.06-1.33-1.82-2.67.28-1.59 1.71-1.24 2.82-1.33z" fill="#8db7df"/><path d="m186.37 423.33c-2 2.55-4.27 3.68-6.65.75-1.47-1.81-4.26-.54-5.35-2.75a23.93 23.93 0 0 1 12 2z" fill="#89b4de"/><path d="m315.35 408.33v6a2.5 2.5 0 0 1 -1.14 2.42 2.34 2.34 0 0 1 -2-.13c-1.34-1.41-1.94-3.6-4.22-4a6.44 6.44 0 0 0 -6.41 0c.45 1.27 2 1.2 2.29 2.4a3.16 3.16 0 0 1 0 1.39c-1.45 2.77-3.54 4.14-6.77 3.21-2.83-.81-4.88 1.3-7.3 2.06-4.38-2.89-1.25-6.81-1.41-10.28 1.27-2.81 1.68-6.24 4.6-8 3.09-1.82 6.33-1.87 8.91 1 3.38 3.78 7.26 3.77 11.51 1.92z" fill="#a4c6e8"/><path d="m288.35 411.33c2 3.06-1.71 7.28 2 10a8.81 8.81 0 0 1 3.4.67c2.92 1 5.86-4 7.42-1.24 1.29 2.32 2.69 4.51 4.18 6.75 3.15 4.75 7.23 8.64 11 12.82q0 .5 0 1c-4.46.09-6.84-3.28-8.94-6.21-3.9-5.45-7.69-9.78-15.35-10.15-4.5-.22-5.92-5.12-5.7-9.64z" fill="#aacbeb"/><path d="m261.36 429.32v1c-2 5.79-6.14 8.18-12 7-5.18-4.52-8.34-10.93-14-15h3c4.21.14 5.49 3.64 7.35 6.45 2.86 4.32 5 4.92 10.06 4 2.21-.42 2.28-2.09 3.3-3.21a1.19 1.19 0 0 1 1.28-.2h1z" fill="#a8c9ea"/><path d="m316.34 440.33c-4-1.87-6.86-5-9.35-8.6-1.41-2-2.33-4.8-4.67-5.65-3.29-1.19-2.56-2.9-.11-6.39-4.83 2.86-8.24 6.23-11.86 1.63.78-3.6 4.87-3.95 6.19-3.19 3.44 2 4.74-.65 6.81-1.81 1.61 2 .08 4.59 1.57 7.27.18-3.3.89-6-1.57-8.27-.81-2.07-4.9.2-4.28-2.51.51-2.2 3.71-2.22 6-2.45 1.49-.15 3.09-.18 3.3 2 .07 2.5 1.78 4.09 3.21 5.83a1.77 1.77 0 0 1 -1.07 2.11.61.61 0 0 1 -.69.24c.48.27.64-.34 1.05-.35a1.84 1.84 0 0 1 1.26 2.38c-3 5.34 1 8.82 3.23 12.8z" fill="#9fc2e5"/><path d="m314.34 416.31a2.08 2.08 0 0 1 1-2 2.18 2.18 0 0 1 3.51 1.38c.8 4.12 3.46 7.5 4.31 11.54 1.13 5.36-2 9-6.82 8.08a18.39 18.39 0 0 0 -3.16-8.3c-2.18-3.21-.84-7.27 1.16-10.7z" fill="#87b2db"/><path d="m314.34 416.31a19.06 19.06 0 0 1 -.71 5.85c-.49 1.64-1.12 4 .8 5 4.14 2.1 3.9 4.84 1.92 8.18h-1c-4.69-1.29-4.16-6.27-6.47-9.24-.64-.83.23-1.38 1-1.8 2.06-1.06 1.82-2.46.44-4l1-2a2.05 2.05 0 0 1 1-2z" fill="#8fb6dd"/><path d="m389.28 428.32.17 3.05-1.11.92c-3.67-6.81-7-13.85-16.08-15.06-5.52-.74-9.34-6.07-7.69-11.36 1.82-5.84 3.78-11.18 11.49-13.36a154.24 154.24 0 0 1 23.38-5.13c.19 1.59-1 2.16-2.06 2.87-6.43 2.63-13.35 3.46-20 5.49s-10.61 8.44-8.34 15a5.14 5.14 0 0 0 4.07 3.29 27 27 0 0 1 8.3 3.32 25.44 25.44 0 0 1 7.87 10.97z" fill="#a8c9ea"/><path d="m397.42 389.38 2-2a4.52 4.52 0 0 0 .86-.13c1.5 1.06-4.35 4 1.05 4.07.52 1.57-.64 2.27-1.59 3.08-3.5 2.19-4.66.82-4.31-2.84a3.36 3.36 0 0 1 1.99-2.18z" fill="#c2d9ee"/><path d="m121.37 380.33c2.19-.19 1.68 2.31 3 3 2.16.94 1.55 2.64 1.15 4.25-.49 2 .22 4-.05 6a5.44 5.44 0 0 1 -2.11 4c-2.6-.42-3.13-2.16-2.81-4.43-.49-.65 2.37-2.26-.63-2.16-.94 1.39-.12 4.65-3.55 3.36-2.69-3.2-1.36-7.51-3-11h1c2.07-.78 2.1 1.72 3.42 2.17 1.6-1.52 1.12-4.36 3.58-5.19z" fill="#8ab5df"/><path d="m116.38 394.33c3.35-.25.95-4 3-5a6 6 0 0 1 2 3c0 1.93-.33 4 2 5 2.5 4 5.87 6 10.71 4.65a1.8 1.8 0 0 1 1.29.35c-1.32 4.73-5.58 3.55-8.49 3.42-2.36-.11-5.55-1.79-4.93-5.52.29-1.76-.49-2.49-1.92-2.83a5.49 5.49 0 0 1 -3.66-3.07z" fill="#8cb7e1"/><path d="m135.37 402.33h-1c-.4-2.51 1.4-3.69 3-5l6-4a35.17 35.17 0 0 1 -8 9z" fill="#8bb5df"/><path d="m124.38 393.33c-1.15-3.33.89-6.67 0-10 .31-1.52-.93-3.72 1-4.44 1.51-.56 2.3 1.56 3.47 2.39 1.85 1.31 2.92 2.42 4.83-.77 3.07-5.12 4.69.09 6.68 1.82 2.79 6.49 2.79 6.56-1.74 11.24a8.21 8.21 0 0 0 -2.14 3.29c-1.1 3.57-3.64 5.18-7.22 4.44-3.4-.71-4.93-3.09-4.43-6.62a1.82 1.82 0 0 0 -.45-1.35z" fill="#86b1da"/><path d="m121.37 380.33a7.85 7.85 0 0 1 -.42.9c-1.35 2.16-.47 6-3.51 6.61s.07-4.35-3.07-4.52a15.26 15.26 0 0 0 -4.77-4.87c-1.27-.86-2.72-1.56-1.36-3.39 1.08-1.46 3.65-2.52 4.12-1.44 1.81 4.18 6.64 3.76 9.01 6.71z" fill="#89b4dd"/><path d="m124.38 393.33c1.59 1.06.87 3 1.88 4.46 2.37 3.33 6.39 3.76 8.55.3a50.64 50.64 0 0 1 5.25-7.2c2.48-2.75.31-5.7.32-8.56 4.2 4.74 4 7.61-.76 11.43-1.17.93-2.24 1.91-2.24 3.56.1 2.33-2.3 3.15-3 5-4.38 3.4-9.8.94-11-5z" fill="#89b3dd"/><path d="m116.38 371.33c1 .35 2.69-1.5 2.93.93.12 1.2-.39 2.67-1.59 2.55-2.18-.21-1-2.25-1.34-3.48z" fill="#8ebae3"/><path d="m259.36 429.33c-.22 1.84.68 4.18-2.31 4.71-6 1.07-10.5-.21-12.3-4.35-1.42-3.26-3.76-5.34-6.39-7.36-.58-2.78-1.87-5.65 1-8l.53.42a3.19 3.19 0 0 1 .79 1.69c0 2.85 1.11 1.81 2.25.64.94.13 1.45.9 2.12 1.43.82.69 2 1 2.55 2-.94 7.1 3.89 10.87 11.11 8.6z" fill="#9dc0e4"/><path d="m260.36 429.32h-1c-2.12-3.11-1.89-7-3.4-10.34-1.24-2.76-2.69-4.48-5.9-4a1.75 1.75 0 0 1 -1-1l.26-.66a1.26 1.26 0 0 0 .44-.23c4.38-5.68 4.55-5.76 7.49 1.22 2.03 4.75 5.18 9.39 3.11 15.01z" fill="#9dc0e4"/><path d="m228.36 405.33a27.61 27.61 0 0 1 2.57-3 3.33 3.33 0 0 1 5.23.38c1.75 2.11-.68 2.93-1.67 3.84-2.14 2-5.57 2.84-5.13 6.75-2.65 1.05-2.69-.81-2.57-2.47a12.05 12.05 0 0 1 1.57-5.5z" fill="#9bbfe3"/><path d="m239.36 414.33c-.19-1-.33-1.93-.59-2.86s-3-1.25-1.4-2.93c1.05-1.08 2.34-2.59 4.28-1.95 1.45.48 2.72 1.2 2.71 3.09 0 1.28-.32 2.71 1 3.65l.41.56a2.38 2.38 0 0 1 -1.51 2.81 1.86 1.86 0 0 1 -1.25-.33c-.79-1.44-2.32-1.56-3.65-2z" fill="#9dc0e4"/><path d="m228.36 405.33c1.13 2.57-2.23 5.7 1 8q0 1 0 2c.8 2.41 3.42 2.56 5 4a2.05 2.05 0 0 1 -2 1c-3.54 1.81-5.25-.64-7-3a11.16 11.16 0 0 1 0-9z" fill="#a2c5e7"/><path d="m234.36 419.33c-2.31-.53-6.47 1.25-5-4a8.15 8.15 0 0 0 2.36-.28 2.71 2.71 0 0 1 3.45.59c1.64 1.7-.57 2.46-.81 3.69z" fill="#9dc0e4"/><path d="m225.36 408.33c1 3 0 6 0 9-3.63-2.34-1.36-6-2-9l2-1z" fill="#aacbeb"/><path d="m245.36 413.33c.18-1.56-.62-4.1 1.39-4.22s2.23 2.45 2.61 4.21c-1.33 2.09-2.66 2-4 0z" fill="#accceb"/><path d="m225.36 417.33c2.15 1.42 3.92 3.74 7 3l3 2c-4.01-.33-8.51.36-10-5z" fill="#a8c9ea"/><path d="m233.3 411.09a3.18 3.18 0 0 1 -.84 1.31c-.81.44-1.08-.32-1-.93a2.29 2.29 0 0 1 .63-1.62c.64-.34 1.04.29 1.21 1.24z" fill="#b3d0ed"/><path d="m393.32 430.36c-1.12-.75-.94-1.92-1-3a4.84 4.84 0 0 1 -.38-3.73c10.36-1.26 20-6.33 30.87-5.27 2.7.27 5.49-1.11 8.21-1.81 1.7-.44 2.23-1.88 2.09-3.53-.18-2-.56-4-2.52-5.14-1.71-1-2.18.75-3.13 1.56-2.66 2.26-4.11.69-5.21-1.8-.21-2.52-.88-5.11 1.09-7.3 2.51 2.94 5 5.28 7.91.34.69-1.19 1.69-1.21 2.16 0 2.4 6.31 6.88 12.23 3.93 19.62-3 1.67-7.66.34-9 5l-2-1c-4.72-2.29-9.55-.46-14.23 0-4.51.4-9.22.69-13.14 4.14-.97.86-4.97-2.86-5.65 1.92z" fill="#8ab4de"/><path d="m423.34 400.33q0 4 0 8c-3.61-.53-1.15-4.49-3.56-5.92-1.83.22-2.62 2.76-4.79 2.79-3.55.05-5.45-1.91-6.42-5.09-.3-1 .18-2.69-1.57-2.55a2.64 2.64 0 0 0 -2.54 3.09c.24 2.53.21 4.76-3.19 4.86a8.89 8.89 0 0 1 -1.85-3.17 13.83 13.83 0 0 1 -1.29-4.45 6.89 6.89 0 0 1 1.21-4.56l2-2 3-2c.54 1.1 1.57 2.4 2.59 1.89 5.6-2.8 9.1 2.32 13.62 3.45 2.64.63 2.99 3.18 2.79 5.66z" fill="#89b3dd"/><path d="m389.28 428.32c-3.49-2.66-4.61-7.2-7.94-10a1 1 0 0 1 -.34-.82.54.54 0 0 1 .14-.46c2.2-1.53 2.18-5.68 6.1-5.2a3 3 0 0 1 1.51 1.41c-.64 2.86 0 5.62.7 8.37.46 1.59-1.38 3.11-.12 4.72z" fill="#9dc0e4"/><path d="m392.34 423.33q0 2 0 4a2.12 2.12 0 0 1 -1-2 21.65 21.65 0 0 1 -2.27-5.1 2.33 2.33 0 0 1 1.4-2.37c1.85-.38 2.9.49 3.44 2.18a3.54 3.54 0 0 1 -1.57 3.29z" fill="#80a9cf"/><path d="m389.36 420.33c2.32 1 2 3.08 2 5-1.11-.56-2-.73-2 1-1.63-1.41-.76-3.3-1-5 .33-.33.41-.9 1-1z" fill="#7da3c8"/><path d="m303.35 415.33c1.64 0 3.07.27 3 2.37-.13 2.63.51 5.3-.45 7.86a1.48 1.48 0 0 1 -1.31.14c-1-.58-2-1.32-1.91-2.67.17-2.24.46-4.47.7-6.71q-.03-.49-.03-.99z" fill="#98bce1"/><path d="m293.35 412.33c0 1.14 0 2.27-.11 3.41a1.33 1.33 0 0 1 -1.17 1.34c-1 .13-1.37-.51-1.66-1.36-1.5-4.54.29-7.81 3.94-10.38 1.8 2.66-1.91 4.48-1 6.99z" fill="#9fc2e5"/><path d="m293.35 412.33c-2.9-2.8 1.18-4.59 1-7 1.71-.65 3.73-1.32 4.49.92 1 2.85-1.86 3.68-3.49 5.08a2.06 2.06 0 0 0 -2 1z" fill="#9abee2"/><path d="m312.36 416.34a2.08 2.08 0 0 1 -1 2c-2.45-1.28-5.38-2.32-3-6 4.48-1.83 2.89 2.43 4 4z" fill="#accbeb"/><path d="m295.35 411.33c.36-.52.69-1.07 1.09-1.56.79-1 2.15-1.77 1.66-3.22-.64-1.87-2.43-1-3.75-1.21 2.17-1.67 4.69-1.73 5.62.82 1.35 3.71-1.84 4.51-4.62 5.17z" fill="#9fc2e5"/><path d="m294.89 416.69c-.75-1.42-1-2.76.33-3.84.59-.49 1.33.16 1.58.76.68 1.65-.46 2.39-1.91 3.08z" fill="#b5d2ee"/><path d="m310.35 420.33c-.17 1.21.34 2.94-1.83 2.71-1-.11-1.18-1.11-1.07-1.93.33-2.43 1.76-1.15 2.91-.79z" fill="#abcbeb"/><path d="m381.34 417.33q0 .5 0 1c-3.14-1-5.94-2.84-9.37-3.13a5.21 5.21 0 0 1 -4.47-4.16c-2.16-8.13 2.51-14.73 10.64-16.8q9.63-2.45 19.29-4.85l-1.08 1.95c-.74.68-.35 1.93-1.25 2.53a5.13 5.13 0 0 1 -2.09.65c-2.6.33-5.27-.36-7.81.66-.62.32-1.25.62-1.89.91-3.3 2.06-7.74 1.51-11.31 4.9 3 .72 5.69 1.3 6.05 4.45 1.1 1.89 1.31 4.14 2.47 6a4.87 4.87 0 0 1 .46 1.25c-.35 1.59.84 3.05.36 4.64z" fill="#9ec1e4"/><path d="m395 394.31a2.09 2.09 0 0 1 1-2c-.17 2.42-.13 4.54 3 2q0 2.5 0 5c-.75.53-1.71-.31-2.45.38a1.82 1.82 0 0 1 -1.09-.55 5.67 5.67 0 0 1 -1.23-3 2.49 2.49 0 0 1 .77-1.83z" fill="#c2d9ee"/><path d="m121.38 392.33c-2-.09-2-1.55-2-3 1.54-1.72 2.5-.82 3.33.73s.14 2.12-1.33 2.27z" fill="#8fbae4"/><path d="m249.36 414.33c4.36-2.07 6.29-.12 7.63 4 1.16 3.61 2.5 7.1 2.36 11-3.67 3.26-7.7 2.15-10.56-.48-2-1.85-4.16-5.16-1.43-8.52-1.86-2.85-1.36-4.91 2-6z" fill="#92b8de"/><path d="m239.36 414.33c2.79-2.24 4.15-1.61 4 2a.58.58 0 0 1 .25.66.42.42 0 0 1 -.25.33 2.75 2.75 0 0 0 -1 2.1c-.13 1 .42 2.69-1.44 2.37-1.42-.24-1.15-1.5-1-2.74a23.64 23.64 0 0 0 -.56-4.72z" fill="#98bde1"/><path d="m249.36 414.33c-2.27 1.46-2.08 3.75-2 6-1.1 0-2.28.18-3-1a3.56 3.56 0 0 0 0-3l1-3a3.26 3.26 0 0 0 4 0z" fill="#a5c7e8"/><path d="m244.36 416.33c1 .14 2 .4 1.81 1.74-.13 1-1 1.13-1.81 1.26a2.07 2.07 0 0 1 -1-2q0-.5 0-1z" fill="#abcbeb"/><path d="m392.34 423.33 1-3c.74-2.42.4-5 .86-7.4.76-4 2.6-7.09 7.13-7.6 1.63-.95 3-1.79 2-4.23-.89-2.19 2.38-5.87 4.68-5.61 1.31.15 2.44 1 1.94 2.28-1.38 3.44.8 5.16 3.17 6.21 2.62 1.16 4.15-.7 5.27-3.05 1.33-2.8 2.1-.51 3 .49 1.76 2 0 5 2 6.92 2.79 1.48 3 1.53 3.55-.91.27-1.18.67-2 1.75-1.91 3.51.31 5.17 2.52 5.7 5.87.5 3.14.9 6.43-3.37 6.77s-8.48 1.57-13 1.58c-5.61 0-11.74.75-17 3.58-3.02 1.56-5.82 1.29-8.68.01z" fill="#86b0d9"/><path d="m401.34 405.33c-3.81 2.63-6.92 5.6-6 10.87a3.47 3.47 0 0 1 -2 4.13 3 3 0 0 0 -3-2 2.17 2.17 0 0 1 -.5-1.22c.25-2.22-1-4.4-.18-6.63 1.23-1.52.8-3.19.45-4.86 2.81-1.8 5.22-3.94 6.22-7.29h1c1.68.82.26 4 3 4 1.19.72.98 1.9 1.01 3z" fill="#83acd4"/><path d="m398.24 405.25c-.67 2.38-1.84 2.75-2.83.35-.52-1.26-.15-2.88-.19-4.34.66-1.12 1.33-.1 2 0z" fill="#c2d9ee" opacity=".3"/><path d="m390.33 410.34c-1 2.33 2.24 4.66 0 7-3.15-.09-.56-3.06-2-4l-1-1a1.79 1.79 0 0 0 -2.89.55c-1.88 3-2.94 1.12-4.11-.54-2.1-4.66-2.9-9.23.61-13.69 1.12-1.42 2.27-2.52 4.12-1.92 2.29.74 1.14 2.38.63 3.64-1.51 3.78 1.52 4.86 3.7 6.47a4.16 4.16 0 0 1 .94 3.49z" fill="#8fb6dd"/><path d="m380.34 412.33c1.26.58 2.38 2.38 3.8-.06.7-1.2 2.15-1.33 3.2.06-3.71-.39-2.28 5.39-6 5a4.57 4.57 0 0 1 -1-5z" fill="#96bbe0"/><path d="m388.34 413.33c1.63.85.38 3.15 2 4v1l-1 2-1 1c-.89-2.65-2.34-5.33 0-8z" fill="#93b9df"/><path d="m389.33 407.32c-6.47-1.89-7.17-3.64-3.87-9.6-3 .36-7 5.75-5.84 8.32 1 2.13.51 4.2.72 6.29-2.79-1.11-1.52-4.24-3-6-1.31-7.6-1.08-8 6-11l1-1c2.89-1.31 6.12.37 9-1h2q0 1 0 2c-2.39 3.31-6.56 5.73-5.47 10.8a1.42 1.42 0 0 1 -.54 1.19z" fill="#96bbe0"/><path d="m383.34 395.33c-4.58 2.26-6.91 5.75-6 11-1.32-1.27-.84-5-4.49-3.14a1.49 1.49 0 0 1 -2.24-1.19c.05-2.09 1.36-4.37 3.21-4.38 3.45-.03 6.18-2.37 9.52-2.29z" fill="#98bde1"/><path d="m373.34 408.33c-.16 1-.6 2.32-1.75 1.71-2.21-1.18 0-2.86 0-4.31s1.63-1.63 2.69-1.13c1.41.68 1.18 1.78.07 2.73a.61.61 0 0 0 -.86-.18.71.71 0 0 0 -.15 1.18z" fill="#a8c9ea"/><path d="m393.34 393.33c-2.81 2-6 .56-9 1 2.82-2.01 6.01-.56 9-1z" fill="#98bde1"/><path d="m373.34 408.33c-.9-.71-1.43-1.77-.34-2.41s1.19.62 1.34 1.41z" fill="#b2d0ed"/><path d="m389.35 406.35c-2.22-6 1.36-8.77 6-11l1 3c1.58 5.35-2.71 6.3-6 8a.61.61 0 0 1 -1 0z" fill="#8db5dc"/><path d="m249.13 416.79c4.75 0 6.47 3 7.11 6.93.47 2.82-1.62 4.21-3.79 4.15-1.7 0-4-1.35-3.11-3.91.8-2.39-.4-4.52-.21-7.17z" fill="#8cb4dc"/><path d="m389.35 406.35h1c3.35 1.34 2 2.68 0 4-1.17-.73-1-1.92-1-3q-.01-.52 0-1z" fill="#80a8ce"/></g><rect fill="#fff" height="25" rx="12" stroke="#040000" stroke-miterlimit="10" stroke-width="4" width="30.06" x="145.15" y="248.35"/><rect fill="#fff" height="25" rx="12" stroke="#040000" stroke-miterlimit="10" stroke-width="4" width="30.06" x="274.56" y="248.35"/><text fill="#231815" font-family="Source Han Sans CN" font-size="37.91" transform="matrix(.97440931 -.22478099 .22478099 .97440931 296.96 147.75)">ERROR<tspan x="125.82" y="0"/></text><circle cx="62.58" cy="136.55" fill="#797a7a" r="11.2"/><circle cx="93.45" cy="136.55" fill="#797a7a" r="11.2"/><circle cx="125.33" cy="136.55" fill="#797a7a" r="11.2"/><rect fill="#040000" height="6.24" rx="3.12" width="30" x="207.91" y="163.62"/></svg>