<svg id="图层_1" data-name="图层 1" xmlns="http://www.w3.org/2000/svg" xmlns:xlink="http://www.w3.org/1999/xlink" viewBox="0 0 716.99 716.99">
	<title>ic_transaction</title>
	<circle cx="358.5" cy="358.5" r="358.5" fill="#97ceff"/>
	<path d="M4140.52,352.79l150.77-218,94.48,65.34L4235,418.13Zm0,0" transform="translate(-3893.45 84.13)" fill="#e49227"/>
	<path d="M4209.29,400.35l150.77-218,25.7,17.77L4235,418.13Zm0,0" transform="translate(-3893.45 84.13)" fill="#c97720"/>
	<path d="M4233.74,419.93l-101.28,45.45,6.79-110.76,39.14,5.56L4189,383.63l25.7,1.68Zm0,0" transform="translate(-3893.45 84.13)" fill="#f2ead8"/>
	<path d="M4216.46,388.49l-84,76.87,101.24-45.44Zm0,0" transform="translate(-3893.45 84.13)" fill="#e7d7b9"/>
	<path d="M4135.49,415.87l-3,49.5,45.25-20.31Zm0,0" transform="translate(-3893.45 84.13)" fill="#575f66"/>
	<path d="M4238.25,254.78a4.42,4.42,0,0,1-4.44-6.87l50.27-72.68a4.43,4.43,0,1,1,7.29,5l-50.27,72.68a4.48,4.48,0,0,1-2.85,1.83h0Zm0,0" transform="translate(-3893.45 84.13)" fill="#fff"/>
	<g>
		<path d="M4294.86,161.88a4.42,4.42,0,1,0,3.56-5.15,4.42,4.42,0,0,0-3.56,5.15h0Zm0,0" transform="translate(-3893.45 84.13)" fill="#fff"/>
		<path d="M4389.51,194.65a6.62,6.62,0,0,0-9.21,1.68l-145.91,211-13.06-23.81,25-36.11a6.62,6.62,0,0,0-10.89-7.53L4210,376.7a7,7,0,0,0-.81,1.66l-15.79-1L4186.85,363a5.86,5.86,0,0,0,1.27-1.35l87.94-127.15a6.62,6.62,0,0,0-10.88-7.53L4177.7,353.37l-26.88-3.81,145.91-211a6.62,6.62,0,1,0-10.88-7.53L4135,349a8.23,8.23,0,0,0-.57,1,6.71,6.71,0,0,0-1.87,4.16L4125.86,465a6.19,6.19,0,0,0,.11,1.69,6.67,6.67,0,0,0,2.75,4.15,6.44,6.44,0,0,0,3.67,1.16,6.74,6.74,0,0,0,2.8-.59l45.25-20.31,56-25.13a6.53,6.53,0,0,0,3.23-3.22,8.21,8.21,0,0,0,.75-0.89l150.77-218a6.62,6.62,0,0,0-1.68-9.21h0ZM4139.73,454.85l1.63-26.84,22.91,15.84Zm38.66-17.36-36.07-24.94,3.07-50.39,28.4,4.06,9.13,20.15a6.54,6.54,0,0,0,5.6,3.87l22.07,1.43,13.82,25.14Zm0,0" transform="translate(-3893.45 84.13)" fill="#2d3742"/>
	</g>
	<path d="M4263.9,310.32a6.62,6.62,0,0,0,9.25-1.69l73.38-106.11a6.62,6.62,0,1,0-10.88-7.53L4262.26,301.1a6.58,6.58,0,0,0,1.64,9.21h0Zm0,0" transform="translate(-3893.45 84.13)" fill="#2d3742"/>
</svg>