<svg id="图层_1" data-name="图层 1" xmlns="http://www.w3.org/2000/svg" xmlns:xlink="http://www.w3.org/1999/xlink" viewBox="0 0 716.99 716.99"><defs><clipPath id="clip-path" transform="translate(-580.88 83.28)"><rect x="794.58" y="123.02" width="308.35" height="346.47" fill="none"/></clipPath></defs><title>22</title><circle cx="358.5" cy="358.5" r="358.5" fill="#ef866a"/><path d="M1083.56,455.08a13.15,13.15,0,0,1-13.1-13.1V162.44c0-7.23,26.26-7.23,26.26,0V442a13.2,13.2,0,0,1-13.16,13.1h0Zm0,0" transform="translate(-580.88 83.28)" fill="#ec7d91"/><path d="M1083.56,457.9A15.94,15.94,0,0,1,1067.64,442V162.44c0-6.1,8.58-8.25,15.93-8.25s15.92,2.15,15.92,8.25V442a15.9,15.9,0,0,1-15.92,15.92h0Zm0-298.07c-7.12,0-10.28,2-10.28,2.6V442a10.28,10.28,0,0,0,20.56,0V162.44c0.06-.57-3.16-2.6-10.28-2.6h0Zm0,0" transform="translate(-580.88 83.28)" fill="#4568ac"/><path d="M1068.43,456.72V433c0-8.58,7.06-.4,15.64-0.4s15.64-8.19,15.64.4v23.72c0,4.24-7.62,9.21-15.36,9.26-8,.06-15.92-4.91-15.92-9.26h0Zm0,0" transform="translate(-580.88 83.28)" fill="#7e99ce"/><path d="M1084.18,468.81c-5.76,0-12-2.43-15.64-6a8.76,8.76,0,0,1-2.94-6.1V433c0-1.86.23-4.52,2.37-5.93,2.37-1.64,5.19-.51,8.19.68,2.43,1,5.14,2,7.91,2a21.79,21.79,0,0,0,7.91-2c3-1.19,5.82-2.32,8.19-.68,2.09,1.41,2.37,4.07,2.37,5.93v23.72c0,6-9,12-18.19,12.09h-0.17ZM1071.31,432c0,0.23-.06.56-0.06,1v23.72a3.63,3.63,0,0,0,1.24,2.09,17.82,17.82,0,0,0,11.69,4.35h0.11c6.72-.06,12.54-4.35,12.54-6.44V433a5.07,5.07,0,0,0-.06-1,28,28,0,0,0-2.77,1c-2.71,1.07-6.16,2.43-10,2.43s-7.29-1.35-10-2.43c-0.85-.34-2-0.79-2.71-1h0Zm0,0" transform="translate(-580.88 83.28)" fill="#4568ac"/><path d="M1067.47,415.89V411c0-1.75,7.06,2.77,15.64,2.77s15.64-4.52,15.64-2.77v4.86c0,0.85-7.62,4.69-15.36,4.75-7.91,0-15.92-3.84-15.92-4.75h0Zm0,0" transform="translate(-580.88 83.28)" fill="#7e99ce"/><path d="M1083.34,423.46c-7.46,0-15.59-3.16-17.68-5.25a3.16,3.16,0,0,1-1-2.32V411a3.11,3.11,0,0,1,1.3-2.6c1.58-1.13,3.28-.57,6,0.34s6.78,2.2,11.13,2.2a35.47,35.47,0,0,0,11.12-2.2c2.77-.91,4.46-1.47,6-0.34a3.11,3.11,0,0,1,1.3,2.6v4.86c0,1,0,2.88-6.61,5.31a34.36,34.36,0,0,1-11.63,2.26h0Zm-13-8.87a30.9,30.9,0,0,0,13,3.22,29,29,0,0,0,12.54-3.16V414.2a41.47,41.47,0,0,1-12.82,2.48,39.85,39.85,0,0,1-12.82-2.48v0.39h0.06Zm0,0" transform="translate(-580.88 83.28)" fill="#4568ac"/><path d="M1082.6,127.25l-11.86,33.26a2,2,0,0,0,3,2.43l1.19-.73a2.05,2.05,0,0,1,2-.06l6.55,3.28a2,2,0,0,0,1.81,0l6.44-3.22a2,2,0,0,1,2.09.17,2,2,0,0,0,3.1-2.32l-10.45-32.75a2,2,0,0,0-3.84-.06h0Zm0,0" transform="translate(-580.88 83.28)" fill="#fff"/><path d="M1084.35,168.48a5,5,0,0,1-2.2-.51l-6.16-3.05-0.79.51a4.88,4.88,0,0,1-7.12-5.82l11.86-33.26a4.75,4.75,0,0,1,4.57-3.22h0.11a4.85,4.85,0,0,1,4.57,3.39l10.45,32.75a4.88,4.88,0,0,1-1.75,5.42,4.79,4.79,0,0,1-5.31.28l-6,3.05a6.16,6.16,0,0,1-2.2.45h0Zm-8.36-9.32a5.21,5.21,0,0,1,2.2.51l6.21,3.1,6.1-3a5.07,5.07,0,0,1,3.28-.39l-9.21-29-10.39,29.14a4.47,4.47,0,0,1,1.81-.34h0Zm0,0" transform="translate(-580.88 83.28)" fill="#4568ac"/><g clip-path="url(#clip-path)"><path d="M817.12,133.69s-14.4,4.57-17.56,29.93-4.41,265.26,8,279c15.81,17.51,18.24,6.16,61.78,6.16s161.63,2.54,161.63,2.54-18.24-32.47-3.16-40.43S821.7,407.7,821.7,407.7Zm0,0" transform="translate(-580.88 83.28)" fill="none"/><path d="M825,455.19c-6.89,0-12-2.31-19.54-10.73-2.32-2.54-5.25-10.28-7.62-47.55-1.41-22.64-2.43-53.59-2.94-89.45-0.85-66,.28-131.7,1.86-144.23,3.33-26.82,18.86-32.08,19.54-32.25l3.62-1.13,4.63,275c11.46-.23,55.85-1.07,100-1.3,29.93-.17,53.82,0,71.1.51,10.28,0.28,18.3.68,23.83,1.19,8.7,0.79,11.24,1.69,11.86,4.12,0.17,0.62.45,2.65-2.15,4a7.69,7.69,0,0,0-3.9,4.91c-2.71,9.15,5,25.92,8.19,31.63l2.43,4.29-5-.11c-1.19,0-118.54-2.54-161.57-2.54a213.77,213.77,0,0,0-33.1,2.48A76.92,76.92,0,0,1,825,455.19h0Zm-10.62-316.7c-4,3-10.11,10.11-12,25.47-1.52,12.37-2.65,77.71-1.81,143.5,0.45,35.8,1.47,66.64,2.88,89.17,2.37,37.16,5.37,43.14,6.21,44.11,9.15,10.11,12.37,9.66,25.81,7.79A221.71,221.71,0,0,1,869.3,446c38.17,0,134.52,2,157,2.43-3.44-7.23-9.43-21.8-6.49-31.68a14,14,0,0,1,3-5.48c-8.3-1.07-32.53-2.43-102.33-2-49.53.28-98.21,1.35-98.66,1.35l-2.82.06Zm0,0" transform="translate(-580.88 83.28)" fill="none"/></g><path d="M829.15,402.9s-26.43-7-23.78,23.78c2.48,29,18.52,26.26,32.25,27.56,12.26,1.13,132.54-.73,182.58-0.73,7.46,0,14.23-.51,15.87-2.88,3.9-5.71-12.76-18-2.48-51.28,2.43-7.68-204.44,3.56-204.44,3.56h0Zm0,0" transform="translate(-580.88 83.28)" fill="#f2f8fd"/><path d="M862.13,457.46c-12.76,0-21.8-.11-24.74-0.4l-4.57-.34c-12.37-.73-27.79-1.64-30.21-29.82-0.9-10.73,1.41-18.47,6.89-23.1,7.34-6.16,17.62-4.29,20-3.79,4.91-.28,52.35-2.82,99.85-4.52,29.31-1.07,52.92-1.64,70.08-1.69,33.77-.11,35.24,1.81,36.42,3.33a3.19,3.19,0,0,1,.56,3c-6.49,21.06-1.92,32.92,1.13,40.83,1.75,4.52,3.1,8.08,1,11.24-2,3-7.12,4.12-18.19,4.12-18.81,0-47,.28-76.8.51-30,.34-60.6.62-81.38,0.62h0ZM823.05,405c-3.11,0-7.06.62-10,3.16-4,3.39-5.65,9.49-4.86,18.24,2,23.32,12.65,23.95,24.91,24.68,1.58,0.11,3.22.17,4.8,0.34,7.51,0.68,57.32.23,105.44-.17,29.82-.28,58.05-0.51,76.86-0.51,11.41,0,13.27-1.41,13.55-1.69,0.45-.68-0.62-3.5-1.58-6-3-7.8-8-20.73-1.86-42.36-5.36-1.07-26.09-2.26-103.57.62-48.91,1.81-96.91,4.4-97.42,4.46h-0.45l-0.45-.11a17.12,17.12,0,0,0-5.36-.68h0Zm0,0" transform="translate(-580.88 83.28)" fill="#4568ac"/><path d="M1022.68,407.81S943.4,402.67,917,402.67c-24.11,0-96.4,5.14-96.4,5.14a12,12,0,0,1-11.92-11.92s-4.06-102.5-4-136.66c0.06-29.14,4-116.62,4-116.62a12,12,0,0,1,11.92-11.92s43.26-3.11,101.15-2.37c42,0.51,101,9.49,101,9.49a12,12,0,0,1,11.92,11.92s-7.85,124.52-4,163.38c5.2,51.79,4,82.79,4,82.79a12,12,0,0,1-11.92,11.92h0Zm0,0" transform="translate(-580.88 83.28)" fill="#7e99ce"/><path d="M1022.68,410.64h-0.17c-0.79-.06-79.52-5.14-105.55-5.14-23.72,0-95.44,5.08-96.18,5.14h-0.23A14.77,14.77,0,0,1,805.83,396c-0.11-2.82-4.06-103.18-4-136.72,0.06-28.58,3.84-114,4-116.67A14.71,14.71,0,0,1,820.45,128c2.37-.17,45.29-3,101.26-2.37,40.49,0.51,97.36,8.92,101.2,9.49a14.73,14.73,0,0,1,14.52,14.68V150c-0.06,1.24-7.8,124.75-4,162.87,5.08,50.37,4,81.55,4,83.13a14.78,14.78,0,0,1-14.74,14.68h0ZM916.91,399.85c25.81,0,102.61,5,105.83,5.14a9.1,9.1,0,0,0,9-9.09v-0.11c0-.28,1.19-31.4-4-82.39-3.84-38.4,3.56-157.39,4-163.72a9.06,9.06,0,0,0-9.09-9h-0.23l-0.23-.06c-0.57-.11-59.3-9-100.63-9.49-57-.68-100.47,2.32-100.92,2.37H820.4a9.09,9.09,0,0,0-9.09,9.09v0.11c-0.06.85-3.9,87.7-4,116.5-0.06,33.71,3.9,135.54,4,136.55v0.11a9.1,9.1,0,0,0,9,9.09c3.33-.23,73.13-5.14,96.63-5.14h0Zm0,0" transform="translate(-580.88 83.28)" fill="#4568ac"/><path d="M957,217l-59.3-.51c-35.58-.9-47.95-6.38-47.89-15.7l0.17-18.07c0.06-9.32,11.46-21.35,61.16-18.07l63.19,4c9.32,0.06,16.88,9.49,16.77,18.81l-0.11,14.68c-0.06,9.26-8,16.26-34,14.91h0Zm0,0" transform="translate(-580.88 83.28)" fill="#dde8f6"/><path d="M963.16,220c-2,0-4.12-.06-6.32-0.17l-59.24-.51c-35.64-.9-50.77-6.44-50.66-18.52l0.17-18.07a15,15,0,0,1,5.25-11.13c9.09-8.41,28.91-11.69,58.9-9.71l63.14,4a18.86,18.86,0,0,1,13.95,6.89,22.56,22.56,0,0,1,5.54,14.74l-0.11,14.68a14.71,14.71,0,0,1-4.69,11.07c-4.86,4.52-13.38,6.78-25.92,6.78h0ZM895.34,167c-24.11,0-34.62,4.58-39.14,8.81a9.73,9.73,0,0,0-3.44,7.06l-0.17,18.07c0,2.26.85,5.59,8.69,8.3,7.46,2.6,19.37,4.06,36.43,4.52l59.36,0.51c14.06,0.73,23.78-1.07,28.18-5.14a9.08,9.08,0,0,0,2.88-7l0.11-14.68a16.89,16.89,0,0,0-4.18-11,13.3,13.3,0,0,0-9.83-5h-0.17l-63.19-4c-5.71-.34-10.84-0.51-15.53-0.51h0Zm0,0" transform="translate(-580.88 83.28)" fill="#4568ac"/><path d="M842.37,408.21c-4.07,5.48,0,27.28,0,27.28l13.38-7.91L868,437s1.24-25.81-.57-30a125.62,125.62,0,0,0-12.93.57c-5.2.51-9.66,0.34-12.14,0.68h0Zm0,0" transform="translate(-580.88 83.28)" fill="#ec7d91"/><path d="M870.49,442.54l-15-11.58-15.19,9-0.73-4c-0.73-3.84-4.06-23.32.51-29.48l0.74-1,1.19-.17c1.24-.17,2.77-0.17,4.57-0.23,2.26-.06,4.8-0.11,7.57-0.39,4.69-.51,8.42-0.51,11.13-0.57,0.73,0,1.41,0,2-.06l1.92-.06,0.73,1.75c1.86,4.46,1.08,25.07.79,31.23Zm-14.57-18.35,9.43,7.23c0.28-8.81.28-17.68-.23-21.63-2.71.06-6,.06-10.39,0.51-3,.28-5.76.39-8,0.45-1,0-1.86.06-2.65,0.11-1.19,3.44-.85,12,0.34,20Zm0,0" transform="translate(-580.88 83.28)" fill="#4568ac"/></svg>