<svg id="图层_1" data-name="图层 1" xmlns="http://www.w3.org/2000/svg" xmlns:xlink="http://www.w3.org/1999/xlink" viewBox="0 0 716.99 716.99"><circle cx="358.5" cy="358.5" r="358.5" fill="#edefa0"/><g><rect x="200.76" y="339.74" width="315.11" height="191.81" fill="#9cd0a8"/><path d="M3525.66,265.4a6.85,6.85,0,0,1,6.85,6.85V436.65a6.85,6.85,0,0,1-6.85,6.85H3238a6.85,6.85,0,0,1-6.85-6.85V272.25a6.85,6.85,0,0,1,6.85-6.85h287.71m0-13.7H3238a20.55,20.55,0,0,0-20.55,20.55V436.65A20.55,20.55,0,0,0,3238,457.2h287.71a20.55,20.55,0,0,0,20.55-20.55V272.25a20.55,20.55,0,0,0-20.55-20.55h0Zm0,0" transform="translate(-3023.49 81.19)" fill="#5b2c4f"/><path d="M3238.91,259.1a5.14,5.14,0,0,1-4.93-3.84l-9.73-36.44a5.14,5.14,0,0,1,3.7-6.3l295-77.27h1.3a5.14,5.14,0,0,1,4.93,3.84l9.52,36.44a5.14,5.14,0,0,1-3.7,6.3L3240.21,259Zm0,0" transform="translate(-3023.49 81.19)" fill="#fff"/><path d="M3523.06,142.5l8.7,33.16-291.62,76-8.63-32.95,291.55-76.24m1.23-14.11a12,12,0,0,0-3,.41l-294.91,77.13a12,12,0,0,0-8.56,14.59l9.52,36.44a12,12,0,0,0,14.59,8.43l295-77a12,12,0,0,0,8.56-14.66l-9.52-36.37a12,12,0,0,0-11.65-9h0Zm0,0" transform="translate(-3023.49 81.19)" fill="#5b2c4f"/></g><path d="M3274.4,200.46l25.35-6.64,2.95,48.77-25.35,6.64Zm0,0" transform="translate(-3023.49 81.19)" fill="#e1506d"/><path d="M3293.44,202.51l2.05,34.87-11.85,3.08-2.06-34.87,11.85-3.08M3306.11,185l-38.84,10.21L3271,258l38.84-10.14-3.7-62.75V185Zm0,0" transform="translate(-3023.49 81.19)" fill="#5b2c4f"/><path d="M3336.19,184.29l25.34-6.64,2.88,48.84-25.35,6.58Zm0,0" transform="translate(-3023.49 81.19)" fill="#e1506d"/><path d="M3355.16,186.41l2.06,34.87-11.78,3-2.06-34.87,11.85-3.08m12.88-17.4L3329,179.08l3.7,62.75,38.84-10.14Zm0,0" transform="translate(-3023.49 81.19)" fill="#5b2c4f"/><path d="M3397.91,168.12l25.35-6.64,2.95,48.84L3400.78,217Zm0,0" transform="translate(-3023.49 81.19)" fill="#e1506d"/><path d="M3416.95,170.25l2.06,34.87-11.85,3.08-2.06-34.87,11.85-3.08m12.81-17.47-39,9.86,3.7,62.75,38.84-10.14Zm0,0" transform="translate(-3023.49 81.19)" fill="#5b2c4f"/><path d="M3459.7,152l25.28-6.58,2.94,48.77-25.35,6.64Zm0,0" transform="translate(-3023.49 81.19)" fill="#e1506d"/><path d="M3478.67,154.08l2.06,34.87L3468.87,192l-2.05-34.87,11.85-3.08m12.74-17.47-38.91,10.14,3.7,62.75L3495,199.36Zm0,0" transform="translate(-3023.49 81.19)" fill="#5b2c4f"/><path d="M3355.16,398.77a13.7,13.7,0,0,1-13.7-13.7v-61A13.68,13.68,0,0,1,3362,312.25l53.29,30.48a13.7,13.7,0,0,1,0,24L3362,396.92a13.71,13.71,0,0,1-6.85,1.85h0Zm0,0" transform="translate(-3023.49 81.19)" fill="#f7c788"/><path d="M3355.16,317a6.84,6.84,0,0,1,3.42,1l53.3,30.48a6.85,6.85,0,0,1,0,12.13L3358.58,391a6.82,6.82,0,0,1-10.27-5.89v-61a6.85,6.85,0,0,1,6.85-6.85m0-13.7a20.55,20.55,0,0,0-20.55,20.55v61a20.55,20.55,0,0,0,31,17.95l53.29-30.48a20.55,20.55,0,0,0,0-35.9l-53.29-30.48a20.55,20.55,0,0,0-10.21-2.74Zm0,0" transform="translate(-3023.49 81.19)" fill="#5b2c4f"/></svg>