<?xml version="1.0" encoding="iso-8859-1"?>
<svg version="1.1" id="&#x56FE;&#x5C42;_1" xmlns="http://www.w3.org/2000/svg" viewBox="0 0 1021.06 344.16"
	style="enable-background:new 0 0 500 500;" xml:space="preserve">
	<path style="fill:#4b7cbf;" d="M127.19,66.41l9.38,-12.5q18.75,9.38 36.72,20.31a37.38,37.38 0,0 0,-10.16 14.06A174.48,174.48 0,0 0,127.19 66.41ZM163.13,142.58q-11.72,18.37 -19.53,33.2a120.17,120.17 0,0 0,-16.41 -13.28q9.38,-8.59 20.7,-25A239.09,239.09 0,0 0,167.03 104.72a156.19,156.19 0,0 0,13.28 13.28Q174.81,124.23 163.12,142.58ZM183.44,28.13a54.24,54.24 0,0 0,-11.72 12.5,317.09 317.09,0 0,0 -30.47,-25q5.46,-6.24 10.16,-11.72Q172.5,19.54 183.44,28.13ZM295.94,73.44L295.94,86.72q-6.26,0.79 -29.3,21.88t-44.92,39.84q11.72,8.61 28.52,10.94A234.53,234.53 0,0 0,282.65 161.72q15.62,0 28.91,-0.78 -7.82,9.38 -8.59,18 -25.78,-0.79 -41.8,-2.73T235.39,170.72a60.46,60.46 0,0 1,-17.19 -9.37q-7.43,-5.86 -15.23,-2.34t-14.84,13.67a85.26,85.26 0,0 0,-11.72 -12.5,82.35 82.35,0 0,1 14.84,-12.11q7,-4.28 18,-5.08Q234.21,119.53 267.81,86.72L217.03,86.72q-14.06,0 -28.91,0.78L188.12,72.66q15.62,0.79 28.91,0.78h78.91ZM252.19,27.35 L195.94,33.6a98.15,98.15 0,0 0,-7 -15.62q20.31,0 51.17,-3.12t48,-10.16q4.69,11.72 10.16,18Q287.33,23.44 252.19,27.35ZM258.44,64.07Q248.27,68.72 242.81,71.88a126.9,126.9 0,0 0,-14.06 -30.47,120.92 120.92,0 0,0 14.84,-7Q251.39,49.23 258.44,64.06Z"/>
	<path style="fill:#4b7cbf;" d="M355.31,155.47h125L480.31,92.19a257.79,257.79 0,0 0,-1.56 -26.56h17.19q-0.79,18 -0.78,26.56v68q0,10.14 0.78,21.09L480.31,181.28L480.31,168.72L339.69,168.72q0.77,-8.61 0.78,-50t-0.78,-53.12h16.41q-0.79,8.61 -0.78,18.75v71.09ZM488.12,7.81v14.84a281.42,281.42 0,0 0,-30.47 12.89q-18.75,9 -31.25,14.45v77.34q0,12.51 -8.59,16a110.13,110.13 0,0 1,-21.09 5.86,73.86 73.86,0 0,0 -5.47,-17.19q12.49,0 16.8,-1.56t4.3,-11.72L412.35,65.63A153.06,153.06 0,0 0,410.81 41.41q7.8,-2.34 22.66,-8.59t25,-11.72L378.75,21.1q-16.41,0 -28.91,0.78L349.84,7.03q15.62,0.79 28.91,0.78L488.12,7.81ZM387.73,115.24A193.94,193.94 0,0 0,367.81 130.47q-2.34,-5.46 -8.59,-13.28 5.46,-2.34 17.58,-9.77a137.78,137.78 0,0 0,20.7 -15.23,80.61 80.61,0 0,0 4.69,13.28Q396.71,109.39 387.73,115.24ZM380.31,69.92a146.37,146.37 0,0 0,-16.41 -12.89,52.69 52.69,0 0,0 8.59,-10.94q8.59,6.26 28.13,23.44 -5.48,7 -9.37,12.5A94.4,94.4 0,0 0,380.31 69.92ZM458.44,107.03q6.24,5.47 15.63,14.84a79.63,79.63 0,0 0,-10.94 11.72q-7.82,-8.59 -14.06,-14.84T430.31,101.56a88,88 0,0 0,9.38 -10.94ZM460.44,70.7q-7.43,5.86 -17.58,13.67a77,77 0,0 0,-7.81 -11.72q8.59,-6.24 14.06,-10.94t12.5,-11.72q5.46,6.26 11.72,12.5A60.09,60.09 0,0 0,460.39 70.72Z"/>
	<path style="fill:#4b7cbf;" d="M608.44,72.66q-5.48,-0.77 -21.09,-0.78h-7.81v83.59q0,10.14 0.78,26.56L563.9,182.03q0.77,-16.41 0.78,-26.56L564.68,103.91q-5.48,12.51 -10.94,22.66a289.51,289.51 0,0 1,-15.62 25q-5.48,-6.24 -11.72,-12.5a174.12,174.12 0,0 0,22.27 -32,220 220,0 0,0 14.45,-35.16h-5.47q-14.06,0 -27.34,0.78L530.31,57.81q13.27,0.79 27.34,0.78h7L564.65,27.35q-9.37,1.57 -25.78,5.47a68.8,68.8 0,0 0,-7.81 -13.28q7,-0.77 24.22,-4.3t26.56,-5.86a67,67 0,0 0,16.41 -6.25,88.13 88.13,0 0,0 9.38,14.84A102,102 0,0 0,593.2 20.72a104,104 0,0 1,-13.67 2.73v35.16h8.59q14.83,0 20.31,-0.78v14.84ZM602.97,91.41q6.24,6.26 13.28,14.06a103.83,103.83 0,0 0,-12.5 10.94,149.38 149.38,0 0,0 -21.09,-25.78q5.46,-3.11 10.16,-10.16Q596.71,85.16 602.97,91.41ZM666.25,23.41a207.58,207.58 0,0 0,-0.78 -21.87h17.19a151.71,151.71 0,0 0,-0.78 18.75v87.5q20.31,-3.9 25.78,-5.47l2.34,14.06q-11.72,1.57 -28.12,5.47v29.69q0,15.62 0.78,30.47L665.47,182.01q0.77,-14.85 0.78,-30.47L666.25,125q-18,3.13 -31.64,5.86a273.37,273.37 0,0 0,-28.52 7.42l-5.47,-15.62q23.44,-3.9 65.63,-11.72v-87.5ZM638.91,77.32q7,6.26 18,18a134.77,134.77 0,0 0,-12.5 10.94,251.85 251.85,0 0,0 -29.69,-32q4.69,-4.69 9.38,-10.16Q631.86,71.1 638.9,77.35ZM642.04,28.1q7,7.82 18.75,22.66a96.81,96.81 0,0 0,-13.28 9.38q-10.16,-14.83 -16.41,-21.87t-10.16,-11.72a47.27,47.27 0,0 0,10.94 -9.37Q634.99,20.32 642.03,28.13Z"/>
	<path style="fill:#4b7cbf;" d="M794.37,89.06q-10.95,5.47 -22.66,10.94v58.59q0.77,9.38 -5.47,14.06t-25,7.81a69.84,69.84 0,0 0,-6.25 -17.19q15.62,0.77 19.14,-2.73a11.24,11.24 0,0 0,3.52 -8.2L757.65,107.03a213.12,213.12 0,0 0,-24.22 12.5A37.13,37.13 0,0 0,725.62 104.72q7.8,-1.56 32,-12.5L757.62,53.91q-16.41,0 -27.34,0.78L730.28,40.63q10.93,0.79 27.34,0.78 0,-28.12 -0.78,-41.41h15.63q-0.79,11.72 -0.78,41.41 8.59,0 21.09,-0.78L792.78,54.72q-12.51,-0.77 -21.09,-0.78v32a125.53,125.53 0,0 0,20.31 -10.94Q792.81,80.48 794.37,89.06ZM802.96,74.22q16.41,0.79 38.28,0.78L841.24,43.72h-18q-14.06,0 -23.44,0.78L799.8,30.47q11.72,0.79 21.88,0.78h19.53q0,-11.72 -0.78,-28.91h16.41q-0.79,14.06 -0.78,28.91h27.34q8.59,0 19.53,-0.78v14.06q-10.95,-0.77 -19.53,-0.78h-27.34v31.25h39.84a200.92,200.92 0,0 1,-12.5 34.38A150.06,150.06 0,0 1,860.81 144.53a116.94,116.94 0,0 0,25.78 14.84,143.71 143.71,0 0,0 24.22,7.81 88.13,88.13 0,0 0,-9.37 14.84q-25.78,-7.82 -51.56,-28.12 -16.41,13.28 -54.69,27.34 -3.13,-4.69 -11.72,-14.84a114.1,114.1 0,0 0,25.78 -7,196.6 196.6,0 0,0 29.69,-14.84 171.28,171.28 0,0 1,-25.78 -57L802.97,87.56L802.97,74.22ZM849.81,134.38q7,-6.24 14.45,-19.53A150.27,150.27 0,0 0,876.4 86.72L827.19,86.72Q837.33,120.32 849.81,134.38Z"/>
	<path style="fill:#505050;" d="M6.87,294.16L6.87,340.72h-6.87q0.62,-6.88 0.63,-12.5L0.63,294.47a69.12,69.12 0,0 0,-0.62 -9.69h7.19Q6.87,289.47 6.87,294.16ZM19.06,280.72a29.12,29.12 0,0 0,-6.25 3.44,41 41,0 0,0 -6.87,-11.25 18,18 0,0 0,5.31 -3.44A84.27,84.27 0,0 1,19.06 280.72ZM30,295.72q0,-6.56 -0.31,-10.62h6.88q-0.31,5.94 -0.31,10.63h7.19q4.69,0 10,-0.31v6.25q-5,-0.31 -10,-0.31h-7.19v21.25q0,6.25 0.31,12.81h-6.87q0.31,-6.56 0.31,-12.81v-12.5A110.75,110.75 0,0 1,14.69 330.72a14.32,14.32 0,0 0,-5.31 -4.69,65.75 65.75,0 0,0 9.84,-10.16A67,67 0,0 0,27.81 301.35q-8.13,0 -15.31,0.31v-6.25q7.19,0.31 11.88,0.31h5.63ZM64.69,274.78q-0.31,6.25 -0.31,12.19v45.31q0.31,6.87 -3.59,8.28a41.84,41.84 0,0 1,-8.91 2,22.24 22.24,0 0,0 -3.12,-7.5q6.25,0.31 8,-0.31t1.41,-4.06L58.17,280.72h-17.5q-9.69,0 -15.62,0.31v-6.56q5.93,0.31 15,0.31h24.69ZM55.32,321.66q-1.25,1.25 -5.31,4.69a106.79,106.79 0,0 0,-11.87 -15.94,35.08 35.08,0 0,0 4.38,-3.75A138.55,138.55 0,0 1,55.31 321.66Z"/>
	<path style="fill:#505050;" d="M155.37,286.97v31.56q0,6.56 0.31,13.13h-5.62v-3.75h-9.37v9.06h-5.62q0.31,-8.44 0.31,-15.94L135.38,287.6q0,-5 -0.31,-12.19h20.63Q155.37,280.72 155.37,286.97ZM150.06,299.16L150.06,281.03h-9.37v18.13h9.38ZM150.06,322.6L150.06,304.78h-9.37v17.81h9.38ZM178.81,285.41q0,5.94 0.31,10.63L166,296.04v7.5q6.87,0 11.56,-0.31v5.94q-4.69,-0.31 -11.56,-0.31v8.75q7.5,0 11.56,-0.31v6.56q-3.75,-0.31 -11.56,-0.31L166,343.22h-5.62q0.31,-6.88 0.31,-13.44L160.69,285.1q0,-6.25 -0.31,-11.25h18.75Q178.81,279.16 178.81,285.41ZM173.81,290.72L173.81,279.16h-7.81L166,290.72L173.81,290.72ZM179.44,309.16L179.44,303.22q7.19,0.31 10.63,0.31h12.19a108.59,108.59 0,0 1,-2.5 13.91,38.21 38.21,0 0,1 -5.31,11.72 30.18,30.18 0,0 0,11.88 9.06,13.42 13.42,0 0,0 -5,5.31 66.9,66.9 0,0 1,-10.31 -10,99.51 99.51,0 0,1 -13.12,10.31 14.62,14.62 0,0 0,-4.69 -5.31,29.22 29.22,0 0,0 14.06,-9.69q-4.38,-6.87 -5.94,-19.69h-1.87ZM199.75,295.41q-12.5,0 -16.56,0.31v-5.94q3.12,0.31 11.25,0.31L194.44,278.85q-8.13,0 -11.25,0.31L183.19,273.22q3.75,0.31 16.56,0.31v21.88ZM191,324.47a39.31,39.31 0,0 0,4.69 -15.62h-9.69Q187.24,318.85 191,324.47Z"/>
	<path style="fill:#505050;" d="M296.06,305.72q0,15.94 0.31,25L289.81,330.72v-5.94L277.31,324.78v10.31h-6.56q0.31,-14.37 0.31,-28.75 0,-14.69 -0.31,-27.81h25.63Q296.06,289.78 296.06,305.72ZM289.81,298.53L289.81,283.85L277.31,283.85v14.69L289.81,298.54ZM289.81,319.47L289.81,303.85L277.31,303.85v15.63L289.81,319.48ZM325.44,270.41h6.88q-0.31,8.13 -0.31,17.5 4.69,0 10,-0.31v5.94q-5.32,-0.31 -10,-0.31v41.88q0,4.69 -3.75,5.94a47.41,47.41 0,0 1,-9.69 1.88q0,-3.75 -3.44,-7.19a41.28,41.28 0,0 0,8.28 0.31q2.34,-0.31 2.34,-4.06L325.75,293.22q-15.63,0 -26.25,0.31v-5.94q10,0.31 26.25,0.31Q325.75,278.53 325.44,270.41ZM317,315.72a34.44,34.44 0,0 0,-6.56 2.81,52.91 52.91,0 0,0 -7.19,-14.06q2.81,-1.25 5.94,-2.81Q313.24,308.22 317,315.72Z"/>
	<path style="fill:#505050;" d="M407.69,342.28q0.62,-6.25 0.63,-13.12L408.32,296.35a79.76,79.76 0,0 0,-0.62 -10.94h7.19q-0.31,4.69 -0.31,9.06v35q0,6.25 0.31,12.81h-7.19ZM428.63,281.34a65.07,65.07 0,0 0,-6.56 3.44,61.59 61.59,0 0,0 -7.81,-11.87 31.31,31.31 0,0 1,5.63 -3.44Q422.69,273.22 428.62,281.35ZM456.13,301.65L456.13,318.22q0,4.06 0.31,9.69L424.87,327.91q0.31,-5.62 0.31,-10L425.18,301.66q0,-4.37 -0.31,-10.31h31.56Q456.12,297.28 456.12,301.66ZM450.19,306.34v-10L431.12,296.34v10h19.06ZM450.19,322.9L450.19,311.35L431.12,311.35v11.56h19.06ZM473.32,274.78q-0.31,5.94 -0.31,11.88v45.94q0.31,7.19 -3.91,8.75a41.5,41.5 0,0 1,-9.22 2.19,17.83 17.83,0 0,0 -2.5,-7.5q5.93,0.31 7.66,-0.62c1.14,-0.62 1.72,-2 1.72,-4.06L466.76,280.1L448,280.1q-7.5,0 -14.06,0.31v-5.94q6.56,0.31 14.06,0.31L473.31,274.78Z"/>
	<path style="fill:#505050;" d="M560.87,318.22q5.93,0 7.66,-1.56t1.41,-14.69L555.56,301.97v29.06q0,4.38 3.75,4.38h12.81q2.18,0.31 3.28,-2.19a19.87,19.87 0,0 0,1.41 -6.25,27.78 27.78,0 0,0 6.56,2.81q-2.19,8.13 -4.22,9.53a9.46,9.46 0,0 1,-5.47 1.41h-17.5q-6.25,0 -6.25,-6.56L549.93,307.6q0,-4.69 -0.31,-10.31 -2.19,2.5 -5,5.31a26.17,26.17 0,0 0,-5.31 -4.69,64.92 64.92,0 0,0 6.56,-5.47A53.7,53.7 0,0 0,551.81 285.72q2.81,-3.75 5.31,-7.5a46,46 0,0 0,4.38 -8.44,45.54 45.54,0 0,0 6.88,4.06 20.62,20.62 0,0 0,-3.12 2.5q2.81,2.19 7.19,5A71.67,71.67 0,0 1,583.37 290.72a21.69,21.69 0,0 0,-4.69 5q-5.94,-7.19 -9.22,-9.69t-6.72,-5q-4.69,6.56 -7.5,10l-4.69,5.31h25.63q-0.31,9.07 -0.31,14.06a35.11,35.11 0,0 1,-0.78 8,6.59 6.59,0 0,1 -3.91,4.69 28.26,28.26 0,0 1,-7.81 2A46,46 0,0 0,560.87 318.22ZM591.81,293.85v22.5q0,5.94 0.31,10h-6.56q0.31,-5 0.31,-10L585.87,292.91q0,-4.69 -0.31,-10h6.56Q591.81,287.91 591.81,293.85ZM608.06,282.91v51.56q0,5.31 -2.66,6.56a35.31,35.31 0,0 1,-8.91 2.19,24.59 24.59,0 0,0 -2.81,-7.19 49.37,49.37 0,0 0,7.19 -0.31q1.56,-0.31 1.56,-3.44L602.43,282.91q0,-5 -0.31,-10.94h6.25Q608.06,277.29 608.06,282.91Z"/>
	<path style="fill:#505050;" d="M688.44,327.91L688.44,303.22q-5.94,0 -11.25,0.31v-5.62q6.25,0.31 17.5,0.31 -0.31,5.94 -0.31,9.38v19.69a22.6,22.6 0,0 0,10.94 6.25q6.87,1.88 18.44,2.19t26.56,-0.62a12.76,12.76 0,0 0,-2.81 7.19q-30,-0.63 -35.62,-1.56a51.05,51.05 0,0 1,-9.37 -2.34,36.61 36.61,0 0,1 -7.66,-4.06q-3.91,-2.65 -8,0.94a44.19,44.19 0,0 0,-6.56 7,39.84 39.84,0 0,0 -5,-5.31Q684.69,329.78 688.44,327.91ZM689.69,289.16q-4.38,-6.56 -8.75,-12.5 2.5,-1.87 4.69,-3.75 7.5,10 9.38,12.81A46.44,46.44 0,0 1,689.69 289.16ZM709.69,280.72L720.31,280.72q0,-7.5 -0.31,-10.31h6.25q-0.31,3.13 -0.31,10.31 11.25,0 17.19,-0.31L743.13,285.72q-5.62,-0.31 -17.19,-0.31L725.94,295.72q16.56,0 22.5,-0.31v5.63q-5.94,-0.31 -25.94,-0.31 -19.69,0 -25.31,0.31v-5.62Q702.81,295.72 720.31,295.72L720.31,285.41L708.12,285.41a76.19,76.19 0,0 0,-3.44 7.19q-2.81,-1.25 -5.62,-2.19a70.68,70.68 0,0 0,6.25 -17.5q3.12,0.63 6.88,1.56A24.36,24.36 0,0 0,709.69 280.72ZM741.57,318.85q0,5.94 0.31,11.88L735.31,330.73v-4.37L710.62,326.36v4.06h-6.25q0.31,-5.93 0.31,-11.87t-0.31,-11.87h37.5Q741.56,312.91 741.56,318.85ZM735.32,321.66v-10L710.62,311.66v10L735.31,321.66Z"/>
	<path style="fill:#505050;" d="M829.44,288.53v41.56q0,8.44 0.31,13.75h-6.25q0,-5.32 0.31,-13.75L823.81,298.53a85.43,85.43 0,0 1,-6.87 10.94,17.06 17.06,0 0,0 -5.31,-4.37 70.05,70.05 0,0 0,11.25 -16.87,76.21 76.21,0 0,0 6.25,-17.19 32.88,32.88 0,0 0,7.19 2.5Q834.44,276.66 829.44,288.53ZM861,276.97a51.7,51.7 0,0 0,24.69 21.88,24.2 24.2,0 0,0 -4.69,5.63q-13.12,-7.5 -22.81,-22.5a75,75 0,0 1,-21.25 24.38,29.65 29.65,0 0,0 -4.37,-4.69q11.56,-7.5 16.88,-16.56t6.25,-13.75a48.35,48.35 0,0 0,7.19 3.13ZM850.38,322.13q-0.94,12.35 -12.5,22a15.48,15.48 0,0 0,-5 -4.69q11.56,-8.12 12.34,-19.53a165.77,165.77 0,0 0,0.47 -18,44.67 44.67,0 0,0 6.56,0.63Q851.31,309.79 850.37,322.13ZM871.94,314.13v19.69q0,4.69 0.31,10h-6.56q0.31,-5.32 0.31,-10.31L866,312.28q0,-3.44 -0.31,-10.31h6.56Q871.93,308.85 871.94,314.16Z"/>
	<path style="fill:#505050;" d="M965.44,288.85v41.25q0,6.56 0.31,12.5h-6.56q0.31,-5.32 0.31,-11.56L959.5,298.85a81.11,81.11 0,0 1,-6.87 10,31.55 31.55,0 0,0 -4.69,-5.31q3.12,-3.12 8.59,-12a78.56,78.56 0,0 0,8.59 -20.16,48.34 48.34,0 0,0 7.5,3.13Q970.12,277.28 965.44,288.85ZM990.75,280.1v-8.12q3.75,0.31 8.44,0.63 -1.57,2.19 -1.87,7.5h11.56q5.31,0 9.38,-0.31v5.63q-4.38,-0.31 -9.37,-0.31h-11.87l-0.62,6.88h15.94q-0.31,3.75 -0.31,10v31.88q6.25,0 9.06,-0.31v5.63q-4.06,-0.31 -11.25,-0.31h-29.37q-7.19,0 -11.87,0.31v-5.62a87.11,87.11 0,0 0,8.75 0.31L977.35,301.97q0,-5.93 -0.31,-10L989.81,291.97l0.63,-6.87L984.81,285.1q-7.81,0 -12.19,0.31v-5.62q4.06,0.31 12.19,0.31h5.94ZM1006.38,302.6v-6.25h-23.12v6.25h23.13ZM1006.38,312.91v-5.62h-23.12v5.63h23.13ZM1006.38,323.22v-5.62h-23.12v5.63h23.13ZM1006.38,333.85v-5.94h-23.12v5.94h23.13Z"/>
</svg>